<?xml version="1.0" encoding="UTF-8" standalone="no"?>
<!DOCTYPE svg PUBLIC "-//W3C//DTD SVG 1.1//EN"
 "http://www.w3.org/Graphics/SVG/1.1/DTD/svg11.dtd">
<!-- Generated by graphviz version 2.43.0 (0)
 -->
<!-- Title: OnboardingFlow Pages: 1 -->
<svg width="1519pt" height="2135pt"
 viewBox="0.00 0.00 1519.00 2134.71" xmlns="http://www.w3.org/2000/svg" xmlns:xlink="http://www.w3.org/1999/xlink">
<g id="graph0" class="graph" transform="scale(1 1) rotate(0) translate(36 2098.71)">
<title>OnboardingFlow</title>
<polygon fill="white" stroke="transparent" points="-36,36 -36,-2098.71 1483,-2098.71 1483,36 -36,36"/>
<text text-anchor="middle" x="723.5" y="-2049.11" font-family="Helvetica,sans-Serif" font-size="12.00">Market Data Collector &#45; Onboarding &amp; Diagnostics Flow</text>
<text text-anchor="middle" x="723.5" y="-2036.11" font-family="Helvetica,sans-Serif" font-size="12.00">User Journey from Installation to Operation | v1.6.1</text>
<g id="clust1" class="cluster">
<title>cluster_firstrun</title>
<path fill="#fffaf0" stroke="#ed8936" d="M414,-1663.5C414,-1663.5 564,-1663.5 564,-1663.5 570,-1663.5 576,-1669.5 576,-1675.5 576,-1675.5 576,-1913.5 576,-1913.5 576,-1919.5 570,-1925.5 564,-1925.5 564,-1925.5 414,-1925.5 414,-1925.5 408,-1925.5 402,-1919.5 402,-1913.5 402,-1913.5 402,-1675.5 402,-1675.5 402,-1669.5 408,-1663.5 414,-1663.5"/>
<text text-anchor="middle" x="489" y="-1911.9" font-family="Helvetica,sans-Serif" font-size="12.00">First&#45;Run Detection</text>
</g>
<g id="clust2" class="cluster">
<title>cluster_setup</title>
<path fill="#ede9fe" stroke="#805ad5" d="M20,-1433.5C20,-1433.5 482,-1433.5 482,-1433.5 488,-1433.5 494,-1439.5 494,-1445.5 494,-1445.5 494,-1632.5 494,-1632.5 494,-1638.5 488,-1644.5 482,-1644.5 482,-1644.5 20,-1644.5 20,-1644.5 14,-1644.5 8,-1638.5 8,-1632.5 8,-1632.5 8,-1445.5 8,-1445.5 8,-1439.5 14,-1433.5 20,-1433.5"/>
<text text-anchor="middle" x="251" y="-1630.9" font-family="Helvetica,sans-Serif" font-size="12.00">Setup Options (Choose One)</text>
</g>
<g id="clust3" class="cluster">
<title>cluster_wizard</title>
<path fill="#d1fae5" stroke="#2c7a7b" d="M297,-628C297,-628 471,-628 471,-628 477,-628 483,-634 483,-640 483,-640 483,-1402.5 483,-1402.5 483,-1408.5 477,-1414.5 471,-1414.5 471,-1414.5 297,-1414.5 297,-1414.5 291,-1414.5 285,-1408.5 285,-1402.5 285,-1402.5 285,-640 285,-640 285,-634 291,-628 297,-628"/>
<text text-anchor="middle" x="384" y="-1400.9" font-family="Helvetica,sans-Serif" font-size="12.00">Configuration Wizard (8 Steps)</text>
</g>
<g id="clust4" class="cluster">
<title>cluster_validation</title>
<path fill="#dbeafe" stroke="#2b6cb0" d="M129,-229C129,-229 682,-229 682,-229 688,-229 694,-235 694,-241 694,-241 694,-441.5 694,-441.5 694,-447.5 688,-453.5 682,-453.5 682,-453.5 129,-453.5 129,-453.5 123,-453.5 117,-447.5 117,-441.5 117,-441.5 117,-241 117,-241 117,-235 123,-229 129,-229"/>
<text text-anchor="middle" x="405.5" y="-439.9" font-family="Helvetica,sans-Serif" font-size="12.00">Validation &amp; Diagnostics</text>
</g>
<g id="clust5" class="cluster">
<title>cluster_docs</title>
<path fill="#f0fff4" stroke="#38a169" d="M503,-622.5C503,-622.5 884,-622.5 884,-622.5 890,-622.5 896,-628.5 896,-634.5 896,-634.5 896,-711.5 896,-711.5 896,-717.5 890,-723.5 884,-723.5 884,-723.5 503,-723.5 503,-723.5 497,-723.5 491,-717.5 491,-711.5 491,-711.5 491,-634.5 491,-634.5 491,-628.5 497,-622.5 503,-622.5"/>
<text text-anchor="middle" x="693.5" y="-709.9" font-family="Helvetica,sans-Serif" font-size="12.00">Documentation &amp; Help</text>
</g>
<g id="clust6" class="cluster">
<title>cluster_ready</title>
<path fill="#c6f6d5" stroke="#38a169" d="M531,-8C531,-8 643,-8 643,-8 649,-8 655,-14 655,-20 655,-20 655,-198 655,-198 655,-204 649,-210 643,-210 643,-210 531,-210 531,-210 525,-210 519,-204 519,-198 519,-198 519,-20 519,-20 519,-14 525,-8 531,-8"/>
<text text-anchor="middle" x="587" y="-196.4" font-family="Helvetica,sans-Serif" font-size="12.00">Ready to Operate</text>
</g>
<g id="clust7" class="cluster">
<title>cluster_errors</title>
<path fill="#fee2e2" stroke="#e53e3e" d="M764,-330C764,-330 884,-330 884,-330 890,-330 896,-336 896,-342 896,-342 896,-582.5 896,-582.5 896,-588.5 890,-594.5 884,-594.5 884,-594.5 764,-594.5 764,-594.5 758,-594.5 752,-588.5 752,-582.5 752,-582.5 752,-342 752,-342 752,-336 758,-330 764,-330"/>
<text text-anchor="middle" x="824" y="-580.9" font-family="Helvetica,sans-Serif" font-size="12.00">Error Handling</text>
</g>
<g id="clust8" class="cluster">
<title>cluster_legend</title>
<path fill="#fafafa" stroke="#666666" d="M597,-1947.71C597,-1947.71 1427,-1947.71 1427,-1947.71 1433,-1947.71 1439,-1953.71 1439,-1959.71 1439,-1959.71 1439,-2008.71 1439,-2008.71 1439,-2014.71 1433,-2020.71 1427,-2020.71 1427,-2020.71 597,-2020.71 597,-2020.71 591,-2020.71 585,-2014.71 585,-2008.71 585,-2008.71 585,-1959.71 585,-1959.71 585,-1953.71 591,-1947.71 597,-1947.71"/>
<text text-anchor="middle" x="1012" y="-2007.11" font-family="Helvetica,sans-Serif" font-size="12.00">Legend</text>
</g>
<!-- START -->
<g id="node1" class="node">
<title>START</title>
<ellipse fill="#38a169" stroke="black" cx="493" cy="-1973.71" rx="82.96" ry="21.43"/>
<text text-anchor="middle" x="493" y="-1976.71" font-family="Helvetica,sans-Serif" font-size="10.00" fill="white">User Runs</text>
<text text-anchor="middle" x="493" y="-1965.71" font-family="Helvetica,sans-Serif" font-size="10.00" fill="white">Meridian</text>
</g>
<!-- FIRST_RUN -->
<g id="node2" class="node">
<title>FIRST_RUN</title>
<path fill="#fbd38d" stroke="black" d="M554,-1896.5C554,-1896.5 432,-1896.5 432,-1896.5 426,-1896.5 420,-1890.5 420,-1884.5 420,-1884.5 420,-1855.5 420,-1855.5 420,-1849.5 426,-1843.5 432,-1843.5 432,-1843.5 554,-1843.5 554,-1843.5 560,-1843.5 566,-1849.5 566,-1855.5 566,-1855.5 566,-1884.5 566,-1884.5 566,-1890.5 560,-1896.5 554,-1896.5"/>
<text text-anchor="middle" x="493" y="-1884.5" font-family="Helvetica,sans-Serif" font-size="10.00">FirstRunDetector</text>
<text text-anchor="middle" x="493" y="-1861.5" font-family="Helvetica,sans-Serif" font-size="10.00">Check for .mdc&#45;initialized</text>
<text text-anchor="middle" x="493" y="-1850.5" font-family="Helvetica,sans-Serif" font-size="10.00">Check for appsettings.json</text>
</g>
<!-- START&#45;&gt;FIRST_RUN -->
<g id="edge1" class="edge">
<title>START&#45;&gt;FIRST_RUN</title>
<path fill="none" stroke="#38a169" d="M493,-1952.48C493,-1952.48 493,-1906.75 493,-1906.75"/>
<polygon fill="#38a169" stroke="#38a169" points="496.5,-1906.75 493,-1896.75 489.5,-1906.75 496.5,-1906.75"/>
</g>
<!-- FIRST_RUN_CHOICE -->
<g id="node4" class="node">
<title>FIRST_RUN_CHOICE</title>
<path fill="#fed7aa" stroke="black" d="M481.61,-1802.72C481.61,-1802.72 450.16,-1792.28 450.16,-1792.28 444.47,-1790.39 444.47,-1786.61 450.16,-1784.72 450.16,-1784.72 481.61,-1774.28 481.61,-1774.28 487.31,-1772.39 498.69,-1772.39 504.39,-1774.28 504.39,-1774.28 535.84,-1784.72 535.84,-1784.72 541.53,-1786.61 541.53,-1790.39 535.84,-1792.28 535.84,-1792.28 504.39,-1802.72 504.39,-1802.72 498.69,-1804.61 487.31,-1804.61 481.61,-1802.72"/>
<text text-anchor="middle" x="493" y="-1786" font-family="Helvetica,sans-Serif" font-size="10.00">First Run?</text>
</g>
<!-- FIRST_RUN&#45;&gt;FIRST_RUN_CHOICE -->
<g id="edge2" class="edge">
<title>FIRST_RUN&#45;&gt;FIRST_RUN_CHOICE</title>
<path fill="none" stroke="#4a5568" d="M493,-1843.31C493,-1843.31 493,-1816.99 493,-1816.99"/>
<polygon fill="#4a5568" stroke="#4a5568" points="496.5,-1816.99 493,-1806.99 489.5,-1816.99 496.5,-1816.99"/>
</g>
<!-- WELCOME -->
<g id="node3" class="node">
<title>WELCOME</title>
<path fill="#fbd38d" stroke="black" d="M555.5,-1724.5C555.5,-1724.5 422.5,-1724.5 422.5,-1724.5 416.5,-1724.5 410.5,-1718.5 410.5,-1712.5 410.5,-1712.5 410.5,-1683.5 410.5,-1683.5 410.5,-1677.5 416.5,-1671.5 422.5,-1671.5 422.5,-1671.5 555.5,-1671.5 555.5,-1671.5 561.5,-1671.5 567.5,-1677.5 567.5,-1683.5 567.5,-1683.5 567.5,-1712.5 567.5,-1712.5 567.5,-1718.5 561.5,-1724.5 555.5,-1724.5"/>
<text text-anchor="middle" x="489" y="-1712.5" font-family="Helvetica,sans-Serif" font-size="10.00">Welcome Message</text>
<text text-anchor="middle" x="489" y="-1689.5" font-family="Helvetica,sans-Serif" font-size="10.00">Display ASCII banner</text>
<text text-anchor="middle" x="489" y="-1678.5" font-family="Helvetica,sans-Serif" font-size="10.00">Show getting started options</text>
</g>
<!-- WIZARD_OPT -->
<g id="node5" class="node">
<title>WIZARD_OPT</title>
<path fill="#c4b5fd" stroke="black" d="M463.5,-1505.5C463.5,-1505.5 368.5,-1505.5 368.5,-1505.5 362.5,-1505.5 356.5,-1499.5 356.5,-1493.5 356.5,-1493.5 356.5,-1453.5 356.5,-1453.5 356.5,-1447.5 362.5,-1441.5 368.5,-1441.5 368.5,-1441.5 463.5,-1441.5 463.5,-1441.5 469.5,-1441.5 475.5,-1447.5 475.5,-1453.5 475.5,-1453.5 475.5,-1493.5 475.5,-1493.5 475.5,-1499.5 469.5,-1505.5 463.5,-1505.5"/>
<text text-anchor="middle" x="416" y="-1493.5" font-family="Helvetica,sans-Serif" font-size="10.00">&#45;&#45;wizard</text>
<text text-anchor="middle" x="416" y="-1482.5" font-family="Helvetica,sans-Serif" font-size="10.00">[Interactive Setup]</text>
<text text-anchor="middle" x="416" y="-1459.5" font-family="Helvetica,sans-Serif" font-size="10.00">8&#45;step guided wizard</text>
<text text-anchor="middle" x="416" y="-1448.5" font-family="Helvetica,sans-Serif" font-size="10.00">Best for new users</text>
</g>
<!-- WELCOME&#45;&gt;WIZARD_OPT -->
<g id="edge5" class="edge">
<title>WELCOME&#45;&gt;WIZARD_OPT</title>
<path fill="none" stroke="#4a5568" stroke-dasharray="5,2" d="M492.5,-1671.31C492.5,-1611.71 492.5,-1473 492.5,-1473 492.5,-1473 485.52,-1473 485.52,-1473"/>
<polygon fill="#4a5568" stroke="#4a5568" points="485.52,-1469.5 475.52,-1473 485.52,-1476.5 485.52,-1469.5"/>
</g>
<!-- AUTO_OPT -->
<g id="node6" class="node">
<title>AUTO_OPT</title>
<path fill="#c4b5fd" stroke="black" d="M149.5,-1615.5C149.5,-1615.5 28.5,-1615.5 28.5,-1615.5 22.5,-1615.5 16.5,-1609.5 16.5,-1603.5 16.5,-1603.5 16.5,-1563.5 16.5,-1563.5 16.5,-1557.5 22.5,-1551.5 28.5,-1551.5 28.5,-1551.5 149.5,-1551.5 149.5,-1551.5 155.5,-1551.5 161.5,-1557.5 161.5,-1563.5 161.5,-1563.5 161.5,-1603.5 161.5,-1603.5 161.5,-1609.5 155.5,-1615.5 149.5,-1615.5"/>
<text text-anchor="middle" x="89" y="-1603.5" font-family="Helvetica,sans-Serif" font-size="10.00">&#45;&#45;auto&#45;config</text>
<text text-anchor="middle" x="89" y="-1592.5" font-family="Helvetica,sans-Serif" font-size="10.00">[Quick Setup]</text>
<text text-anchor="middle" x="89" y="-1569.5" font-family="Helvetica,sans-Serif" font-size="10.00">Auto&#45;detect from env vars</text>
<text text-anchor="middle" x="89" y="-1558.5" font-family="Helvetica,sans-Serif" font-size="10.00">Best for CI/CD</text>
</g>
<!-- WELCOME&#45;&gt;AUTO_OPT -->
<g id="edge6" class="edge">
<title>WELCOME&#45;&gt;AUTO_OPT</title>
<path fill="none" stroke="#4a5568" stroke-dasharray="5,2" d="M410.45,-1698C293.96,-1698 89,-1698 89,-1698 89,-1698 89,-1625.7 89,-1625.7"/>
<polygon fill="#4a5568" stroke="#4a5568" points="92.5,-1625.7 89,-1615.7 85.5,-1625.7 92.5,-1625.7"/>
</g>
<!-- DETECT_OPT -->
<g id="node8" class="node">
<title>DETECT_OPT</title>
<path fill="#c4b5fd" stroke="black" d="M474,-1615.5C474,-1615.5 358,-1615.5 358,-1615.5 352,-1615.5 346,-1609.5 346,-1603.5 346,-1603.5 346,-1563.5 346,-1563.5 346,-1557.5 352,-1551.5 358,-1551.5 358,-1551.5 474,-1551.5 474,-1551.5 480,-1551.5 486,-1557.5 486,-1563.5 486,-1563.5 486,-1603.5 486,-1603.5 486,-1609.5 480,-1615.5 474,-1615.5"/>
<text text-anchor="middle" x="416" y="-1603.5" font-family="Helvetica,sans-Serif" font-size="10.00">&#45;&#45;detect&#45;providers</text>
<text text-anchor="middle" x="416" y="-1592.5" font-family="Helvetica,sans-Serif" font-size="10.00">[Discovery]</text>
<text text-anchor="middle" x="416" y="-1569.5" font-family="Helvetica,sans-Serif" font-size="10.00">Scan environment</text>
<text text-anchor="middle" x="416" y="-1558.5" font-family="Helvetica,sans-Serif" font-size="10.00">Show available providers</text>
</g>
<!-- WELCOME&#45;&gt;DETECT_OPT -->
<g id="edge7" class="edge">
<title>WELCOME&#45;&gt;DETECT_OPT</title>
<path fill="none" stroke="#4a5568" stroke-dasharray="5,2" d="M448.25,-1671.44C448.25,-1671.44 448.25,-1625.62 448.25,-1625.62"/>
<polygon fill="#4a5568" stroke="#4a5568" points="451.75,-1625.62 448.25,-1615.62 444.75,-1625.62 451.75,-1625.62"/>
</g>
<!-- FIRST_RUN_CHOICE&#45;&gt;WELCOME -->
<g id="edge3" class="edge">
<title>FIRST_RUN_CHOICE&#45;&gt;WELCOME</title>
<path fill="none" stroke="#4a5568" d="M493,-1770.19C493,-1770.19 493,-1734.52 493,-1734.52"/>
<polygon fill="#4a5568" stroke="#4a5568" points="496.5,-1734.52 493,-1724.52 489.5,-1734.52 496.5,-1734.52"/>
<text text-anchor="middle" x="499.5" y="-1745.3" font-family="Helvetica,sans-Serif" font-size="9.00">Yes</text>
</g>
<!-- STARTUP_SUM -->
<g id="node26" class="node">
<title>STARTUP_SUM</title>
<path fill="#68d391" stroke="black" d="M634,-181C634,-181 540,-181 540,-181 534,-181 528,-175 528,-169 528,-169 528,-129 528,-129 528,-123 534,-117 540,-117 540,-117 634,-117 634,-117 640,-117 646,-123 646,-129 646,-129 646,-169 646,-169 646,-175 640,-181 634,-181"/>
<text text-anchor="middle" x="587" y="-169" font-family="Helvetica,sans-Serif" font-size="10.00">StartupSummary</text>
<text text-anchor="middle" x="587" y="-146" font-family="Helvetica,sans-Serif" font-size="10.00">Configuration review</text>
<text text-anchor="middle" x="587" y="-135" font-family="Helvetica,sans-Serif" font-size="10.00">Provider status</text>
<text text-anchor="middle" x="587" y="-124" font-family="Helvetica,sans-Serif" font-size="10.00">Health checks</text>
</g>
<!-- FIRST_RUN_CHOICE&#45;&gt;STARTUP_SUM -->
<g id="edge4" class="edge">
<title>FIRST_RUN_CHOICE&#45;&gt;STARTUP_SUM</title>
<path fill="none" stroke="#38a169" d="M545.92,-1788C622.33,-1788 754.5,-1788 754.5,-1788 754.5,-1788 754.5,-149 754.5,-149 754.5,-149 656.05,-149 656.05,-149"/>
<polygon fill="#38a169" stroke="#38a169" points="656.05,-145.5 646.05,-149 656.05,-152.5 656.05,-145.5"/>
<text text-anchor="middle" x="922.5" y="-1004.3" font-family="Helvetica,sans-Serif" font-size="9.00">No</text>
</g>
<!-- W1 -->
<g id="node9" class="node">
<title>W1</title>
<path fill="#6ee7b7" stroke="black" d="M461.5,-1385.5C461.5,-1385.5 360.5,-1385.5 360.5,-1385.5 354.5,-1385.5 348.5,-1379.5 348.5,-1373.5 348.5,-1373.5 348.5,-1344.5 348.5,-1344.5 348.5,-1338.5 354.5,-1332.5 360.5,-1332.5 360.5,-1332.5 461.5,-1332.5 461.5,-1332.5 467.5,-1332.5 473.5,-1338.5 473.5,-1344.5 473.5,-1344.5 473.5,-1373.5 473.5,-1373.5 473.5,-1379.5 467.5,-1385.5 461.5,-1385.5"/>
<text text-anchor="middle" x="411" y="-1373.5" font-family="Helvetica,sans-Serif" font-size="10.00">1. Detect Providers</text>
<text text-anchor="middle" x="411" y="-1350.5" font-family="Helvetica,sans-Serif" font-size="10.00">Scan env vars</text>
<text text-anchor="middle" x="411" y="-1339.5" font-family="Helvetica,sans-Serif" font-size="10.00">Identify available APIs</text>
</g>
<!-- WIZARD_OPT&#45;&gt;W1 -->
<g id="edge8" class="edge">
<title>WIZARD_OPT&#45;&gt;W1</title>
<path fill="none" stroke="#805ad5" d="M415,-1441.3C415,-1441.3 415,-1395.56 415,-1395.56"/>
<polygon fill="#805ad5" stroke="#805ad5" points="418.5,-1395.56 415,-1385.56 411.5,-1395.56 418.5,-1395.56"/>
</g>
<!-- CONFIG -->
<g id="node25" class="node">
<title>CONFIG</title>
<path fill="#fef3c7" stroke="black" d="M467.5,-569.5C467.5,-573.91 439.93,-577.5 406,-577.5 372.07,-577.5 344.5,-573.91 344.5,-569.5 344.5,-569.5 344.5,-497.5 344.5,-497.5 344.5,-493.09 372.07,-489.5 406,-489.5 439.93,-489.5 467.5,-493.09 467.5,-497.5 467.5,-497.5 467.5,-569.5 467.5,-569.5"/>
<path fill="none" stroke="black" d="M467.5,-569.5C467.5,-565.09 439.93,-561.5 406,-561.5 372.07,-561.5 344.5,-565.09 344.5,-569.5"/>
<text text-anchor="middle" x="406" y="-553.5" font-family="Helvetica,sans-Serif" font-size="10.00">appsettings.json</text>
<text text-anchor="middle" x="406" y="-542.5" font-family="Helvetica,sans-Serif" font-size="10.00">[Configuration File]</text>
<text text-anchor="middle" x="406" y="-519.5" font-family="Helvetica,sans-Serif" font-size="10.00">Generated or updated</text>
<text text-anchor="middle" x="406" y="-508.5" font-family="Helvetica,sans-Serif" font-size="10.00">All settings stored</text>
</g>
<!-- AUTO_OPT&#45;&gt;CONFIG -->
<g id="edge9" class="edge">
<title>AUTO_OPT&#45;&gt;CONFIG</title>
<path fill="none" stroke="#805ad5" d="M143.5,-1551.49C143.5,-1375.43 143.5,-533 143.5,-533 143.5,-533 334.46,-533 334.46,-533"/>
<polygon fill="#805ad5" stroke="#805ad5" points="334.46,-536.5 344.46,-533 334.46,-529.5 334.46,-536.5"/>
<text text-anchor="middle" x="122" y="-1053.8" font-family="Helvetica,sans-Serif" font-size="9.00">generates</text>
</g>
<!-- GENERATE_OPT -->
<g id="node7" class="node">
<title>GENERATE_OPT</title>
<path fill="#c4b5fd" stroke="black" d="M316,-1615.5C316,-1615.5 192,-1615.5 192,-1615.5 186,-1615.5 180,-1609.5 180,-1603.5 180,-1603.5 180,-1563.5 180,-1563.5 180,-1557.5 186,-1551.5 192,-1551.5 192,-1551.5 316,-1551.5 316,-1551.5 322,-1551.5 328,-1557.5 328,-1563.5 328,-1563.5 328,-1603.5 328,-1603.5 328,-1609.5 322,-1615.5 316,-1615.5"/>
<text text-anchor="middle" x="254" y="-1603.5" font-family="Helvetica,sans-Serif" font-size="10.00">&#45;&#45;generate&#45;config &lt;type&gt;</text>
<text text-anchor="middle" x="254" y="-1592.5" font-family="Helvetica,sans-Serif" font-size="10.00">[Template Generation]</text>
<text text-anchor="middle" x="254" y="-1569.5" font-family="Helvetica,sans-Serif" font-size="10.00">minimal, full, alpaca</text>
<text text-anchor="middle" x="254" y="-1558.5" font-family="Helvetica,sans-Serif" font-size="10.00">backfill, production, docker</text>
</g>
<!-- GENERATE_OPT&#45;&gt;CONFIG -->
<g id="edge10" class="edge">
<title>GENERATE_OPT&#45;&gt;CONFIG</title>
<path fill="none" stroke="#805ad5" d="M304.5,-1551.31C304.5,-1377.09 304.5,-555 304.5,-555 304.5,-555 334.32,-555 334.32,-555"/>
<polygon fill="#805ad5" stroke="#805ad5" points="334.32,-558.5 344.32,-555 334.32,-551.5 334.32,-558.5"/>
<text text-anchor="middle" x="238.5" y="-1053.8" font-family="Helvetica,sans-Serif" font-size="9.00">creates template</text>
</g>
<!-- DETECT_OPT&#45;&gt;WIZARD_OPT -->
<g id="edge11" class="edge">
<title>DETECT_OPT&#45;&gt;WIZARD_OPT</title>
<path fill="none" stroke="#4a5568" stroke-dasharray="5,2" d="M416,-1551.39C416,-1551.39 416,-1515.84 416,-1515.84"/>
<polygon fill="#4a5568" stroke="#4a5568" points="419.5,-1515.84 416,-1505.84 412.5,-1515.84 419.5,-1515.84"/>
<text text-anchor="middle" x="433" y="-1526.3" font-family="Helvetica,sans-Serif" font-size="9.00">informs</text>
</g>
<!-- W2 -->
<g id="node10" class="node">
<title>W2</title>
<path fill="#6ee7b7" stroke="black" d="M449.5,-1295.5C449.5,-1295.5 366.5,-1295.5 366.5,-1295.5 360.5,-1295.5 354.5,-1289.5 354.5,-1283.5 354.5,-1283.5 354.5,-1221.5 354.5,-1221.5 354.5,-1215.5 360.5,-1209.5 366.5,-1209.5 366.5,-1209.5 449.5,-1209.5 449.5,-1209.5 455.5,-1209.5 461.5,-1215.5 461.5,-1221.5 461.5,-1221.5 461.5,-1283.5 461.5,-1283.5 461.5,-1289.5 455.5,-1295.5 449.5,-1295.5"/>
<text text-anchor="middle" x="408" y="-1283.5" font-family="Helvetica,sans-Serif" font-size="10.00">2. Select Use Case</text>
<text text-anchor="middle" x="408" y="-1260.5" font-family="Helvetica,sans-Serif" font-size="10.00">Development</text>
<text text-anchor="middle" x="408" y="-1249.5" font-family="Helvetica,sans-Serif" font-size="10.00">Research</text>
<text text-anchor="middle" x="408" y="-1238.5" font-family="Helvetica,sans-Serif" font-size="10.00">Trading</text>
<text text-anchor="middle" x="408" y="-1227.5" font-family="Helvetica,sans-Serif" font-size="10.00">Backfill</text>
<text text-anchor="middle" x="408" y="-1216.5" font-family="Helvetica,sans-Serif" font-size="10.00">Production</text>
</g>
<!-- W1&#45;&gt;W2 -->
<g id="edge12" class="edge">
<title>W1&#45;&gt;W2</title>
<path fill="none" stroke="#2c7a7b" d="M408,-1332.4C408,-1332.4 408,-1305.73 408,-1305.73"/>
<polygon fill="#2c7a7b" stroke="#2c7a7b" points="411.5,-1305.73 408,-1295.73 404.5,-1305.73 411.5,-1305.73"/>
</g>
<!-- W3 -->
<g id="node11" class="node">
<title>W3</title>
<path fill="#6ee7b7" stroke="black" d="M462.5,-1172.5C462.5,-1172.5 349.5,-1172.5 349.5,-1172.5 343.5,-1172.5 337.5,-1166.5 337.5,-1160.5 337.5,-1160.5 337.5,-1131.5 337.5,-1131.5 337.5,-1125.5 343.5,-1119.5 349.5,-1119.5 349.5,-1119.5 462.5,-1119.5 462.5,-1119.5 468.5,-1119.5 474.5,-1125.5 474.5,-1131.5 474.5,-1131.5 474.5,-1160.5 474.5,-1160.5 474.5,-1166.5 468.5,-1172.5 462.5,-1172.5"/>
<text text-anchor="middle" x="406" y="-1160.5" font-family="Helvetica,sans-Serif" font-size="10.00">3. Configure Data Source</text>
<text text-anchor="middle" x="406" y="-1137.5" font-family="Helvetica,sans-Serif" font-size="10.00">Primary provider</text>
<text text-anchor="middle" x="406" y="-1126.5" font-family="Helvetica,sans-Serif" font-size="10.00">Connection settings</text>
</g>
<!-- W2&#45;&gt;W3 -->
<g id="edge13" class="edge">
<title>W2&#45;&gt;W3</title>
<path fill="none" stroke="#2c7a7b" d="M408,-1209.49C408,-1209.49 408,-1182.62 408,-1182.62"/>
<polygon fill="#2c7a7b" stroke="#2c7a7b" points="411.5,-1182.62 408,-1172.62 404.5,-1182.62 411.5,-1182.62"/>
</g>
<!-- W4 -->
<g id="node12" class="node">
<title>W4</title>
<path fill="#6ee7b7" stroke="black" d="M454,-1082.5C454,-1082.5 358,-1082.5 358,-1082.5 352,-1082.5 346,-1076.5 346,-1070.5 346,-1070.5 346,-1041.5 346,-1041.5 346,-1035.5 352,-1029.5 358,-1029.5 358,-1029.5 454,-1029.5 454,-1029.5 460,-1029.5 466,-1035.5 466,-1041.5 466,-1041.5 466,-1070.5 466,-1070.5 466,-1076.5 460,-1082.5 454,-1082.5"/>
<text text-anchor="middle" x="406" y="-1070.5" font-family="Helvetica,sans-Serif" font-size="10.00">4. Configure Symbols</text>
<text text-anchor="middle" x="406" y="-1047.5" font-family="Helvetica,sans-Serif" font-size="10.00">Presets: US Indices,</text>
<text text-anchor="middle" x="406" y="-1036.5" font-family="Helvetica,sans-Serif" font-size="10.00">Tech Giants, S&amp;P 500</text>
</g>
<!-- W3&#45;&gt;W4 -->
<g id="edge14" class="edge">
<title>W3&#45;&gt;W4</title>
<path fill="none" stroke="#2c7a7b" d="M406,-1119.48C406,-1119.48 406,-1092.64 406,-1092.64"/>
<polygon fill="#2c7a7b" stroke="#2c7a7b" points="409.5,-1092.64 406,-1082.64 402.5,-1092.64 409.5,-1092.64"/>
</g>
<!-- W5 -->
<g id="node13" class="node">
<title>W5</title>
<path fill="#6ee7b7" stroke="black" d="M452,-983.5C452,-983.5 360,-983.5 360,-983.5 354,-983.5 348,-977.5 348,-971.5 348,-971.5 348,-942.5 348,-942.5 348,-936.5 354,-930.5 360,-930.5 360,-930.5 452,-930.5 452,-930.5 458,-930.5 464,-936.5 464,-942.5 464,-942.5 464,-971.5 464,-971.5 464,-977.5 458,-983.5 452,-983.5"/>
<text text-anchor="middle" x="406" y="-971.5" font-family="Helvetica,sans-Serif" font-size="10.00">5. Configure Storage</text>
<text text-anchor="middle" x="406" y="-948.5" font-family="Helvetica,sans-Serif" font-size="10.00">Path, format</text>
<text text-anchor="middle" x="406" y="-937.5" font-family="Helvetica,sans-Serif" font-size="10.00">Retention policy</text>
</g>
<!-- W4&#45;&gt;W5 -->
<g id="edge15" class="edge">
<title>W4&#45;&gt;W5</title>
<path fill="none" stroke="#2c7a7b" d="M406,-1029.47C406,-1029.47 406,-993.6 406,-993.6"/>
<polygon fill="#2c7a7b" stroke="#2c7a7b" points="409.5,-993.6 406,-983.6 402.5,-993.6 409.5,-993.6"/>
</g>
<!-- W6 -->
<g id="node14" class="node">
<title>W6</title>
<path fill="#6ee7b7" stroke="black" d="M451,-893.5C451,-893.5 361,-893.5 361,-893.5 355,-893.5 349,-887.5 349,-881.5 349,-881.5 349,-852.5 349,-852.5 349,-846.5 355,-840.5 361,-840.5 361,-840.5 451,-840.5 451,-840.5 457,-840.5 463,-846.5 463,-852.5 463,-852.5 463,-881.5 463,-881.5 463,-887.5 457,-893.5 451,-893.5"/>
<text text-anchor="middle" x="406" y="-881.5" font-family="Helvetica,sans-Serif" font-size="10.00">6. Configure Backfill</text>
<text text-anchor="middle" x="406" y="-858.5" font-family="Helvetica,sans-Serif" font-size="10.00">Historical providers</text>
<text text-anchor="middle" x="406" y="-847.5" font-family="Helvetica,sans-Serif" font-size="10.00">Priority chain</text>
</g>
<!-- W5&#45;&gt;W6 -->
<g id="edge16" class="edge">
<title>W5&#45;&gt;W6</title>
<path fill="none" stroke="#2c7a7b" d="M406,-930.48C406,-930.48 406,-903.64 406,-903.64"/>
<polygon fill="#2c7a7b" stroke="#2c7a7b" points="409.5,-903.64 406,-893.64 402.5,-903.64 409.5,-903.64"/>
</g>
<!-- W7 -->
<g id="node15" class="node">
<title>W7</title>
<path fill="#6ee7b7" stroke="black" d="M447.5,-803.5C447.5,-803.5 364.5,-803.5 364.5,-803.5 358.5,-803.5 352.5,-797.5 352.5,-791.5 352.5,-791.5 352.5,-762.5 352.5,-762.5 352.5,-756.5 358.5,-750.5 364.5,-750.5 364.5,-750.5 447.5,-750.5 447.5,-750.5 453.5,-750.5 459.5,-756.5 459.5,-762.5 459.5,-762.5 459.5,-791.5 459.5,-791.5 459.5,-797.5 453.5,-803.5 447.5,-803.5"/>
<text text-anchor="middle" x="406" y="-791.5" font-family="Helvetica,sans-Serif" font-size="10.00">7. Review Settings</text>
<text text-anchor="middle" x="406" y="-768.5" font-family="Helvetica,sans-Serif" font-size="10.00">Summary display</text>
<text text-anchor="middle" x="406" y="-757.5" font-family="Helvetica,sans-Serif" font-size="10.00">Confirmation</text>
</g>
<!-- W6&#45;&gt;W7 -->
<g id="edge17" class="edge">
<title>W6&#45;&gt;W7</title>
<path fill="none" stroke="#2c7a7b" d="M406,-840.48C406,-840.48 406,-813.64 406,-813.64"/>
<polygon fill="#2c7a7b" stroke="#2c7a7b" points="409.5,-813.64 406,-803.64 402.5,-813.64 409.5,-813.64"/>
</g>
<!-- W8 -->
<g id="node16" class="node">
<title>W8</title>
<path fill="#6ee7b7" stroke="black" d="M457,-689C457,-689 355,-689 355,-689 349,-689 343,-683 343,-677 343,-677 343,-648 343,-648 343,-642 349,-636 355,-636 355,-636 457,-636 457,-636 463,-636 469,-642 469,-648 469,-648 469,-677 469,-677 469,-683 463,-689 457,-689"/>
<text text-anchor="middle" x="406" y="-677" font-family="Helvetica,sans-Serif" font-size="10.00">8. Save Configuration</text>
<text text-anchor="middle" x="406" y="-654" font-family="Helvetica,sans-Serif" font-size="10.00">Write appsettings.json</text>
<text text-anchor="middle" x="406" y="-643" font-family="Helvetica,sans-Serif" font-size="10.00">Create marker file</text>
</g>
<!-- W7&#45;&gt;W8 -->
<g id="edge18" class="edge">
<title>W7&#45;&gt;W8</title>
<path fill="none" stroke="#2c7a7b" d="M406,-750.44C406,-750.44 406,-699.31 406,-699.31"/>
<polygon fill="#2c7a7b" stroke="#2c7a7b" points="409.5,-699.31 406,-689.31 402.5,-699.31 409.5,-699.31"/>
</g>
<!-- W8&#45;&gt;CONFIG -->
<g id="edge19" class="edge">
<title>W8&#45;&gt;CONFIG</title>
<path fill="none" stroke="#2c7a7b" d="M406,-635.77C406,-635.77 406,-587.72 406,-587.72"/>
<polygon fill="#2c7a7b" stroke="#2c7a7b" points="409.5,-587.72 406,-577.72 402.5,-587.72 409.5,-587.72"/>
</g>
<!-- VAL_CREDS -->
<g id="node17" class="node">
<title>VAL_CREDS</title>
<path fill="#93c5fd" stroke="black" d="M673.5,-419C673.5,-419 576.5,-419 576.5,-419 570.5,-419 564.5,-413 564.5,-407 564.5,-407 564.5,-367 564.5,-367 564.5,-361 570.5,-355 576.5,-355 576.5,-355 673.5,-355 673.5,-355 679.5,-355 685.5,-361 685.5,-367 685.5,-367 685.5,-407 685.5,-407 685.5,-413 679.5,-419 673.5,-419"/>
<text text-anchor="middle" x="625" y="-407" font-family="Helvetica,sans-Serif" font-size="10.00">&#45;&#45;validate&#45;credentials</text>
<text text-anchor="middle" x="625" y="-384" font-family="Helvetica,sans-Serif" font-size="10.00">Test all API keys</text>
<text text-anchor="middle" x="625" y="-373" font-family="Helvetica,sans-Serif" font-size="10.00">Show account info</text>
<text text-anchor="middle" x="625" y="-362" font-family="Helvetica,sans-Serif" font-size="10.00">Report issues</text>
</g>
<!-- VAL_CREDS&#45;&gt;STARTUP_SUM -->
<g id="edge25" class="edge">
<title>VAL_CREDS&#45;&gt;STARTUP_SUM</title>
<path fill="none" stroke="#38a169" stroke-dasharray="5,2" d="M610.25,-354.9C610.25,-354.9 610.25,-191.35 610.25,-191.35"/>
<polygon fill="#38a169" stroke="#38a169" points="613.75,-191.35 610.25,-181.35 606.75,-191.35 613.75,-191.35"/>
</g>
<!-- TEST_CONN -->
<g id="node18" class="node">
<title>TEST_CONN</title>
<path fill="#93c5fd" stroke="black" d="M250.5,-419C250.5,-419 137.5,-419 137.5,-419 131.5,-419 125.5,-413 125.5,-407 125.5,-407 125.5,-367 125.5,-367 125.5,-361 131.5,-355 137.5,-355 137.5,-355 250.5,-355 250.5,-355 256.5,-355 262.5,-361 262.5,-367 262.5,-367 262.5,-407 262.5,-407 262.5,-413 256.5,-419 250.5,-419"/>
<text text-anchor="middle" x="194" y="-407" font-family="Helvetica,sans-Serif" font-size="10.00">&#45;&#45;test&#45;connectivity</text>
<text text-anchor="middle" x="194" y="-384" font-family="Helvetica,sans-Serif" font-size="10.00">Test internet, DNS</text>
<text text-anchor="middle" x="194" y="-373" font-family="Helvetica,sans-Serif" font-size="10.00">Test each provider</text>
<text text-anchor="middle" x="194" y="-362" font-family="Helvetica,sans-Serif" font-size="10.00">Measure response times</text>
</g>
<!-- TEST_CONN&#45;&gt;STARTUP_SUM -->
<g id="edge26" class="edge">
<title>TEST_CONN&#45;&gt;STARTUP_SUM</title>
<path fill="none" stroke="#38a169" stroke-dasharray="5,2" d="M194,-354.83C194,-286.48 194,-133 194,-133 194,-133 517.74,-133 517.74,-133"/>
<polygon fill="#38a169" stroke="#38a169" points="517.74,-136.5 527.74,-133 517.74,-129.5 517.74,-136.5"/>
</g>
<!-- QUICK_CHECK -->
<g id="node19" class="node">
<title>QUICK_CHECK</title>
<path fill="#93c5fd" stroke="black" d="M397,-424.5C397,-424.5 293,-424.5 293,-424.5 287,-424.5 281,-418.5 281,-412.5 281,-412.5 281,-361.5 281,-361.5 281,-355.5 287,-349.5 293,-349.5 293,-349.5 397,-349.5 397,-349.5 403,-349.5 409,-355.5 409,-361.5 409,-361.5 409,-412.5 409,-412.5 409,-418.5 403,-424.5 397,-424.5"/>
<text text-anchor="middle" x="345" y="-412.5" font-family="Helvetica,sans-Serif" font-size="10.00">&#45;&#45;quick&#45;check</text>
<text text-anchor="middle" x="345" y="-389.5" font-family="Helvetica,sans-Serif" font-size="10.00">Disk space check</text>
<text text-anchor="middle" x="345" y="-378.5" font-family="Helvetica,sans-Serif" font-size="10.00">Symbol configuration</text>
<text text-anchor="middle" x="345" y="-367.5" font-family="Helvetica,sans-Serif" font-size="10.00">Credentials present</text>
<text text-anchor="middle" x="345" y="-356.5" font-family="Helvetica,sans-Serif" font-size="10.00">Compression available</text>
</g>
<!-- QUICK_CHECK&#45;&gt;STARTUP_SUM -->
<g id="edge27" class="edge">
<title>QUICK_CHECK&#45;&gt;STARTUP_SUM</title>
<path fill="none" stroke="#38a169" stroke-dasharray="5,2" d="M345,-349.29C345,-282.18 345,-149 345,-149 345,-149 517.8,-149 517.8,-149"/>
<polygon fill="#38a169" stroke="#38a169" points="517.8,-152.5 527.8,-149 517.8,-145.5 517.8,-152.5"/>
</g>
<!-- VAL_CONFIG -->
<g id="node20" class="node">
<title>VAL_CONFIG</title>
<path fill="#93c5fd" stroke="black" d="M534.5,-419C534.5,-419 439.5,-419 439.5,-419 433.5,-419 427.5,-413 427.5,-407 427.5,-407 427.5,-367 427.5,-367 427.5,-361 433.5,-355 439.5,-355 439.5,-355 534.5,-355 534.5,-355 540.5,-355 546.5,-361 546.5,-367 546.5,-367 546.5,-407 546.5,-407 546.5,-413 540.5,-419 534.5,-419"/>
<text text-anchor="middle" x="487" y="-407" font-family="Helvetica,sans-Serif" font-size="10.00">&#45;&#45;validate&#45;config</text>
<text text-anchor="middle" x="487" y="-384" font-family="Helvetica,sans-Serif" font-size="10.00">Parse configuration</text>
<text text-anchor="middle" x="487" y="-373" font-family="Helvetica,sans-Serif" font-size="10.00">Check required fields</text>
<text text-anchor="middle" x="487" y="-362" font-family="Helvetica,sans-Serif" font-size="10.00">Validate values</text>
</g>
<!-- DRY_RUN -->
<g id="node21" class="node">
<title>DRY_RUN</title>
<path fill="#93c5fd" stroke="black" d="M562.5,-301C562.5,-301 481.5,-301 481.5,-301 475.5,-301 469.5,-295 469.5,-289 469.5,-289 469.5,-249 469.5,-249 469.5,-243 475.5,-237 481.5,-237 481.5,-237 562.5,-237 562.5,-237 568.5,-237 574.5,-243 574.5,-249 574.5,-249 574.5,-289 574.5,-289 574.5,-295 568.5,-301 562.5,-301"/>
<text text-anchor="middle" x="522" y="-289" font-family="Helvetica,sans-Serif" font-size="10.00">&#45;&#45;dry&#45;run</text>
<text text-anchor="middle" x="522" y="-266" font-family="Helvetica,sans-Serif" font-size="10.00">Full initialization</text>
<text text-anchor="middle" x="522" y="-255" font-family="Helvetica,sans-Serif" font-size="10.00">No data collection</text>
<text text-anchor="middle" x="522" y="-244" font-family="Helvetica,sans-Serif" font-size="10.00">Test everything</text>
</g>
<!-- VAL_CONFIG&#45;&gt;DRY_RUN -->
<g id="edge24" class="edge">
<title>VAL_CONFIG&#45;&gt;DRY_RUN</title>
<path fill="none" stroke="#4a5568" stroke-dasharray="5,2" d="M508,-354.76C508,-354.76 508,-311.21 508,-311.21"/>
<polygon fill="#4a5568" stroke="#4a5568" points="511.5,-311.2 508,-301.21 504.5,-311.21 511.5,-311.2"/>
</g>
<!-- DRY_RUN&#45;&gt;STARTUP_SUM -->
<g id="edge28" class="edge">
<title>DRY_RUN&#45;&gt;STARTUP_SUM</title>
<path fill="none" stroke="#38a169" stroke-dasharray="5,2" d="M551.25,-236.84C551.25,-236.84 551.25,-191.25 551.25,-191.25"/>
<polygon fill="#38a169" stroke="#38a169" points="554.75,-191.25 551.25,-181.25 547.75,-191.25 554.75,-191.25"/>
</g>
<!-- SHOW_CONFIG -->
<g id="node22" class="node">
<title>SHOW_CONFIG</title>
<path fill="#9ae6b4" stroke="black" d="M732.5,-689C732.5,-689 633.5,-689 633.5,-689 627.5,-689 621.5,-683 621.5,-677 621.5,-677 621.5,-648 621.5,-648 621.5,-642 627.5,-636 633.5,-636 633.5,-636 732.5,-636 732.5,-636 738.5,-636 744.5,-642 744.5,-648 744.5,-648 744.5,-677 744.5,-677 744.5,-683 738.5,-689 732.5,-689"/>
<text text-anchor="middle" x="683" y="-677" font-family="Helvetica,sans-Serif" font-size="10.00">&#45;&#45;show&#45;config</text>
<text text-anchor="middle" x="683" y="-654" font-family="Helvetica,sans-Serif" font-size="10.00">Display current config</text>
<text text-anchor="middle" x="683" y="-643" font-family="Helvetica,sans-Serif" font-size="10.00">Masked credentials</text>
</g>
<!-- SHOW_CONFIG&#45;&gt;CONFIG -->
<g id="edge32" class="edge">
<title>SHOW_CONFIG&#45;&gt;CONFIG</title>
<path fill="none" stroke="#4a5568" stroke-dasharray="5,2" d="M653.5,-635.54C653.5,-608.55 653.5,-571 653.5,-571 653.5,-571 477.82,-571 477.82,-571"/>
<polygon fill="#4a5568" stroke="#4a5568" points="477.82,-567.5 467.82,-571 477.82,-574.5 477.82,-567.5"/>
<text text-anchor="middle" x="573.5" y="-605.3" font-family="Helvetica,sans-Serif" font-size="9.00">reads</text>
</g>
<!-- ERROR_CODES -->
<g id="node23" class="node">
<title>ERROR_CODES</title>
<path fill="#9ae6b4" stroke="black" d="M875.5,-694.5C875.5,-694.5 774.5,-694.5 774.5,-694.5 768.5,-694.5 762.5,-688.5 762.5,-682.5 762.5,-682.5 762.5,-642.5 762.5,-642.5 762.5,-636.5 768.5,-630.5 774.5,-630.5 774.5,-630.5 875.5,-630.5 875.5,-630.5 881.5,-630.5 887.5,-636.5 887.5,-642.5 887.5,-642.5 887.5,-682.5 887.5,-682.5 887.5,-688.5 881.5,-694.5 875.5,-694.5"/>
<text text-anchor="middle" x="825" y="-682.5" font-family="Helvetica,sans-Serif" font-size="10.00">&#45;&#45;error&#45;codes</text>
<text text-anchor="middle" x="825" y="-659.5" font-family="Helvetica,sans-Serif" font-size="10.00">24 error codes</text>
<text text-anchor="middle" x="825" y="-648.5" font-family="Helvetica,sans-Serif" font-size="10.00">MDC&#45;XXX&#45;NNN format</text>
<text text-anchor="middle" x="825" y="-637.5" font-family="Helvetica,sans-Serif" font-size="10.00">Troubleshooting tips</text>
</g>
<!-- ERROR_FMT -->
<g id="node28" class="node">
<title>ERROR_FMT</title>
<path fill="#fc8181" stroke="black" d="M875.5,-565.5C875.5,-565.5 772.5,-565.5 772.5,-565.5 766.5,-565.5 760.5,-559.5 760.5,-553.5 760.5,-553.5 760.5,-513.5 760.5,-513.5 760.5,-507.5 766.5,-501.5 772.5,-501.5 772.5,-501.5 875.5,-501.5 875.5,-501.5 881.5,-501.5 887.5,-507.5 887.5,-513.5 887.5,-513.5 887.5,-553.5 887.5,-553.5 887.5,-559.5 881.5,-565.5 875.5,-565.5"/>
<text text-anchor="middle" x="824" y="-553.5" font-family="Helvetica,sans-Serif" font-size="10.00" fill="white">FriendlyErrorFormatter</text>
<text text-anchor="middle" x="824" y="-530.5" font-family="Helvetica,sans-Serif" font-size="10.00" fill="white">Parse exception</text>
<text text-anchor="middle" x="824" y="-519.5" font-family="Helvetica,sans-Serif" font-size="10.00" fill="white">Assign error code</text>
<text text-anchor="middle" x="824" y="-508.5" font-family="Helvetica,sans-Serif" font-size="10.00" fill="white">Generate suggestions</text>
</g>
<!-- ERROR_CODES&#45;&gt;ERROR_FMT -->
<g id="edge33" class="edge">
<title>ERROR_CODES&#45;&gt;ERROR_FMT</title>
<path fill="none" stroke="#4a5568" stroke-dasharray="5,2" d="M825,-630.28C825,-630.28 825,-575.76 825,-575.76"/>
<polygon fill="#4a5568" stroke="#4a5568" points="828.5,-575.76 825,-565.76 821.5,-575.76 828.5,-575.76"/>
<text text-anchor="middle" x="846.5" y="-605.3" font-family="Helvetica,sans-Serif" font-size="9.00">reference</text>
</g>
<!-- HELP -->
<g id="node24" class="node">
<title>HELP</title>
<path fill="#9ae6b4" stroke="black" d="M591,-689C591,-689 511,-689 511,-689 505,-689 499,-683 499,-677 499,-677 499,-648 499,-648 499,-642 505,-636 511,-636 511,-636 591,-636 591,-636 597,-636 603,-642 603,-648 603,-648 603,-677 603,-677 603,-683 597,-689 591,-689"/>
<text text-anchor="middle" x="551" y="-677" font-family="Helvetica,sans-Serif" font-size="10.00">&#45;&#45;help</text>
<text text-anchor="middle" x="551" y="-654" font-family="Helvetica,sans-Serif" font-size="10.00">All available flags</text>
<text text-anchor="middle" x="551" y="-643" font-family="Helvetica,sans-Serif" font-size="10.00">Usage examples</text>
</g>
<!-- CONFIG&#45;&gt;VAL_CREDS -->
<g id="edge20" class="edge">
<title>CONFIG&#45;&gt;VAL_CREDS</title>
<path fill="none" stroke="#4a5568" stroke-dasharray="5,2" d="M467.67,-495C519.01,-495 583.75,-495 583.75,-495 583.75,-495 583.75,-429.11 583.75,-429.11"/>
<polygon fill="#4a5568" stroke="#4a5568" points="587.25,-429.11 583.75,-419.11 580.25,-429.11 587.25,-429.11"/>
<text text-anchor="middle" x="604.5" y="-464.3" font-family="Helvetica,sans-Serif" font-size="9.00">optional</text>
</g>
<!-- CONFIG&#45;&gt;TEST_CONN -->
<g id="edge21" class="edge">
<title>CONFIG&#45;&gt;TEST_CONN</title>
<path fill="none" stroke="#4a5568" stroke-dasharray="5,2" d="M344.48,-511C290.74,-511 221.25,-511 221.25,-511 221.25,-511 221.25,-429.26 221.25,-429.26"/>
<polygon fill="#4a5568" stroke="#4a5568" points="224.75,-429.26 221.25,-419.26 217.75,-429.26 224.75,-429.26"/>
<text text-anchor="middle" x="268.5" y="-464.3" font-family="Helvetica,sans-Serif" font-size="9.00">optional</text>
</g>
<!-- CONFIG&#45;&gt;QUICK_CHECK -->
<g id="edge22" class="edge">
<title>CONFIG&#45;&gt;QUICK_CHECK</title>
<path fill="none" stroke="#4a5568" stroke-dasharray="5,2" d="M376.75,-489.15C376.75,-489.15 376.75,-434.77 376.75,-434.77"/>
<polygon fill="#4a5568" stroke="#4a5568" points="380.25,-434.77 376.75,-424.77 373.25,-434.77 380.25,-434.77"/>
<text text-anchor="middle" x="394.5" y="-464.3" font-family="Helvetica,sans-Serif" font-size="9.00">optional</text>
</g>
<!-- CONFIG&#45;&gt;VAL_CONFIG -->
<g id="edge23" class="edge">
<title>CONFIG&#45;&gt;VAL_CONFIG</title>
<path fill="none" stroke="#4a5568" stroke-dasharray="5,2" d="M447.5,-490.34C447.5,-490.34 447.5,-429.16 447.5,-429.16"/>
<polygon fill="#4a5568" stroke="#4a5568" points="451,-429.16 447.5,-419.16 444,-429.16 451,-429.16"/>
<text text-anchor="middle" x="480.5" y="-464.3" font-family="Helvetica,sans-Serif" font-size="9.00">optional</text>
</g>
<!-- CONFIG&#45;&gt;STARTUP_SUM -->
<g id="edge29" class="edge">
<title>CONFIG&#45;&gt;STARTUP_SUM</title>
<path fill="none" stroke="#38a169" d="M418.25,-489.42C418.25,-391.6 418.25,-165 418.25,-165 418.25,-165 517.98,-165 517.98,-165"/>
<polygon fill="#38a169" stroke="#38a169" points="517.98,-168.5 527.98,-165 517.98,-161.5 517.98,-168.5"/>
</g>
<!-- RUN_NORMAL -->
<g id="node27" class="node">
<title>RUN_NORMAL</title>
<path fill="#38a169" stroke="black" d="M634.5,-80C634.5,-80 539.5,-80 539.5,-80 533.5,-80 527.5,-74 527.5,-68 527.5,-68 527.5,-28 527.5,-28 527.5,-22 533.5,-16 539.5,-16 539.5,-16 634.5,-16 634.5,-16 640.5,-16 646.5,-22 646.5,-28 646.5,-28 646.5,-68 646.5,-68 646.5,-74 640.5,-80 634.5,-80"/>
<text text-anchor="middle" x="587" y="-68" font-family="Helvetica,sans-Serif" font-size="10.00" fill="white">Normal Operation</text>
<text text-anchor="middle" x="587" y="-45" font-family="Helvetica,sans-Serif" font-size="10.00" fill="white">&#45;&#45;ui (with dashboard)</text>
<text text-anchor="middle" x="587" y="-34" font-family="Helvetica,sans-Serif" font-size="10.00" fill="white">&#45;&#45;backfill (historical)</text>
<text text-anchor="middle" x="587" y="-23" font-family="Helvetica,sans-Serif" font-size="10.00" fill="white">default (streaming)</text>
</g>
<!-- STARTUP_SUM&#45;&gt;RUN_NORMAL -->
<g id="edge30" class="edge">
<title>STARTUP_SUM&#45;&gt;RUN_NORMAL</title>
<path fill="none" stroke="#38a169" d="M587,-116.77C587,-116.77 587,-90.27 587,-90.27"/>
<polygon fill="#38a169" stroke="#38a169" points="590.5,-90.27 587,-80.27 583.5,-90.27 590.5,-90.27"/>
</g>
<!-- ERROR_DISPLAY -->
<g id="node29" class="node">
<title>ERROR_DISPLAY</title>
<path fill="#fecaca" stroke="black" d="M872.5,-436C872.5,-436 775.5,-436 775.5,-436 769.5,-436 763.5,-430 763.5,-424 763.5,-424 763.5,-350 763.5,-350 763.5,-344 769.5,-338 775.5,-338 775.5,-338 872.5,-338 872.5,-338 878.5,-338 884.5,-344 884.5,-350 884.5,-350 884.5,-424 884.5,-424 884.5,-430 878.5,-436 872.5,-436"/>
<text text-anchor="middle" x="824" y="-424" font-family="Helvetica,sans-Serif" font-size="10.00">User&#45;Friendly Error</text>
<text text-anchor="middle" x="824" y="-401" font-family="Helvetica,sans-Serif" font-size="10.00">[MDC&#45;CFG&#45;001]</text>
<text text-anchor="middle" x="824" y="-390" font-family="Helvetica,sans-Serif" font-size="10.00">Missing configuration</text>
<text text-anchor="middle" x="824" y="-367" font-family="Helvetica,sans-Serif" font-size="10.00">Suggestions:</text>
<text text-anchor="middle" x="824" y="-356" font-family="Helvetica,sans-Serif" font-size="10.00">1. Run &#45;&#45;wizard</text>
<text text-anchor="middle" x="824" y="-345" font-family="Helvetica,sans-Serif" font-size="10.00">2. Check env vars</text>
</g>
<!-- ERROR_FMT&#45;&gt;ERROR_DISPLAY -->
<g id="edge31" class="edge">
<title>ERROR_FMT&#45;&gt;ERROR_DISPLAY</title>
<path fill="none" stroke="#e53e3e" d="M824,-501.35C824,-501.35 824,-446.08 824,-446.08"/>
<polygon fill="#e53e3e" stroke="#e53e3e" points="827.5,-446.08 824,-436.08 820.5,-446.08 827.5,-446.08"/>
</g>
<!-- L1 -->
<g id="node30" class="node">
<title>L1</title>
<path fill="#fbd38d" stroke="black" d="M1419,-1991.71C1419,-1991.71 1339,-1991.71 1339,-1991.71 1333,-1991.71 1327,-1985.71 1327,-1979.71 1327,-1979.71 1327,-1967.71 1327,-1967.71 1327,-1961.71 1333,-1955.71 1339,-1955.71 1339,-1955.71 1419,-1955.71 1419,-1955.71 1425,-1955.71 1431,-1961.71 1431,-1967.71 1431,-1967.71 1431,-1979.71 1431,-1979.71 1431,-1985.71 1425,-1991.71 1419,-1991.71"/>
<text text-anchor="middle" x="1379" y="-1971.21" font-family="Helvetica,sans-Serif" font-size="10.00">First&#45;Run Services</text>
</g>
<!-- L2 -->
<g id="node31" class="node">
<title>L2</title>
<path fill="#c4b5fd" stroke="black" d="M1296.5,-1991.71C1296.5,-1991.71 1235.5,-1991.71 1235.5,-1991.71 1229.5,-1991.71 1223.5,-1985.71 1223.5,-1979.71 1223.5,-1979.71 1223.5,-1967.71 1223.5,-1967.71 1223.5,-1961.71 1229.5,-1955.71 1235.5,-1955.71 1235.5,-1955.71 1296.5,-1955.71 1296.5,-1955.71 1302.5,-1955.71 1308.5,-1961.71 1308.5,-1967.71 1308.5,-1967.71 1308.5,-1979.71 1308.5,-1979.71 1308.5,-1985.71 1302.5,-1991.71 1296.5,-1991.71"/>
<text text-anchor="middle" x="1266" y="-1971.21" font-family="Helvetica,sans-Serif" font-size="10.00">Setup Options</text>
</g>
<!-- L3 -->
<g id="node32" class="node">
<title>L3</title>
<path fill="#6ee7b7" stroke="black" d="M1193,-1991.71C1193,-1991.71 1137,-1991.71 1137,-1991.71 1131,-1991.71 1125,-1985.71 1125,-1979.71 1125,-1979.71 1125,-1967.71 1125,-1967.71 1125,-1961.71 1131,-1955.71 1137,-1955.71 1137,-1955.71 1193,-1955.71 1193,-1955.71 1199,-1955.71 1205,-1961.71 1205,-1967.71 1205,-1967.71 1205,-1979.71 1205,-1979.71 1205,-1985.71 1199,-1991.71 1193,-1991.71"/>
<text text-anchor="middle" x="1165" y="-1971.21" font-family="Helvetica,sans-Serif" font-size="10.00">Wizard Steps</text>
</g>
<!-- L4 -->
<g id="node33" class="node">
<title>L4</title>
<path fill="#93c5fd" stroke="black" d="M1094.5,-1991.71C1094.5,-1991.71 993.5,-1991.71 993.5,-1991.71 987.5,-1991.71 981.5,-1985.71 981.5,-1979.71 981.5,-1979.71 981.5,-1967.71 981.5,-1967.71 981.5,-1961.71 987.5,-1955.71 993.5,-1955.71 993.5,-1955.71 1094.5,-1955.71 1094.5,-1955.71 1100.5,-1955.71 1106.5,-1961.71 1106.5,-1967.71 1106.5,-1967.71 1106.5,-1979.71 1106.5,-1979.71 1106.5,-1985.71 1100.5,-1991.71 1094.5,-1991.71"/>
<text text-anchor="middle" x="1044" y="-1971.21" font-family="Helvetica,sans-Serif" font-size="10.00">Validation/Diagnostics</text>
</g>
<!-- L5 -->
<g id="node34" class="node">
<title>L5</title>
<path fill="#9ae6b4" stroke="black" d="M951,-1991.71C951,-1991.71 883,-1991.71 883,-1991.71 877,-1991.71 871,-1985.71 871,-1979.71 871,-1979.71 871,-1967.71 871,-1967.71 871,-1961.71 877,-1955.71 883,-1955.71 883,-1955.71 951,-1955.71 951,-1955.71 957,-1955.71 963,-1961.71 963,-1967.71 963,-1967.71 963,-1979.71 963,-1979.71 963,-1985.71 957,-1991.71 951,-1991.71"/>
<text text-anchor="middle" x="917" y="-1971.21" font-family="Helvetica,sans-Serif" font-size="10.00">Documentation</text>
</g>
<!-- L6 -->
<g id="node35" class="node">
<title>L6</title>
<path fill="#fc8181" stroke="black" d="M841,-1991.71C841,-1991.71 779,-1991.71 779,-1991.71 773,-1991.71 767,-1985.71 767,-1979.71 767,-1979.71 767,-1967.71 767,-1967.71 767,-1961.71 773,-1955.71 779,-1955.71 779,-1955.71 841,-1955.71 841,-1955.71 847,-1955.71 853,-1961.71 853,-1967.71 853,-1967.71 853,-1979.71 853,-1979.71 853,-1985.71 847,-1991.71 841,-1991.71"/>
<text text-anchor="middle" x="810" y="-1971.21" font-family="Helvetica,sans-Serif" font-size="10.00" fill="white">Error Handling</text>
</g>
<!-- LEG_FLOW -->
<g id="node36" class="node">
<title>LEG_FLOW</title>
<path fill="lightgrey" stroke="transparent" d="M736.5,-1991.71C736.5,-1991.71 605.5,-1991.71 605.5,-1991.71 599.5,-1991.71 593.5,-1985.71 593.5,-1979.71 593.5,-1979.71 593.5,-1967.71 593.5,-1967.71 593.5,-1961.71 599.5,-1955.71 605.5,-1955.71 605.5,-1955.71 736.5,-1955.71 736.5,-1955.71 742.5,-1955.71 748.5,-1961.71 748.5,-1967.71 748.5,-1967.71 748.5,-1979.71 748.5,-1979.71 748.5,-1985.71 742.5,-1991.71 736.5,-1991.71"/>
<text text-anchor="middle" x="671" y="-1976.71" font-family="Helvetica,sans-Serif" font-size="10.00">━━ Primary flow</text>
<text text-anchor="middle" x="671" y="-1965.71" font-family="Helvetica,sans-Serif" font-size="10.00">─ ─ Optional/alternative flow</text>
</g>
</g>
</svg>
