<?xml version="1.0" encoding="UTF-8" standalone="no"?>
<!DOCTYPE svg PUBLIC "-//W3C//DTD SVG 1.1//EN"
 "http://www.w3.org/Graphics/SVG/1.1/DTD/svg11.dtd">
<!-- Generated by graphviz version 14.1.1 (20251213.1925)
 -->
<!-- Title: UiNavigationMap Pages: 1 -->
<svg width="929pt" height="3528pt"
 viewBox="0.00 0.00 929.00 3528.00" xmlns="http://www.w3.org/2000/svg" xmlns:xlink="http://www.w3.org/1999/xlink">
<g id="graph0" class="graph" transform="scale(1 1) rotate(0) translate(28.8 3498.8)">
<title>UiNavigationMap</title>
<polygon fill="#0f172a" stroke="none" points="-28.8,28.8 -28.8,-3498.8 899.88,-3498.8 899.88,28.8 -28.8,28.8"/>
<text xml:space="preserve" text-anchor="middle" x="435.54" y="-3448" font-family="Segoe UI" font-size="20.00">Meridian WPF UI navigation map</text>
<text xml:space="preserve" text-anchor="middle" x="435.54" y="-3424" font-family="Segoe UI" font-size="20.00">(auto&#45;generated from MainPage.xaml + NavigationService.cs)</text>
<g id="clust1" class="cluster">
<title>cluster_workspace_1</title>
<path fill="#0f172a" stroke="#334155" d="M114.86,-948C114.86,-948 810.25,-948 810.25,-948 816.25,-948 822.25,-954 822.25,-960 822.25,-960 822.25,-1227 822.25,-1227 822.25,-1233 816.25,-1239 810.25,-1239 810.25,-1239 114.86,-1239 114.86,-1239 108.86,-1239 102.86,-1233 102.86,-1227 102.86,-1227 102.86,-960 102.86,-960 102.86,-954 108.86,-948 114.86,-948"/>
<text xml:space="preserve" text-anchor="middle" x="462.55" y="-1217" font-family="Segoe UI" font-size="20.00">MONITOR workspace</text>
</g>
<g id="clust2" class="cluster">
<title>cluster_workspace_2</title>
<path fill="#0f172a" stroke="#334155" d="M390.19,-8C390.19,-8 786.58,-8 786.58,-8 792.58,-8 798.58,-14 798.58,-20 798.58,-20 798.58,-287 798.58,-287 798.58,-293 792.58,-299 786.58,-299 786.58,-299 390.19,-299 390.19,-299 384.19,-299 378.19,-293 378.19,-287 378.19,-287 378.19,-20 378.19,-20 378.19,-14 384.19,-8 390.19,-8"/>
<text xml:space="preserve" text-anchor="middle" x="588.38" y="-277" font-family="Segoe UI" font-size="20.00">COLLECT workspace</text>
</g>
<g id="clust3" class="cluster">
<title>cluster_workspace_3</title>
<path fill="#0f172a" stroke="#334155" d="M390.19,-724C390.19,-724 833.96,-724 833.96,-724 839.96,-724 845.96,-730 845.96,-736 845.96,-736 845.96,-936 845.96,-936 845.96,-942 839.96,-948 833.96,-948 833.96,-948 390.19,-948 390.19,-948 384.19,-948 378.19,-942 378.19,-936 378.19,-936 378.19,-736 378.19,-736 378.19,-730 384.19,-724 390.19,-724"/>
<text xml:space="preserve" text-anchor="middle" x="612.07" y="-926" font-family="Segoe UI" font-size="20.00">STORAGE workspace</text>
</g>
<g id="clust4" class="cluster">
<title>cluster_workspace_4</title>
<path fill="#0f172a" stroke="#334155" d="M390.19,-500C390.19,-500 823.09,-500 823.09,-500 829.09,-500 835.09,-506 835.09,-512 835.09,-512 835.09,-712 835.09,-712 835.09,-718 829.09,-724 823.09,-724 823.09,-724 390.19,-724 390.19,-724 384.19,-724 378.19,-718 378.19,-712 378.19,-712 378.19,-512 378.19,-512 378.19,-506 384.19,-500 390.19,-500"/>
<text xml:space="preserve" text-anchor="middle" x="606.64" y="-702" font-family="Segoe UI" font-size="20.00">QUALITY workspace</text>
</g>
<g id="clust5" class="cluster">
<title>cluster_workspace_5</title>
<path fill="#0f172a" stroke="#334155" d="M390.19,-433C390.19,-433 851.08,-433 851.08,-433 857.08,-433 863.08,-439 863.08,-445 863.08,-445 863.08,-511 863.08,-511 863.08,-517 857.08,-523 851.08,-523 851.08,-523 390.19,-523 390.19,-523 384.19,-523 378.19,-517 378.19,-511 378.19,-511 378.19,-445 378.19,-445 378.19,-439 384.19,-433 390.19,-433"/>
<text xml:space="preserve" text-anchor="middle" x="620.63" y="-501" font-family="Segoe UI" font-size="20.00">SETTINGS workspace</text>
</g>
<g id="clust6" class="cluster">
<title>cluster_hidden_pages</title>
<path fill="#0f172a" stroke="#7c2d12" stroke-dasharray="5,2" d="M445.07,-1239C445.07,-1239 792.96,-1239 792.96,-1239 798.96,-1239 804.96,-1245 804.96,-1251 804.96,-1251 804.96,-3394 804.96,-3394 804.96,-3400 798.96,-3406 792.96,-3406 792.96,-3406 445.07,-3406 445.07,-3406 439.07,-3406 433.07,-3400 433.07,-3394 433.07,-3394 433.07,-1251 433.07,-1251 433.07,-1245 439.07,-1239 445.07,-1239"/>
<text xml:space="preserve" text-anchor="middle" x="619.01" y="-3384" font-family="Segoe UI" font-size="20.00">Registered but not in sidebar shell</text>
</g>
<!-- generated -->
<g id="node1" class="node">
<title>generated</title>
<polygon fill="#1d4ed8" stroke="#60a5fa" points="199.72,-831.2 0,-831.2 0,-772.8 205.72,-772.8 205.72,-825.2 199.72,-831.2"/>
<polyline fill="none" stroke="#60a5fa" points="199.72,-831.2 199.72,-825.2"/>
<polyline fill="none" stroke="#60a5fa" points="205.72,-825.2 199.72,-825.2"/>
<text xml:space="preserve" text-anchor="middle" x="102.86" y="-814.6" font-family="Segoe UI" font-size="14.00" fill="#e2e8f0">Source fingerprint: c1be36f1b8bd</text>
<text xml:space="preserve" text-anchor="middle" x="102.86" y="-797.8" font-family="Segoe UI" font-size="14.00" fill="#e2e8f0">Shell entries: 17</text>
<text xml:space="preserve" text-anchor="middle" x="102.86" y="-781" font-family="Segoe UI" font-size="14.00" fill="#e2e8f0">Registered pages: 49</text>
</g>
<!-- shell -->
<g id="node2" class="node">
<title>shell</title>
<polygon fill="#0f766e" stroke="#2dd4bf" points="157.32,-897.8 48.41,-897.8 48.41,-893.8 44.41,-893.8 44.41,-889.8 48.41,-889.8 48.41,-864.2 44.41,-864.2 44.41,-860.2 48.41,-860.2 48.41,-856.2 157.32,-856.2 157.32,-897.8"/>
<polyline fill="none" stroke="#2dd4bf" points="48.41,-893.8 52.41,-893.8 52.41,-889.8 48.41,-889.8"/>
<polyline fill="none" stroke="#2dd4bf" points="48.41,-864.2 52.41,-864.2 52.41,-860.2 48.41,-860.2"/>
<text xml:space="preserve" text-anchor="middle" x="102.86" y="-881.2" font-family="Segoe UI" font-size="14.00" fill="#e2e8f0">MainPage.xaml</text>
<text xml:space="preserve" text-anchor="middle" x="102.86" y="-864.4" font-family="Segoe UI" font-size="14.00" fill="#e2e8f0">Workspace shell</text>
</g>
<!-- navigation -->
<g id="node3" class="node">
<title>navigation</title>
<polygon fill="#7c3aed" stroke="#c4b5fd" points="494.33,-2005.8 371.8,-2005.8 371.8,-2001.8 367.8,-2001.8 367.8,-1997.8 371.8,-1997.8 371.8,-1972.2 367.8,-1972.2 367.8,-1968.2 371.8,-1968.2 371.8,-1964.2 494.33,-1964.2 494.33,-2005.8"/>
<polyline fill="none" stroke="#c4b5fd" points="371.8,-2001.8 375.8,-2001.8 375.8,-1997.8 371.8,-1997.8"/>
<polyline fill="none" stroke="#c4b5fd" points="371.8,-1972.2 375.8,-1972.2 375.8,-1968.2 371.8,-1968.2"/>
<text xml:space="preserve" text-anchor="middle" x="433.07" y="-1989.2" font-family="Segoe UI" font-size="14.00" fill="#e2e8f0">NavigationService</text>
<text xml:space="preserve" text-anchor="middle" x="433.07" y="-1972.4" font-family="Segoe UI" font-size="14.00" fill="#e2e8f0">RegisterAllPages()</text>
</g>
<!-- shell&#45;&gt;navigation -->
<g id="edge1" class="edge">
<title>shell&#45;&gt;navigation</title>
<path fill="none" stroke="#38bdf8" stroke-width="1.3" d="M110.13,-898.14C150.62,-1034.85 375.25,-1793.19 423.1,-1954.73"/>
<polygon fill="#38bdf8" stroke="#38bdf8" stroke-width="1.3" points="420.35,-1955.32 425.31,-1962.2 425.72,-1953.73 420.35,-1955.32"/>
<text xml:space="preserve" text-anchor="middle" x="288.76" y="-1661.8" font-family="Segoe UI" font-size="14.00">navigate via tags</text>
</g>
<!-- workspace_1 -->
<g id="node4" class="node">
<title>workspace_1</title>
<polygon fill="#1d4ed8" stroke="#93c5fd" points="479.95,-1064.8 476.95,-1068.8 455.95,-1068.8 452.95,-1064.8 386.19,-1064.8 386.19,-1023.2 479.95,-1023.2 479.95,-1064.8"/>
<text xml:space="preserve" text-anchor="middle" x="433.07" y="-1048.2" font-family="Segoe UI" font-size="14.00" fill="#e2e8f0">MONITOR</text>
<text xml:space="preserve" text-anchor="middle" x="433.07" y="-1031.4" font-family="Segoe UI" font-size="14.00" fill="#e2e8f0">4 shell entries</text>
</g>
<!-- shell&#45;&gt;workspace_1 -->
<g id="edge2" class="edge">
<title>shell&#45;&gt;workspace_1</title>
<path fill="none" stroke="#22d3ee" stroke-width="1.3" d="M145.43,-898.15C205.56,-928.75 316.69,-985.29 381.49,-1018.27"/>
<polygon fill="#22d3ee" stroke="#22d3ee" stroke-width="1.3" points="380.17,-1020.73 388.57,-1021.87 382.71,-1015.74 380.17,-1020.73"/>
</g>
<!-- workspace_2 -->
<g id="node9" class="node">
<title>workspace_2</title>
<polygon fill="#1d4ed8" stroke="#93c5fd" points="479.95,-258.8 476.95,-262.8 455.95,-262.8 452.95,-258.8 386.19,-258.8 386.19,-217.2 479.95,-217.2 479.95,-258.8"/>
<text xml:space="preserve" text-anchor="middle" x="433.07" y="-242.2" font-family="Segoe UI" font-size="14.00" fill="#e2e8f0">COLLECT</text>
<text xml:space="preserve" text-anchor="middle" x="433.07" y="-225.4" font-family="Segoe UI" font-size="14.00" fill="#e2e8f0">4 shell entries</text>
</g>
<!-- shell&#45;&gt;workspace_2 -->
<g id="edge7" class="edge">
<title>shell&#45;&gt;workspace_2</title>
<path fill="none" stroke="#22d3ee" stroke-width="1.3" d="M157.59,-869.12C174.73,-864.3 192.63,-856.53 205.72,-844 250.27,-801.38 384.94,-385.96 422.34,-268.69"/>
<polygon fill="#22d3ee" stroke="#22d3ee" stroke-width="1.3" points="425,-269.56 424.76,-261.08 419.67,-267.86 425,-269.56"/>
</g>
<!-- workspace_3 -->
<g id="node14" class="node">
<title>workspace_3</title>
<polygon fill="#1d4ed8" stroke="#93c5fd" points="479.95,-907.8 476.95,-911.8 455.95,-911.8 452.95,-907.8 386.19,-907.8 386.19,-866.2 479.95,-866.2 479.95,-907.8"/>
<text xml:space="preserve" text-anchor="middle" x="433.07" y="-891.2" font-family="Segoe UI" font-size="14.00" fill="#e2e8f0">STORAGE</text>
<text xml:space="preserve" text-anchor="middle" x="433.07" y="-874.4" font-family="Segoe UI" font-size="14.00" fill="#e2e8f0">3 shell entries</text>
</g>
<!-- shell&#45;&gt;workspace_3 -->
<g id="edge12" class="edge">
<title>shell&#45;&gt;workspace_3</title>
<path fill="none" stroke="#22d3ee" stroke-width="1.3" d="M157.69,-878.64C217.9,-880.47 314.96,-883.43 376.05,-885.29"/>
<polygon fill="#22d3ee" stroke="#22d3ee" stroke-width="1.3" points="375.85,-888.09 383.94,-885.53 376.02,-882.49 375.85,-888.09"/>
</g>
<!-- workspace_4 -->
<g id="node18" class="node">
<title>workspace_4</title>
<polygon fill="#1d4ed8" stroke="#93c5fd" points="479.95,-555.8 476.95,-559.8 455.95,-559.8 452.95,-555.8 386.19,-555.8 386.19,-514.2 479.95,-514.2 479.95,-555.8"/>
<text xml:space="preserve" text-anchor="middle" x="433.07" y="-539.2" font-family="Segoe UI" font-size="14.00" fill="#e2e8f0">QUALITY</text>
<text xml:space="preserve" text-anchor="middle" x="433.07" y="-522.4" font-family="Segoe UI" font-size="14.00" fill="#e2e8f0">3 shell entries</text>
</g>
<!-- shell&#45;&gt;workspace_4 -->
<g id="edge16" class="edge">
<title>shell&#45;&gt;workspace_4</title>
<path fill="none" stroke="#22d3ee" stroke-width="1.3" d="M157.57,-876.22C217.65,-874.23 309.96,-867.47 335.8,-845 380.07,-806.5 354.62,-774.1 371.8,-718 388.39,-663.83 409.41,-601.24 421.73,-565.08"/>
<polygon fill="#22d3ee" stroke="#22d3ee" stroke-width="1.3" points="424.25,-566.38 424.18,-557.9 418.95,-564.57 424.25,-566.38"/>
</g>
<!-- workspace_5 -->
<g id="node22" class="node">
<title>workspace_5</title>
<polygon fill="#1d4ed8" stroke="#93c5fd" points="479.95,-482.8 476.95,-486.8 455.95,-486.8 452.95,-482.8 386.19,-482.8 386.19,-441.2 479.95,-441.2 479.95,-482.8"/>
<text xml:space="preserve" text-anchor="middle" x="433.07" y="-466.2" font-family="Segoe UI" font-size="14.00" fill="#e2e8f0">SETTINGS</text>
<text xml:space="preserve" text-anchor="middle" x="433.07" y="-449.4" font-family="Segoe UI" font-size="14.00" fill="#e2e8f0">3 shell entries</text>
</g>
<!-- shell&#45;&gt;workspace_5 -->
<g id="edge20" class="edge">
<title>shell&#45;&gt;workspace_5</title>
<path fill="none" stroke="#22d3ee" stroke-width="1.3" d="M157.78,-865.45C222.56,-851.06 324.08,-826.72 335.8,-813 428.47,-704.52 291.53,-611.96 371.8,-494 373.63,-491.31 375.77,-488.82 378.12,-486.53"/>
<polygon fill="#22d3ee" stroke="#22d3ee" stroke-width="1.3" points="379.83,-488.75 384.21,-481.5 376.26,-484.43 379.83,-488.75"/>
</g>
<!-- hidden_DataSources -->
<g id="node26" class="node">
<title>hidden_DataSources</title>
<path fill="#431407" stroke="#fb923c" d="M756.19,-1422.8C756.19,-1422.8 666.22,-1422.8 666.22,-1422.8 660.22,-1422.8 654.22,-1416.8 654.22,-1410.8 654.22,-1410.8 654.22,-1393.2 654.22,-1393.2 654.22,-1387.2 660.22,-1381.2 666.22,-1381.2 666.22,-1381.2 756.19,-1381.2 756.19,-1381.2 762.19,-1381.2 768.19,-1387.2 768.19,-1393.2 768.19,-1393.2 768.19,-1410.8 768.19,-1410.8 768.19,-1416.8 762.19,-1422.8 756.19,-1422.8"/>
<text xml:space="preserve" text-anchor="middle" x="711.21" y="-1406.2" font-family="Segoe UI" font-size="14.00" fill="#e2e8f0">DataSources</text>
<text xml:space="preserve" text-anchor="middle" x="711.21" y="-1389.4" font-family="Segoe UI" font-size="14.00" fill="#e2e8f0">DataSourcesPage</text>
</g>
<!-- navigation&#45;&gt;hidden_DataSources -->
<g id="edge24" class="edge">
<title>navigation&#45;&gt;hidden_DataSources</title>
<path fill="none" stroke="#fb923c" stroke-width="1.3" stroke-dasharray="5,2" d="M436.11,-1964C445.47,-1872.59 487.16,-1510.55 567.33,-1436 587.95,-1416.83 617.37,-1407.87 644.16,-1403.88"/>
<polygon fill="#fb923c" stroke="#fb923c" stroke-width="1.3" points="644.36,-1406.68 651.94,-1402.88 643.65,-1401.12 644.36,-1406.68"/>
</g>
<!-- hidden_DataBrowser -->
<g id="node27" class="node">
<title>hidden_DataBrowser</title>
<path fill="#431407" stroke="#fb923c" d="M757.74,-1355.8C757.74,-1355.8 664.67,-1355.8 664.67,-1355.8 658.67,-1355.8 652.67,-1349.8 652.67,-1343.8 652.67,-1343.8 652.67,-1326.2 652.67,-1326.2 652.67,-1320.2 658.67,-1314.2 664.67,-1314.2 664.67,-1314.2 757.74,-1314.2 757.74,-1314.2 763.74,-1314.2 769.74,-1320.2 769.74,-1326.2 769.74,-1326.2 769.74,-1343.8 769.74,-1343.8 769.74,-1349.8 763.74,-1355.8 757.74,-1355.8"/>
<text xml:space="preserve" text-anchor="middle" x="711.21" y="-1339.2" font-family="Segoe UI" font-size="14.00" fill="#e2e8f0">DataBrowser</text>
<text xml:space="preserve" text-anchor="middle" x="711.21" y="-1322.4" font-family="Segoe UI" font-size="14.00" fill="#e2e8f0">DataBrowserPage</text>
</g>
<!-- navigation&#45;&gt;hidden_DataBrowser -->
<g id="edge25" class="edge">
<title>navigation&#45;&gt;hidden_DataBrowser</title>
<path fill="none" stroke="#fb923c" stroke-width="1.3" stroke-dasharray="5,2" d="M435.5,-1963.79C442.6,-1865.2 477.39,-1453.04 567.33,-1369 587.57,-1350.09 616.37,-1341.1 642.82,-1337.03"/>
<polygon fill="#fb923c" stroke="#fb923c" stroke-width="1.3" points="642.92,-1339.84 650.48,-1336 642.18,-1334.29 642.92,-1339.84"/>
</g>
<!-- hidden_SymbolMapping -->
<g id="node28" class="node">
<title>hidden_SymbolMapping</title>
<path fill="#431407" stroke="#fb923c" d="M767.87,-1288.8C767.87,-1288.8 654.54,-1288.8 654.54,-1288.8 648.54,-1288.8 642.54,-1282.8 642.54,-1276.8 642.54,-1276.8 642.54,-1259.2 642.54,-1259.2 642.54,-1253.2 648.54,-1247.2 654.54,-1247.2 654.54,-1247.2 767.87,-1247.2 767.87,-1247.2 773.87,-1247.2 779.87,-1253.2 779.87,-1259.2 779.87,-1259.2 779.87,-1276.8 779.87,-1276.8 779.87,-1282.8 773.87,-1288.8 767.87,-1288.8"/>
<text xml:space="preserve" text-anchor="middle" x="711.21" y="-1272.2" font-family="Segoe UI" font-size="14.00" fill="#e2e8f0">SymbolMapping</text>
<text xml:space="preserve" text-anchor="middle" x="711.21" y="-1255.4" font-family="Segoe UI" font-size="14.00" fill="#e2e8f0">SymbolMappingPage</text>
</g>
<!-- navigation&#45;&gt;hidden_SymbolMapping -->
<g id="edge26" class="edge">
<title>navigation&#45;&gt;hidden_SymbolMapping</title>
<path fill="none" stroke="#fb923c" stroke-width="1.3" stroke-dasharray="5,2" d="M434.96,-1963.95C439.88,-1859.18 467.14,-1395.39 567.33,-1302 585.04,-1285.5 609.25,-1276.56 632.72,-1271.84"/>
<polygon fill="#fb923c" stroke="#fb923c" stroke-width="1.3" points="633.04,-1274.63 640.42,-1270.47 632.06,-1269.12 633.04,-1274.63"/>
</g>
<!-- hidden_SymbolStorage -->
<g id="node29" class="node">
<title>hidden_SymbolStorage</title>
<path fill="#431407" stroke="#fb923c" d="M763.98,-3365.8C763.98,-3365.8 658.43,-3365.8 658.43,-3365.8 652.43,-3365.8 646.43,-3359.8 646.43,-3353.8 646.43,-3353.8 646.43,-3336.2 646.43,-3336.2 646.43,-3330.2 652.43,-3324.2 658.43,-3324.2 658.43,-3324.2 763.98,-3324.2 763.98,-3324.2 769.98,-3324.2 775.98,-3330.2 775.98,-3336.2 775.98,-3336.2 775.98,-3353.8 775.98,-3353.8 775.98,-3359.8 769.98,-3365.8 763.98,-3365.8"/>
<text xml:space="preserve" text-anchor="middle" x="711.21" y="-3349.2" font-family="Segoe UI" font-size="14.00" fill="#e2e8f0">SymbolStorage</text>
<text xml:space="preserve" text-anchor="middle" x="711.21" y="-3332.4" font-family="Segoe UI" font-size="14.00" fill="#e2e8f0">SymbolStoragePage</text>
</g>
<!-- navigation&#45;&gt;hidden_SymbolStorage -->
<g id="edge27" class="edge">
<title>navigation&#45;&gt;hidden_SymbolStorage</title>
<path fill="none" stroke="#fb923c" stroke-width="1.3" stroke-dasharray="5,2" d="M434.73,-2006.13C440.03,-2168.04 477.46,-3208.25 567.33,-3311 584.6,-3330.74 611.06,-3340.11 636.53,-3344.25"/>
<polygon fill="#fb923c" stroke="#fb923c" stroke-width="1.3" points="635.97,-3347 644.28,-3345.32 636.73,-3341.45 635.97,-3347"/>
</g>
<!-- hidden_PortfolioImport -->
<g id="node30" class="node">
<title>hidden_PortfolioImport</title>
<path fill="#431407" stroke="#fb923c" d="M764.75,-3298.8C764.75,-3298.8 657.66,-3298.8 657.66,-3298.8 651.66,-3298.8 645.66,-3292.8 645.66,-3286.8 645.66,-3286.8 645.66,-3269.2 645.66,-3269.2 645.66,-3263.2 651.66,-3257.2 657.66,-3257.2 657.66,-3257.2 764.75,-3257.2 764.75,-3257.2 770.75,-3257.2 776.75,-3263.2 776.75,-3269.2 776.75,-3269.2 776.75,-3286.8 776.75,-3286.8 776.75,-3292.8 770.75,-3298.8 764.75,-3298.8"/>
<text xml:space="preserve" text-anchor="middle" x="711.21" y="-3282.2" font-family="Segoe UI" font-size="14.00" fill="#e2e8f0">PortfolioImport</text>
<text xml:space="preserve" text-anchor="middle" x="711.21" y="-3265.4" font-family="Segoe UI" font-size="14.00" fill="#e2e8f0">PortfolioImportPage</text>
</g>
<!-- navigation&#45;&gt;hidden_PortfolioImport -->
<g id="edge28" class="edge">
<title>navigation&#45;&gt;hidden_PortfolioImport</title>
<path fill="none" stroke="#fb923c" stroke-width="1.3" stroke-dasharray="5,2" d="M439.49,-2005.95C456.52,-2072.7 509.08,-2286.53 531.33,-2467 541.91,-2552.78 512.2,-3177.44 567.33,-3244 583.99,-3264.11 610.19,-3273.57 635.62,-3277.69"/>
<polygon fill="#fb923c" stroke="#fb923c" stroke-width="1.3" points="635.06,-3280.44 643.36,-3278.75 635.82,-3274.89 635.06,-3280.44"/>
</g>
<!-- hidden_IndexSubscription -->
<g id="node31" class="node">
<title>hidden_IndexSubscription</title>
<path fill="#431407" stroke="#fb923c" d="M772.14,-3231.8C772.14,-3231.8 650.27,-3231.8 650.27,-3231.8 644.27,-3231.8 638.27,-3225.8 638.27,-3219.8 638.27,-3219.8 638.27,-3202.2 638.27,-3202.2 638.27,-3196.2 644.27,-3190.2 650.27,-3190.2 650.27,-3190.2 772.14,-3190.2 772.14,-3190.2 778.14,-3190.2 784.14,-3196.2 784.14,-3202.2 784.14,-3202.2 784.14,-3219.8 784.14,-3219.8 784.14,-3225.8 778.14,-3231.8 772.14,-3231.8"/>
<text xml:space="preserve" text-anchor="middle" x="711.21" y="-3215.2" font-family="Segoe UI" font-size="14.00" fill="#e2e8f0">IndexSubscription</text>
<text xml:space="preserve" text-anchor="middle" x="711.21" y="-3198.4" font-family="Segoe UI" font-size="14.00" fill="#e2e8f0">IndexSubscriptionPage</text>
</g>
<!-- navigation&#45;&gt;hidden_IndexSubscription -->
<g id="edge29" class="edge">
<title>navigation&#45;&gt;hidden_IndexSubscription</title>
<path fill="none" stroke="#fb923c" stroke-width="1.3" stroke-dasharray="5,2" d="M439.86,-2005.92C457.28,-2069.77 509.29,-2268.03 531.33,-2436 542.06,-2517.73 514.68,-3113.58 567.33,-3177 582.43,-3195.19 605.34,-3204.66 628.41,-3209.35"/>
<polygon fill="#fb923c" stroke="#fb923c" stroke-width="1.3" points="627.64,-3212.06 636,-3210.68 628.61,-3206.54 627.64,-3212.06"/>
</g>
<!-- hidden_Schedules -->
<g id="node32" class="node">
<title>hidden_Schedules</title>
<path fill="#431407" stroke="#fb923c" d="M771.35,-3164.8C771.35,-3164.8 651.06,-3164.8 651.06,-3164.8 645.06,-3164.8 639.06,-3158.8 639.06,-3152.8 639.06,-3152.8 639.06,-3135.2 639.06,-3135.2 639.06,-3129.2 645.06,-3123.2 651.06,-3123.2 651.06,-3123.2 771.35,-3123.2 771.35,-3123.2 777.35,-3123.2 783.35,-3129.2 783.35,-3135.2 783.35,-3135.2 783.35,-3152.8 783.35,-3152.8 783.35,-3158.8 777.35,-3164.8 771.35,-3164.8"/>
<text xml:space="preserve" text-anchor="middle" x="711.21" y="-3148.2" font-family="Segoe UI" font-size="14.00" fill="#e2e8f0">Schedules</text>
<text xml:space="preserve" text-anchor="middle" x="711.21" y="-3131.4" font-family="Segoe UI" font-size="14.00" fill="#e2e8f0">ScheduleManagerPage</text>
</g>
<!-- navigation&#45;&gt;hidden_Schedules -->
<g id="edge30" class="edge">
<title>navigation&#45;&gt;hidden_Schedules</title>
<path fill="none" stroke="#fb923c" stroke-width="1.3" stroke-dasharray="5,2" d="M440.37,-2006.17C458.28,-2067.31 509.56,-2249.72 531.33,-2405 542.22,-2482.68 517.16,-3049.71 567.33,-3110 582.6,-3128.34 605.8,-3137.82 629.1,-3142.46"/>
<polygon fill="#fb923c" stroke="#fb923c" stroke-width="1.3" points="628.41,-3145.18 636.77,-3143.78 629.36,-3139.66 628.41,-3145.18"/>
</g>
<!-- hidden_CollectionSessions -->
<g id="node33" class="node">
<title>hidden_CollectionSessions</title>
<path fill="#431407" stroke="#fb923c" d="M771.37,-3097.8C771.37,-3097.8 651.04,-3097.8 651.04,-3097.8 645.04,-3097.8 639.04,-3091.8 639.04,-3085.8 639.04,-3085.8 639.04,-3068.2 639.04,-3068.2 639.04,-3062.2 645.04,-3056.2 651.04,-3056.2 651.04,-3056.2 771.37,-3056.2 771.37,-3056.2 777.37,-3056.2 783.37,-3062.2 783.37,-3068.2 783.37,-3068.2 783.37,-3085.8 783.37,-3085.8 783.37,-3091.8 777.37,-3097.8 771.37,-3097.8"/>
<text xml:space="preserve" text-anchor="middle" x="711.21" y="-3081.2" font-family="Segoe UI" font-size="14.00" fill="#e2e8f0">CollectionSessions</text>
<text xml:space="preserve" text-anchor="middle" x="711.21" y="-3064.4" font-family="Segoe UI" font-size="14.00" fill="#e2e8f0">CollectionSessionPage</text>
</g>
<!-- navigation&#45;&gt;hidden_CollectionSessions -->
<g id="edge31" class="edge">
<title>navigation&#45;&gt;hidden_CollectionSessions</title>
<path fill="none" stroke="#fb923c" stroke-width="1.3" stroke-dasharray="5,2" d="M440.9,-2006.22C459.28,-2064.31 509.83,-2231.16 531.33,-2374 542.41,-2447.61 519.63,-2985.85 567.33,-3043 582.62,-3061.32 605.83,-3070.79 629.13,-3075.43"/>
<polygon fill="#fb923c" stroke="#fb923c" stroke-width="1.3" points="628.44,-3078.16 636.8,-3076.75 629.39,-3072.64 628.44,-3078.16"/>
</g>
<!-- hidden_ArchiveHealth -->
<g id="node34" class="node">
<title>hidden_ArchiveHealth</title>
<path fill="#431407" stroke="#fb923c" d="M762.02,-3030.8C762.02,-3030.8 660.4,-3030.8 660.4,-3030.8 654.4,-3030.8 648.4,-3024.8 648.4,-3018.8 648.4,-3018.8 648.4,-3001.2 648.4,-3001.2 648.4,-2995.2 654.4,-2989.2 660.4,-2989.2 660.4,-2989.2 762.02,-2989.2 762.02,-2989.2 768.02,-2989.2 774.02,-2995.2 774.02,-3001.2 774.02,-3001.2 774.02,-3018.8 774.02,-3018.8 774.02,-3024.8 768.02,-3030.8 762.02,-3030.8"/>
<text xml:space="preserve" text-anchor="middle" x="711.21" y="-3014.2" font-family="Segoe UI" font-size="14.00" fill="#e2e8f0">ArchiveHealth</text>
<text xml:space="preserve" text-anchor="middle" x="711.21" y="-2997.4" font-family="Segoe UI" font-size="14.00" fill="#e2e8f0">ArchiveHealthPage</text>
</g>
<!-- navigation&#45;&gt;hidden_ArchiveHealth -->
<g id="edge32" class="edge">
<title>navigation&#45;&gt;hidden_ArchiveHealth</title>
<path fill="none" stroke="#fb923c" stroke-width="1.3" stroke-dasharray="5,2" d="M441.45,-2006.05C460.28,-2060.77 510.11,-2212.36 531.33,-2343 542.63,-2412.54 522.11,-2921.98 567.33,-2976 584.68,-2996.72 612.15,-3006.11 638.39,-3010"/>
<polygon fill="#fb923c" stroke="#fb923c" stroke-width="1.3" points="637.74,-3012.74 646.03,-3010.96 638.44,-3007.19 637.74,-3012.74"/>
</g>
<!-- hidden_ServiceManager -->
<g id="node35" class="node">
<title>hidden_ServiceManager</title>
<path fill="#431407" stroke="#fb923c" d="M766.68,-2963.8C766.68,-2963.8 655.73,-2963.8 655.73,-2963.8 649.73,-2963.8 643.73,-2957.8 643.73,-2951.8 643.73,-2951.8 643.73,-2934.2 643.73,-2934.2 643.73,-2928.2 649.73,-2922.2 655.73,-2922.2 655.73,-2922.2 766.68,-2922.2 766.68,-2922.2 772.68,-2922.2 778.68,-2928.2 778.68,-2934.2 778.68,-2934.2 778.68,-2951.8 778.68,-2951.8 778.68,-2957.8 772.68,-2963.8 766.68,-2963.8"/>
<text xml:space="preserve" text-anchor="middle" x="711.21" y="-2947.2" font-family="Segoe UI" font-size="14.00" fill="#e2e8f0">ServiceManager</text>
<text xml:space="preserve" text-anchor="middle" x="711.21" y="-2930.4" font-family="Segoe UI" font-size="14.00" fill="#e2e8f0">ServiceManagerPage</text>
</g>
<!-- navigation&#45;&gt;hidden_ServiceManager -->
<g id="edge33" class="edge">
<title>navigation&#45;&gt;hidden_ServiceManager</title>
<path fill="none" stroke="#fb923c" stroke-width="1.3" stroke-dasharray="5,2" d="M442.16,-2006.02C461.52,-2057.36 510.44,-2193.59 531.33,-2312 542.88,-2377.44 524.59,-2858.12 567.33,-2909 583.62,-2928.39 608.77,-2937.85 633.46,-2942.17"/>
<polygon fill="#fb923c" stroke="#fb923c" stroke-width="1.3" points="632.98,-2944.93 641.3,-2943.34 633.8,-2939.39 632.98,-2944.93"/>
</g>
<!-- hidden_SystemHealth -->
<g id="node36" class="node">
<title>hidden_SystemHealth</title>
<path fill="#431407" stroke="#fb923c" d="M760.09,-2896.8C760.09,-2896.8 662.33,-2896.8 662.33,-2896.8 656.33,-2896.8 650.33,-2890.8 650.33,-2884.8 650.33,-2884.8 650.33,-2867.2 650.33,-2867.2 650.33,-2861.2 656.33,-2855.2 662.33,-2855.2 662.33,-2855.2 760.09,-2855.2 760.09,-2855.2 766.09,-2855.2 772.09,-2861.2 772.09,-2867.2 772.09,-2867.2 772.09,-2884.8 772.09,-2884.8 772.09,-2890.8 766.09,-2896.8 760.09,-2896.8"/>
<text xml:space="preserve" text-anchor="middle" x="711.21" y="-2880.2" font-family="Segoe UI" font-size="14.00" fill="#e2e8f0">SystemHealth</text>
<text xml:space="preserve" text-anchor="middle" x="711.21" y="-2863.4" font-family="Segoe UI" font-size="14.00" fill="#e2e8f0">SystemHealthPage</text>
</g>
<!-- navigation&#45;&gt;hidden_SystemHealth -->
<g id="edge34" class="edge">
<title>navigation&#45;&gt;hidden_SystemHealth</title>
<path fill="none" stroke="#fb923c" stroke-width="1.3" stroke-dasharray="5,2" d="M443.05,-2006.05C462.99,-2053.86 510.82,-2174.78 531.33,-2281 543.18,-2342.33 527.06,-2794.25 567.33,-2842 585.12,-2863.09 613.4,-2872.43 640.12,-2876.18"/>
<polygon fill="#fb923c" stroke="#fb923c" stroke-width="1.3" points="639.65,-2878.94 647.92,-2877.09 640.3,-2873.38 639.65,-2878.94"/>
</g>
<!-- hidden_DataSampling -->
<g id="node37" class="node">
<title>hidden_DataSampling</title>
<path fill="#431407" stroke="#fb923c" d="M760.86,-2829.8C760.86,-2829.8 661.55,-2829.8 661.55,-2829.8 655.55,-2829.8 649.55,-2823.8 649.55,-2817.8 649.55,-2817.8 649.55,-2800.2 649.55,-2800.2 649.55,-2794.2 655.55,-2788.2 661.55,-2788.2 661.55,-2788.2 760.86,-2788.2 760.86,-2788.2 766.86,-2788.2 772.86,-2794.2 772.86,-2800.2 772.86,-2800.2 772.86,-2817.8 772.86,-2817.8 772.86,-2823.8 766.86,-2829.8 760.86,-2829.8"/>
<text xml:space="preserve" text-anchor="middle" x="711.21" y="-2813.2" font-family="Segoe UI" font-size="14.00" fill="#e2e8f0">DataSampling</text>
<text xml:space="preserve" text-anchor="middle" x="711.21" y="-2796.4" font-family="Segoe UI" font-size="14.00" fill="#e2e8f0">DataSamplingPage</text>
</g>
<!-- navigation&#45;&gt;hidden_DataSampling -->
<g id="edge35" class="edge">
<title>navigation&#45;&gt;hidden_DataSampling</title>
<path fill="none" stroke="#fb923c" stroke-width="1.3" stroke-dasharray="5,2" d="M444.13,-2006.03C464.69,-2050.09 511.25,-2155.82 531.33,-2250 543.53,-2307.18 529.54,-2730.39 567.33,-2775 585.02,-2795.88 612.99,-2805.23 639.51,-2809.04"/>
<polygon fill="#fb923c" stroke="#fb923c" stroke-width="1.3" points="638.96,-2811.8 647.24,-2809.98 639.63,-2806.24 638.96,-2811.8"/>
</g>
<!-- hidden_TimeSeriesAlignment -->
<g id="node38" class="node">
<title>hidden_TimeSeriesAlignment</title>
<path fill="#431407" stroke="#fb923c" d="M782.63,-2762.8C782.63,-2762.8 639.78,-2762.8 639.78,-2762.8 633.78,-2762.8 627.78,-2756.8 627.78,-2750.8 627.78,-2750.8 627.78,-2733.2 627.78,-2733.2 627.78,-2727.2 633.78,-2721.2 639.78,-2721.2 639.78,-2721.2 782.63,-2721.2 782.63,-2721.2 788.63,-2721.2 794.63,-2727.2 794.63,-2733.2 794.63,-2733.2 794.63,-2750.8 794.63,-2750.8 794.63,-2756.8 788.63,-2762.8 782.63,-2762.8"/>
<text xml:space="preserve" text-anchor="middle" x="711.21" y="-2746.2" font-family="Segoe UI" font-size="14.00" fill="#e2e8f0">TimeSeriesAlignment</text>
<text xml:space="preserve" text-anchor="middle" x="711.21" y="-2729.4" font-family="Segoe UI" font-size="14.00" fill="#e2e8f0">TimeSeriesAlignmentPage</text>
</g>
<!-- navigation&#45;&gt;hidden_TimeSeriesAlignment -->
<g id="edge36" class="edge">
<title>navigation&#45;&gt;hidden_TimeSeriesAlignment</title>
<path fill="none" stroke="#fb923c" stroke-width="1.3" stroke-dasharray="5,2" d="M445.6,-2006.15C466.84,-2046.29 511.77,-2136.83 531.33,-2219 556.57,-2325 496.69,-2625.04 567.33,-2708 580.26,-2723.18 598.62,-2732.26 617.89,-2737.55"/>
<polygon fill="#fb923c" stroke="#fb923c" stroke-width="1.3" points="617.06,-2740.23 625.49,-2739.39 618.37,-2734.79 617.06,-2740.23"/>
</g>
<!-- hidden_ExportPresets -->
<g id="node39" class="node">
<title>hidden_ExportPresets</title>
<path fill="#431407" stroke="#fb923c" d="M759.7,-2695.8C759.7,-2695.8 662.72,-2695.8 662.72,-2695.8 656.72,-2695.8 650.72,-2689.8 650.72,-2683.8 650.72,-2683.8 650.72,-2666.2 650.72,-2666.2 650.72,-2660.2 656.72,-2654.2 662.72,-2654.2 662.72,-2654.2 759.7,-2654.2 759.7,-2654.2 765.7,-2654.2 771.7,-2660.2 771.7,-2666.2 771.7,-2666.2 771.7,-2683.8 771.7,-2683.8 771.7,-2689.8 765.7,-2695.8 759.7,-2695.8"/>
<text xml:space="preserve" text-anchor="middle" x="711.21" y="-2679.2" font-family="Segoe UI" font-size="14.00" fill="#e2e8f0">ExportPresets</text>
<text xml:space="preserve" text-anchor="middle" x="711.21" y="-2662.4" font-family="Segoe UI" font-size="14.00" fill="#e2e8f0">ExportPresetsPage</text>
</g>
<!-- navigation&#45;&gt;hidden_ExportPresets -->
<g id="edge37" class="edge">
<title>navigation&#45;&gt;hidden_ExportPresets</title>
<path fill="none" stroke="#fb923c" stroke-width="1.3" stroke-dasharray="5,2" d="M447.49,-2006.2C469.42,-2042.05 512.38,-2117.62 531.33,-2188 557.59,-2285.51 501.64,-2564.3 567.33,-2641 585.35,-2662.04 613.82,-2671.35 640.61,-2675.09"/>
<polygon fill="#fb923c" stroke="#fb923c" stroke-width="1.3" points="640.16,-2677.85 648.43,-2676 640.81,-2672.29 640.16,-2677.85"/>
</g>
<!-- hidden_AnalysisExport -->
<g id="node40" class="node">
<title>hidden_AnalysisExport</title>
<path fill="#431407" stroke="#fb923c" d="M764.37,-2628.8C764.37,-2628.8 658.05,-2628.8 658.05,-2628.8 652.05,-2628.8 646.05,-2622.8 646.05,-2616.8 646.05,-2616.8 646.05,-2599.2 646.05,-2599.2 646.05,-2593.2 652.05,-2587.2 658.05,-2587.2 658.05,-2587.2 764.37,-2587.2 764.37,-2587.2 770.37,-2587.2 776.37,-2593.2 776.37,-2599.2 776.37,-2599.2 776.37,-2616.8 776.37,-2616.8 776.37,-2622.8 770.37,-2628.8 764.37,-2628.8"/>
<text xml:space="preserve" text-anchor="middle" x="711.21" y="-2612.2" font-family="Segoe UI" font-size="14.00" fill="#e2e8f0">AnalysisExport</text>
<text xml:space="preserve" text-anchor="middle" x="711.21" y="-2595.4" font-family="Segoe UI" font-size="14.00" fill="#e2e8f0">AnalysisExportPage</text>
</g>
<!-- navigation&#45;&gt;hidden_AnalysisExport -->
<g id="edge38" class="edge">
<title>navigation&#45;&gt;hidden_AnalysisExport</title>
<path fill="none" stroke="#fb923c" stroke-width="1.3" stroke-dasharray="5,2" d="M450.05,-2006.14C472.62,-2037.28 513.11,-2098.18 531.33,-2157 558.85,-2245.85 506.59,-2503.56 567.33,-2574 584.39,-2593.78 610.66,-2603.17 636.05,-2607.32"/>
<polygon fill="#fb923c" stroke="#fb923c" stroke-width="1.3" points="635.46,-2610.07 643.77,-2608.4 636.23,-2604.52 635.46,-2610.07"/>
</g>
<!-- hidden_AnalysisExportWizard -->
<g id="node41" class="node">
<title>hidden_AnalysisExportWizard</title>
<path fill="#431407" stroke="#fb923c" d="M784.96,-2561.8C784.96,-2561.8 637.45,-2561.8 637.45,-2561.8 631.45,-2561.8 625.45,-2555.8 625.45,-2549.8 625.45,-2549.8 625.45,-2532.2 625.45,-2532.2 625.45,-2526.2 631.45,-2520.2 637.45,-2520.2 637.45,-2520.2 784.96,-2520.2 784.96,-2520.2 790.96,-2520.2 796.96,-2526.2 796.96,-2532.2 796.96,-2532.2 796.96,-2549.8 796.96,-2549.8 796.96,-2555.8 790.96,-2561.8 784.96,-2561.8"/>
<text xml:space="preserve" text-anchor="middle" x="711.21" y="-2545.2" font-family="Segoe UI" font-size="14.00" fill="#e2e8f0">AnalysisExportWizard</text>
<text xml:space="preserve" text-anchor="middle" x="711.21" y="-2528.4" font-family="Segoe UI" font-size="14.00" fill="#e2e8f0">AnalysisExportWizardPage</text>
</g>
<!-- navigation&#45;&gt;hidden_AnalysisExportWizard -->
<g id="edge39" class="edge">
<title>navigation&#45;&gt;hidden_AnalysisExportWizard</title>
<path fill="none" stroke="#fb923c" stroke-width="1.3" stroke-dasharray="5,2" d="M453.77,-2005.96C476.82,-2031.9 514.04,-2078.49 531.33,-2126 560.42,-2205.92 511.53,-2442.82 567.33,-2507 579.8,-2521.34 597.11,-2530.21 615.39,-2535.58"/>
<polygon fill="#fb923c" stroke="#fb923c" stroke-width="1.3" points="614.67,-2538.29 623.12,-2537.59 616.08,-2532.87 614.67,-2538.29"/>
</g>
<!-- hidden_EventReplay -->
<g id="node42" class="node">
<title>hidden_EventReplay</title>
<path fill="#431407" stroke="#fb923c" d="M756.97,-2494.8C756.97,-2494.8 665.44,-2494.8 665.44,-2494.8 659.44,-2494.8 653.44,-2488.8 653.44,-2482.8 653.44,-2482.8 653.44,-2465.2 653.44,-2465.2 653.44,-2459.2 659.44,-2453.2 665.44,-2453.2 665.44,-2453.2 756.97,-2453.2 756.97,-2453.2 762.97,-2453.2 768.97,-2459.2 768.97,-2465.2 768.97,-2465.2 768.97,-2482.8 768.97,-2482.8 768.97,-2488.8 762.97,-2494.8 756.97,-2494.8"/>
<text xml:space="preserve" text-anchor="middle" x="711.21" y="-2478.2" font-family="Segoe UI" font-size="14.00" fill="#e2e8f0">EventReplay</text>
<text xml:space="preserve" text-anchor="middle" x="711.21" y="-2461.4" font-family="Segoe UI" font-size="14.00" fill="#e2e8f0">EventReplayPage</text>
</g>
<!-- navigation&#45;&gt;hidden_EventReplay -->
<g id="edge40" class="edge">
<title>navigation&#45;&gt;hidden_EventReplay</title>
<path fill="none" stroke="#fb923c" stroke-width="1.3" stroke-dasharray="5,2" d="M460.12,-2005.96C483.13,-2026.13 515.44,-2058.83 531.33,-2095 562.34,-2165.57 516.47,-2382.08 567.33,-2440 586.22,-2461.51 616.02,-2470.69 643.52,-2474.22"/>
<polygon fill="#fb923c" stroke="#fb923c" stroke-width="1.3" points="642.93,-2476.98 651.18,-2475.04 643.52,-2471.41 642.93,-2476.98"/>
</g>
<!-- hidden_TradingHours -->
<g id="node43" class="node">
<title>hidden_TradingHours</title>
<path fill="#431407" stroke="#fb923c" d="M760.08,-2427.8C760.08,-2427.8 662.33,-2427.8 662.33,-2427.8 656.33,-2427.8 650.33,-2421.8 650.33,-2415.8 650.33,-2415.8 650.33,-2398.2 650.33,-2398.2 650.33,-2392.2 656.33,-2386.2 662.33,-2386.2 662.33,-2386.2 760.08,-2386.2 760.08,-2386.2 766.08,-2386.2 772.08,-2392.2 772.08,-2398.2 772.08,-2398.2 772.08,-2415.8 772.08,-2415.8 772.08,-2421.8 766.08,-2427.8 760.08,-2427.8"/>
<text xml:space="preserve" text-anchor="middle" x="711.21" y="-2411.2" font-family="Segoe UI" font-size="14.00" fill="#e2e8f0">TradingHours</text>
<text xml:space="preserve" text-anchor="middle" x="711.21" y="-2394.4" font-family="Segoe UI" font-size="14.00" fill="#e2e8f0">TradingHoursPage</text>
</g>
<!-- navigation&#45;&gt;hidden_TradingHours -->
<g id="edge41" class="edge">
<title>navigation&#45;&gt;hidden_TradingHours</title>
<path fill="none" stroke="#fb923c" stroke-width="1.3" stroke-dasharray="5,2" d="M472.64,-2006.2C493.61,-2019.84 517.93,-2039.59 531.33,-2064 597.9,-2185.18 475.48,-2269.66 567.33,-2373 585.59,-2393.54 613.79,-2402.81 640.33,-2406.66"/>
<polygon fill="#fb923c" stroke="#fb923c" stroke-width="1.3" points="639.78,-2409.41 648.06,-2407.61 640.46,-2403.86 639.78,-2409.41"/>
</g>
<!-- hidden_AdvancedAnalytics -->
<g id="node44" class="node">
<title>hidden_AdvancedAnalytics</title>
<path fill="#431407" stroke="#fb923c" d="M776.02,-2360.8C776.02,-2360.8 646.4,-2360.8 646.4,-2360.8 640.4,-2360.8 634.4,-2354.8 634.4,-2348.8 634.4,-2348.8 634.4,-2331.2 634.4,-2331.2 634.4,-2325.2 640.4,-2319.2 646.4,-2319.2 646.4,-2319.2 776.02,-2319.2 776.02,-2319.2 782.02,-2319.2 788.02,-2325.2 788.02,-2331.2 788.02,-2331.2 788.02,-2348.8 788.02,-2348.8 788.02,-2354.8 782.02,-2360.8 776.02,-2360.8"/>
<text xml:space="preserve" text-anchor="middle" x="711.21" y="-2344.2" font-family="Segoe UI" font-size="14.00" fill="#e2e8f0">AdvancedAnalytics</text>
<text xml:space="preserve" text-anchor="middle" x="711.21" y="-2327.4" font-family="Segoe UI" font-size="14.00" fill="#e2e8f0">AdvancedAnalyticsPage</text>
</g>
<!-- navigation&#45;&gt;hidden_AdvancedAnalytics -->
<g id="edge42" class="edge">
<title>navigation&#45;&gt;hidden_AdvancedAnalytics</title>
<path fill="none" stroke="#fb923c" stroke-width="1.3" stroke-dasharray="5,2" d="M494.82,-2003.73C508.8,-2010.78 522.23,-2020.3 531.33,-2033 602.61,-2132.48 485.34,-2215.14 567.33,-2306 582.06,-2322.32 603.08,-2331.51 624.48,-2336.51"/>
<polygon fill="#fb923c" stroke="#fb923c" stroke-width="1.3" points="623.66,-2339.2 632.06,-2338.07 624.79,-2333.72 623.66,-2339.2"/>
</g>
<!-- hidden_OrderBook -->
<g id="node45" class="node">
<title>hidden_OrderBook</title>
<path fill="#431407" stroke="#fb923c" d="M752.31,-2293.8C752.31,-2293.8 670.11,-2293.8 670.11,-2293.8 664.11,-2293.8 658.11,-2287.8 658.11,-2281.8 658.11,-2281.8 658.11,-2264.2 658.11,-2264.2 658.11,-2258.2 664.11,-2252.2 670.11,-2252.2 670.11,-2252.2 752.31,-2252.2 752.31,-2252.2 758.31,-2252.2 764.31,-2258.2 764.31,-2264.2 764.31,-2264.2 764.31,-2281.8 764.31,-2281.8 764.31,-2287.8 758.31,-2293.8 752.31,-2293.8"/>
<text xml:space="preserve" text-anchor="middle" x="711.21" y="-2277.2" font-family="Segoe UI" font-size="14.00" fill="#e2e8f0">OrderBook</text>
<text xml:space="preserve" text-anchor="middle" x="711.21" y="-2260.4" font-family="Segoe UI" font-size="14.00" fill="#e2e8f0">OrderBookPage</text>
</g>
<!-- navigation&#45;&gt;hidden_OrderBook -->
<g id="edge43" class="edge">
<title>navigation&#45;&gt;hidden_OrderBook</title>
<path fill="none" stroke="#fb923c" stroke-width="1.3" stroke-dasharray="5,2" d="M494.67,-1984.05C508.32,-1986.73 521.62,-1992.07 531.33,-2002 605.82,-2078.17 495.18,-2160.61 567.33,-2239 587.64,-2261.07 619.45,-2270.03 647.91,-2273.28"/>
<polygon fill="#fb923c" stroke="#fb923c" stroke-width="1.3" points="647.63,-2276.07 655.85,-2274.02 648.14,-2270.49 647.63,-2276.07"/>
</g>
<!-- hidden_DataCalendar -->
<g id="node46" class="node">
<title>hidden_DataCalendar</title>
<path fill="#431407" stroke="#fb923c" d="M759.29,-2226.8C759.29,-2226.8 663.12,-2226.8 663.12,-2226.8 657.12,-2226.8 651.12,-2220.8 651.12,-2214.8 651.12,-2214.8 651.12,-2197.2 651.12,-2197.2 651.12,-2191.2 657.12,-2185.2 663.12,-2185.2 663.12,-2185.2 759.29,-2185.2 759.29,-2185.2 765.29,-2185.2 771.29,-2191.2 771.29,-2197.2 771.29,-2197.2 771.29,-2214.8 771.29,-2214.8 771.29,-2220.8 765.29,-2226.8 759.29,-2226.8"/>
<text xml:space="preserve" text-anchor="middle" x="711.21" y="-2210.2" font-family="Segoe UI" font-size="14.00" fill="#e2e8f0">DataCalendar</text>
<text xml:space="preserve" text-anchor="middle" x="711.21" y="-2193.4" font-family="Segoe UI" font-size="14.00" fill="#e2e8f0">DataCalendarPage</text>
</g>
<!-- navigation&#45;&gt;hidden_DataCalendar -->
<g id="edge44" class="edge">
<title>navigation&#45;&gt;hidden_DataCalendar</title>
<path fill="none" stroke="#fb923c" stroke-width="1.3" stroke-dasharray="5,2" d="M483.08,-1963.71C500.01,-1959.79 518.05,-1959.89 531.33,-1971 600.93,-2029.24 504.99,-2106.04 567.33,-2172 586.28,-2192.05 614.74,-2201.23 641.28,-2205.14"/>
<polygon fill="#fb923c" stroke="#fb923c" stroke-width="1.3" points="640.72,-2207.89 649,-2206.11 641.41,-2202.33 640.72,-2207.89"/>
</g>
<!-- hidden_StorageOptimization -->
<g id="node47" class="node">
<title>hidden_StorageOptimization</title>
<path fill="#431407" stroke="#fb923c" d="M779.13,-2159.8C779.13,-2159.8 643.28,-2159.8 643.28,-2159.8 637.28,-2159.8 631.28,-2153.8 631.28,-2147.8 631.28,-2147.8 631.28,-2130.2 631.28,-2130.2 631.28,-2124.2 637.28,-2118.2 643.28,-2118.2 643.28,-2118.2 779.13,-2118.2 779.13,-2118.2 785.13,-2118.2 791.13,-2124.2 791.13,-2130.2 791.13,-2130.2 791.13,-2147.8 791.13,-2147.8 791.13,-2153.8 785.13,-2159.8 779.13,-2159.8"/>
<text xml:space="preserve" text-anchor="middle" x="711.21" y="-2143.2" font-family="Segoe UI" font-size="14.00" fill="#e2e8f0">StorageOptimization</text>
<text xml:space="preserve" text-anchor="middle" x="711.21" y="-2126.4" font-family="Segoe UI" font-size="14.00" fill="#e2e8f0">StorageOptimizationPage</text>
</g>
<!-- navigation&#45;&gt;hidden_StorageOptimization -->
<g id="edge45" class="edge">
<title>navigation&#45;&gt;hidden_StorageOptimization</title>
<path fill="none" stroke="#fb923c" stroke-width="1.3" stroke-dasharray="5,2" d="M453.9,-1963.97C474.74,-1944.42 507.71,-1920.98 531.33,-1940 589.79,-1987.08 514.76,-2051.43 567.33,-2105 581.82,-2119.77 601.48,-2128.59 621.58,-2133.75"/>
<polygon fill="#fb923c" stroke="#fb923c" stroke-width="1.3" points="620.8,-2136.44 629.22,-2135.5 622.05,-2130.99 620.8,-2136.44"/>
</g>
<!-- hidden_RetentionAssurance -->
<g id="node48" class="node">
<title>hidden_RetentionAssurance</title>
<path fill="#431407" stroke="#fb923c" d="M777.19,-2092.8C777.19,-2092.8 645.23,-2092.8 645.23,-2092.8 639.23,-2092.8 633.23,-2086.8 633.23,-2080.8 633.23,-2080.8 633.23,-2063.2 633.23,-2063.2 633.23,-2057.2 639.23,-2051.2 645.23,-2051.2 645.23,-2051.2 777.19,-2051.2 777.19,-2051.2 783.19,-2051.2 789.19,-2057.2 789.19,-2063.2 789.19,-2063.2 789.19,-2080.8 789.19,-2080.8 789.19,-2086.8 783.19,-2092.8 777.19,-2092.8"/>
<text xml:space="preserve" text-anchor="middle" x="711.21" y="-2076.2" font-family="Segoe UI" font-size="14.00" fill="#e2e8f0">RetentionAssurance</text>
<text xml:space="preserve" text-anchor="middle" x="711.21" y="-2059.4" font-family="Segoe UI" font-size="14.00" fill="#e2e8f0">RetentionAssurancePage</text>
</g>
<!-- navigation&#45;&gt;hidden_RetentionAssurance -->
<g id="edge46" class="edge">
<title>navigation&#45;&gt;hidden_RetentionAssurance</title>
<path fill="none" stroke="#fb923c" stroke-width="1.3" stroke-dasharray="5,2" d="M445.96,-1963.71C464.21,-1933.78 500.27,-1885.42 531.33,-1909 578.74,-1944.99 524.44,-1996.73 567.33,-2038 582.48,-2052.57 602.69,-2061.29 623.13,-2066.4"/>
<polygon fill="#fb923c" stroke="#fb923c" stroke-width="1.3" points="622.5,-2069.13 630.92,-2068.14 623.72,-2063.67 622.5,-2069.13"/>
</g>
<!-- hidden_LeanIntegration -->
<g id="node49" class="node">
<title>hidden_LeanIntegration</title>
<path fill="#431407" stroke="#fb923c" d="M765.51,-2025.8C765.51,-2025.8 656.9,-2025.8 656.9,-2025.8 650.9,-2025.8 644.9,-2019.8 644.9,-2013.8 644.9,-2013.8 644.9,-1996.2 644.9,-1996.2 644.9,-1990.2 650.9,-1984.2 656.9,-1984.2 656.9,-1984.2 765.51,-1984.2 765.51,-1984.2 771.51,-1984.2 777.51,-1990.2 777.51,-1996.2 777.51,-1996.2 777.51,-2013.8 777.51,-2013.8 777.51,-2019.8 771.51,-2025.8 765.51,-2025.8"/>
<text xml:space="preserve" text-anchor="middle" x="711.21" y="-2009.2" font-family="Segoe UI" font-size="14.00" fill="#e2e8f0">LeanIntegration</text>
<text xml:space="preserve" text-anchor="middle" x="711.21" y="-1992.4" font-family="Segoe UI" font-size="14.00" fill="#e2e8f0">LeanIntegrationPage</text>
</g>
<!-- navigation&#45;&gt;hidden_LeanIntegration -->
<g id="edge47" class="edge">
<title>navigation&#45;&gt;hidden_LeanIntegration</title>
<path fill="none" stroke="#fb923c" stroke-width="1.3" stroke-dasharray="5,2" d="M441.58,-1963.77C456.38,-1925.34 491.36,-1850.61 531.33,-1878 567.89,-1903.05 533.94,-1941.86 567.33,-1971 585.9,-1987.21 610.83,-1996.02 634.65,-2000.72"/>
<polygon fill="#fb923c" stroke="#fb923c" stroke-width="1.3" points="634.12,-2003.47 642.48,-2002.09 635.09,-1997.95 634.12,-2003.47"/>
</g>
<!-- hidden_MessagingHub -->
<g id="node50" class="node">
<title>hidden_MessagingHub</title>
<path fill="#431407" stroke="#fb923c" d="M763.2,-1958.8C763.2,-1958.8 659.21,-1958.8 659.21,-1958.8 653.21,-1958.8 647.21,-1952.8 647.21,-1946.8 647.21,-1946.8 647.21,-1929.2 647.21,-1929.2 647.21,-1923.2 653.21,-1917.2 659.21,-1917.2 659.21,-1917.2 763.2,-1917.2 763.2,-1917.2 769.2,-1917.2 775.2,-1923.2 775.2,-1929.2 775.2,-1929.2 775.2,-1946.8 775.2,-1946.8 775.2,-1952.8 769.2,-1958.8 763.2,-1958.8"/>
<text xml:space="preserve" text-anchor="middle" x="711.21" y="-1942.2" font-family="Segoe UI" font-size="14.00" fill="#e2e8f0">MessagingHub</text>
<text xml:space="preserve" text-anchor="middle" x="711.21" y="-1925.4" font-family="Segoe UI" font-size="14.00" fill="#e2e8f0">MessagingHubPage</text>
</g>
<!-- navigation&#45;&gt;hidden_MessagingHub -->
<g id="edge48" class="edge">
<title>navigation&#45;&gt;hidden_MessagingHub</title>
<path fill="none" stroke="#fb923c" stroke-width="1.3" stroke-dasharray="5,2" d="M444.58,-1963.9C459.44,-1936.77 489.39,-1890.91 530.33,-1872 550.07,-1862.89 548.05,-1893.96 567.33,-1904 588.9,-1915.23 614.22,-1922.81 637.51,-1927.91"/>
<polygon fill="#fb923c" stroke="#fb923c" stroke-width="1.3" points="636.68,-1930.59 645.08,-1929.47 637.81,-1925.11 636.68,-1930.59"/>
</g>
<!-- hidden_Workspaces -->
<g id="node51" class="node">
<title>hidden_Workspaces</title>
<path fill="#431407" stroke="#fb923c" d="M752.3,-1891.8C752.3,-1891.8 670.12,-1891.8 670.12,-1891.8 664.12,-1891.8 658.12,-1885.8 658.12,-1879.8 658.12,-1879.8 658.12,-1862.2 658.12,-1862.2 658.12,-1856.2 664.12,-1850.2 670.12,-1850.2 670.12,-1850.2 752.3,-1850.2 752.3,-1850.2 758.3,-1850.2 764.3,-1856.2 764.3,-1862.2 764.3,-1862.2 764.3,-1879.8 764.3,-1879.8 764.3,-1885.8 758.3,-1891.8 752.3,-1891.8"/>
<text xml:space="preserve" text-anchor="middle" x="711.21" y="-1875.2" font-family="Segoe UI" font-size="14.00" fill="#e2e8f0">Workspaces</text>
<text xml:space="preserve" text-anchor="middle" x="711.21" y="-1858.4" font-family="Segoe UI" font-size="14.00" fill="#e2e8f0">WorkspacePage</text>
</g>
<!-- navigation&#45;&gt;hidden_Workspaces -->
<g id="edge49" class="edge">
<title>navigation&#45;&gt;hidden_Workspaces</title>
<path fill="none" stroke="#fb923c" stroke-width="1.3" stroke-dasharray="5,2" d="M443.78,-1963.79C458.11,-1935.39 487.88,-1886.26 530.33,-1866 566.82,-1848.58 612.4,-1850.06 648.54,-1855.77"/>
<polygon fill="#fb923c" stroke="#fb923c" stroke-width="1.3" points="647.69,-1858.47 656.05,-1857.06 648.64,-1852.95 647.69,-1858.47"/>
</g>
<!-- hidden_NotificationCenter -->
<g id="node52" class="node">
<title>hidden_NotificationCenter</title>
<path fill="#431407" stroke="#fb923c" d="M773.3,-1824.8C773.3,-1824.8 649.12,-1824.8 649.12,-1824.8 643.12,-1824.8 637.12,-1818.8 637.12,-1812.8 637.12,-1812.8 637.12,-1795.2 637.12,-1795.2 637.12,-1789.2 643.12,-1783.2 649.12,-1783.2 649.12,-1783.2 773.3,-1783.2 773.3,-1783.2 779.3,-1783.2 785.3,-1789.2 785.3,-1795.2 785.3,-1795.2 785.3,-1812.8 785.3,-1812.8 785.3,-1818.8 779.3,-1824.8 773.3,-1824.8"/>
<text xml:space="preserve" text-anchor="middle" x="711.21" y="-1808.2" font-family="Segoe UI" font-size="14.00" fill="#e2e8f0">NotificationCenter</text>
<text xml:space="preserve" text-anchor="middle" x="711.21" y="-1791.4" font-family="Segoe UI" font-size="14.00" fill="#e2e8f0">NotificationCenterPage</text>
</g>
<!-- navigation&#45;&gt;hidden_NotificationCenter -->
<g id="edge50" class="edge">
<title>navigation&#45;&gt;hidden_NotificationCenter</title>
<path fill="none" stroke="#fb923c" stroke-width="1.3" stroke-dasharray="5,2" d="M446.68,-1964.02C463.38,-1937.47 494.88,-1891.44 530.33,-1860 557.17,-1836.2 594.03,-1822.51 627.4,-1814.64"/>
<polygon fill="#fb923c" stroke="#fb923c" stroke-width="1.3" points="627.59,-1817.47 634.79,-1813 626.37,-1812 627.59,-1817.47"/>
</g>
<!-- hidden_Help -->
<g id="node53" class="node">
<title>hidden_Help</title>
<path fill="#431407" stroke="#fb923c" d="M734.42,-1757.8C734.42,-1757.8 687.99,-1757.8 687.99,-1757.8 681.99,-1757.8 675.99,-1751.8 675.99,-1745.8 675.99,-1745.8 675.99,-1728.2 675.99,-1728.2 675.99,-1722.2 681.99,-1716.2 687.99,-1716.2 687.99,-1716.2 734.42,-1716.2 734.42,-1716.2 740.42,-1716.2 746.42,-1722.2 746.42,-1728.2 746.42,-1728.2 746.42,-1745.8 746.42,-1745.8 746.42,-1751.8 740.42,-1757.8 734.42,-1757.8"/>
<text xml:space="preserve" text-anchor="middle" x="711.21" y="-1741.2" font-family="Segoe UI" font-size="14.00" fill="#e2e8f0">Help</text>
<text xml:space="preserve" text-anchor="middle" x="711.21" y="-1724.4" font-family="Segoe UI" font-size="14.00" fill="#e2e8f0">HelpPage</text>
</g>
<!-- navigation&#45;&gt;hidden_Help -->
<g id="edge51" class="edge">
<title>navigation&#45;&gt;hidden_Help</title>
<path fill="none" stroke="#fb923c" stroke-width="1.3" stroke-dasharray="5,2" d="M441,-1963.83C456.36,-1920.43 497.52,-1821.23 567.33,-1771 596.06,-1750.33 635.64,-1742.08 665.86,-1738.86"/>
<polygon fill="#fb923c" stroke="#fb923c" stroke-width="1.3" points="666.05,-1741.65 673.76,-1738.13 665.53,-1736.07 666.05,-1741.65"/>
</g>
<!-- hidden_Welcome -->
<g id="node54" class="node">
<title>hidden_Welcome</title>
<path fill="#431407" stroke="#fb923c" d="M747.63,-1690.8C747.63,-1690.8 674.78,-1690.8 674.78,-1690.8 668.78,-1690.8 662.78,-1684.8 662.78,-1678.8 662.78,-1678.8 662.78,-1661.2 662.78,-1661.2 662.78,-1655.2 668.78,-1649.2 674.78,-1649.2 674.78,-1649.2 747.63,-1649.2 747.63,-1649.2 753.63,-1649.2 759.63,-1655.2 759.63,-1661.2 759.63,-1661.2 759.63,-1678.8 759.63,-1678.8 759.63,-1684.8 753.63,-1690.8 747.63,-1690.8"/>
<text xml:space="preserve" text-anchor="middle" x="711.21" y="-1674.2" font-family="Segoe UI" font-size="14.00" fill="#e2e8f0">Welcome</text>
<text xml:space="preserve" text-anchor="middle" x="711.21" y="-1657.4" font-family="Segoe UI" font-size="14.00" fill="#e2e8f0">WelcomePage</text>
</g>
<!-- navigation&#45;&gt;hidden_Welcome -->
<g id="edge52" class="edge">
<title>navigation&#45;&gt;hidden_Welcome</title>
<path fill="none" stroke="#fb923c" stroke-width="1.3" stroke-dasharray="5,2" d="M437.66,-1963.9C447.77,-1911.27 481.53,-1773.5 567.33,-1704 591.26,-1684.62 624.41,-1675.96 652.75,-1672.22"/>
<polygon fill="#fb923c" stroke="#fb923c" stroke-width="1.3" points="652.97,-1675.01 660.6,-1671.31 652.33,-1669.45 652.97,-1675.01"/>
</g>
<!-- hidden_KeyboardShortcuts -->
<g id="node55" class="node">
<title>hidden_KeyboardShortcuts</title>
<path fill="#431407" stroke="#fb923c" d="M774.86,-1623.8C774.86,-1623.8 647.55,-1623.8 647.55,-1623.8 641.55,-1623.8 635.55,-1617.8 635.55,-1611.8 635.55,-1611.8 635.55,-1594.2 635.55,-1594.2 635.55,-1588.2 641.55,-1582.2 647.55,-1582.2 647.55,-1582.2 774.86,-1582.2 774.86,-1582.2 780.86,-1582.2 786.86,-1588.2 786.86,-1594.2 786.86,-1594.2 786.86,-1611.8 786.86,-1611.8 786.86,-1617.8 780.86,-1623.8 774.86,-1623.8"/>
<text xml:space="preserve" text-anchor="middle" x="711.21" y="-1607.2" font-family="Segoe UI" font-size="14.00" fill="#e2e8f0">KeyboardShortcuts</text>
<text xml:space="preserve" text-anchor="middle" x="711.21" y="-1590.4" font-family="Segoe UI" font-size="14.00" fill="#e2e8f0">KeyboardShortcutsPage</text>
</g>
<!-- navigation&#45;&gt;hidden_KeyboardShortcuts -->
<g id="edge53" class="edge">
<title>navigation&#45;&gt;hidden_KeyboardShortcuts</title>
<path fill="none" stroke="#fb923c" stroke-width="1.3" stroke-dasharray="5,2" d="M435.53,-1964C440.93,-1903.34 465.13,-1726.52 567.33,-1637 583.55,-1622.8 604.64,-1614.26 625.61,-1609.21"/>
<polygon fill="#fb923c" stroke="#fb923c" stroke-width="1.3" points="626.08,-1611.97 633.3,-1607.54 624.89,-1606.5 626.08,-1611.97"/>
</g>
<!-- hidden_SetupWizard -->
<g id="node56" class="node">
<title>hidden_SetupWizard</title>
<path fill="#431407" stroke="#fb923c" d="M757.35,-1556.8C757.35,-1556.8 665.06,-1556.8 665.06,-1556.8 659.06,-1556.8 653.06,-1550.8 653.06,-1544.8 653.06,-1544.8 653.06,-1527.2 653.06,-1527.2 653.06,-1521.2 659.06,-1515.2 665.06,-1515.2 665.06,-1515.2 757.35,-1515.2 757.35,-1515.2 763.35,-1515.2 769.35,-1521.2 769.35,-1527.2 769.35,-1527.2 769.35,-1544.8 769.35,-1544.8 769.35,-1550.8 763.35,-1556.8 757.35,-1556.8"/>
<text xml:space="preserve" text-anchor="middle" x="711.21" y="-1540.2" font-family="Segoe UI" font-size="14.00" fill="#e2e8f0">SetupWizard</text>
<text xml:space="preserve" text-anchor="middle" x="711.21" y="-1523.4" font-family="Segoe UI" font-size="14.00" fill="#e2e8f0">SetupWizardPage</text>
</g>
<!-- navigation&#45;&gt;hidden_SetupWizard -->
<g id="edge54" class="edge">
<title>navigation&#45;&gt;hidden_SetupWizard</title>
<path fill="none" stroke="#fb923c" stroke-width="1.3" stroke-dasharray="5,2" d="M433.86,-1963.83C434.44,-1895.24 446.12,-1677.39 567.33,-1570 588.07,-1551.63 616.94,-1542.73 643.31,-1538.57"/>
<polygon fill="#fb923c" stroke="#fb923c" stroke-width="1.3" points="643.4,-1541.38 650.94,-1537.51 642.63,-1535.83 643.4,-1541.38"/>
</g>
<!-- hidden_ActivityLog -->
<g id="node57" class="node">
<title>hidden_ActivityLog</title>
<path fill="#431407" stroke="#fb923c" d="M755.03,-1489.8C755.03,-1489.8 667.38,-1489.8 667.38,-1489.8 661.38,-1489.8 655.38,-1483.8 655.38,-1477.8 655.38,-1477.8 655.38,-1460.2 655.38,-1460.2 655.38,-1454.2 661.38,-1448.2 667.38,-1448.2 667.38,-1448.2 755.03,-1448.2 755.03,-1448.2 761.03,-1448.2 767.03,-1454.2 767.03,-1460.2 767.03,-1460.2 767.03,-1477.8 767.03,-1477.8 767.03,-1483.8 761.03,-1489.8 755.03,-1489.8"/>
<text xml:space="preserve" text-anchor="middle" x="711.21" y="-1473.2" font-family="Segoe UI" font-size="14.00" fill="#e2e8f0">ActivityLog</text>
<text xml:space="preserve" text-anchor="middle" x="711.21" y="-1456.4" font-family="Segoe UI" font-size="14.00" fill="#e2e8f0">ActivityLogPage</text>
</g>
<!-- navigation&#45;&gt;hidden_ActivityLog -->
<g id="edge55" class="edge">
<title>navigation&#45;&gt;hidden_ActivityLog</title>
<path fill="none" stroke="#fb923c" stroke-width="1.3" stroke-dasharray="5,2" d="M436.87,-1963.72C448.49,-1878.9 495.61,-1566.55 567.33,-1503 588.58,-1484.18 618.37,-1475.29 645.25,-1471.27"/>
<polygon fill="#fb923c" stroke="#fb923c" stroke-width="1.3" points="645.48,-1474.06 653.05,-1470.25 644.75,-1468.51 645.48,-1474.06"/>
</g>
<!-- page_Dashboard -->
<g id="node5" class="node">
<title>page_Dashboard</title>
<path fill="#1e293b" stroke="#475569" d="M790.21,-997.8C790.21,-997.8 632.2,-997.8 632.2,-997.8 626.2,-997.8 620.2,-991.8 620.2,-985.8 620.2,-985.8 620.2,-968.2 620.2,-968.2 620.2,-962.2 626.2,-956.2 632.2,-956.2 632.2,-956.2 790.21,-956.2 790.21,-956.2 796.21,-956.2 802.21,-962.2 802.21,-968.2 802.21,-968.2 802.21,-985.8 802.21,-985.8 802.21,-991.8 796.21,-997.8 790.21,-997.8"/>
<text xml:space="preserve" text-anchor="middle" x="711.21" y="-981.2" font-family="Segoe UI" font-size="14.00" fill="#e2e8f0">Dashboard</text>
<text xml:space="preserve" text-anchor="middle" x="711.21" y="-964.4" font-family="Segoe UI" font-size="14.00" fill="#e2e8f0">Dashboard → DashboardPage</text>
</g>
<!-- workspace_1&#45;&gt;page_Dashboard -->
<g id="edge3" class="edge">
<title>workspace_1&#45;&gt;page_Dashboard</title>
<path fill="none" stroke="#94a3b8" stroke-width="1.3" d="M480.3,-1032.44C505.93,-1026.06 538.38,-1018.03 567.33,-1011 581.36,-1007.59 596.16,-1004.03 610.72,-1000.55"/>
<polygon fill="#94a3b8" stroke="#94a3b8" stroke-width="1.3" points="611.2,-1003.32 618.33,-998.73 609.9,-997.87 611.2,-1003.32"/>
</g>
<!-- page_LiveData -->
<g id="node6" class="node">
<title>page_LiveData</title>
<path fill="#1e293b" stroke="#475569" d="M802.25,-1064.8C802.25,-1064.8 620.17,-1064.8 620.17,-1064.8 614.17,-1064.8 608.17,-1058.8 608.17,-1052.8 608.17,-1052.8 608.17,-1035.2 608.17,-1035.2 608.17,-1029.2 614.17,-1023.2 620.17,-1023.2 620.17,-1023.2 802.25,-1023.2 802.25,-1023.2 808.25,-1023.2 814.25,-1029.2 814.25,-1035.2 814.25,-1035.2 814.25,-1052.8 814.25,-1052.8 814.25,-1058.8 808.25,-1064.8 802.25,-1064.8"/>
<text xml:space="preserve" text-anchor="middle" x="711.21" y="-1048.2" font-family="Segoe UI" font-size="14.00" fill="#e2e8f0">Live Data</text>
<text xml:space="preserve" text-anchor="middle" x="711.21" y="-1031.4" font-family="Segoe UI" font-size="14.00" fill="#e2e8f0">LiveData → LiveDataViewerPage</text>
</g>
<!-- workspace_1&#45;&gt;page_LiveData -->
<g id="edge4" class="edge">
<title>workspace_1&#45;&gt;page_LiveData</title>
<path fill="none" stroke="#94a3b8" stroke-width="1.3" d="M480.29,-1044C512.48,-1044 556.87,-1044 598.06,-1044"/>
<polygon fill="#94a3b8" stroke="#94a3b8" stroke-width="1.3" points="597.93,-1046.8 605.93,-1044 597.93,-1041.2 597.93,-1046.8"/>
</g>
<!-- page_Charts -->
<g id="node7" class="node">
<title>page_Charts</title>
<path fill="#1e293b" stroke="#475569" d="M772.34,-1131.8C772.34,-1131.8 650.08,-1131.8 650.08,-1131.8 644.08,-1131.8 638.08,-1125.8 638.08,-1119.8 638.08,-1119.8 638.08,-1102.2 638.08,-1102.2 638.08,-1096.2 644.08,-1090.2 650.08,-1090.2 650.08,-1090.2 772.34,-1090.2 772.34,-1090.2 778.34,-1090.2 784.34,-1096.2 784.34,-1102.2 784.34,-1102.2 784.34,-1119.8 784.34,-1119.8 784.34,-1125.8 778.34,-1131.8 772.34,-1131.8"/>
<text xml:space="preserve" text-anchor="middle" x="711.21" y="-1115.2" font-family="Segoe UI" font-size="14.00" fill="#e2e8f0">Charts</text>
<text xml:space="preserve" text-anchor="middle" x="711.21" y="-1098.4" font-family="Segoe UI" font-size="14.00" fill="#e2e8f0">Charts → ChartingPage</text>
</g>
<!-- workspace_1&#45;&gt;page_Charts -->
<g id="edge5" class="edge">
<title>workspace_1&#45;&gt;page_Charts</title>
<path fill="none" stroke="#94a3b8" stroke-width="1.3" d="M480.3,-1055.56C505.93,-1061.94 538.38,-1069.97 567.33,-1077 587.03,-1081.78 608.27,-1086.87 628.19,-1091.62"/>
<polygon fill="#94a3b8" stroke="#94a3b8" stroke-width="1.3" points="627.51,-1094.34 635.94,-1093.46 628.81,-1088.89 627.51,-1094.34"/>
</g>
<!-- page_Watchlist -->
<g id="node8" class="node">
<title>page_Watchlist</title>
<path fill="#1e293b" stroke="#475569" d="M783.21,-1198.8C783.21,-1198.8 639.2,-1198.8 639.2,-1198.8 633.2,-1198.8 627.2,-1192.8 627.2,-1186.8 627.2,-1186.8 627.2,-1169.2 627.2,-1169.2 627.2,-1163.2 633.2,-1157.2 639.2,-1157.2 639.2,-1157.2 783.21,-1157.2 783.21,-1157.2 789.21,-1157.2 795.21,-1163.2 795.21,-1169.2 795.21,-1169.2 795.21,-1186.8 795.21,-1186.8 795.21,-1192.8 789.21,-1198.8 783.21,-1198.8"/>
<text xml:space="preserve" text-anchor="middle" x="711.21" y="-1182.2" font-family="Segoe UI" font-size="14.00" fill="#e2e8f0">Watchlist</text>
<text xml:space="preserve" text-anchor="middle" x="711.21" y="-1165.4" font-family="Segoe UI" font-size="14.00" fill="#e2e8f0">Watchlist → WatchlistPage</text>
</g>
<!-- workspace_1&#45;&gt;page_Watchlist -->
<g id="edge6" class="edge">
<title>workspace_1&#45;&gt;page_Watchlist</title>
<path fill="none" stroke="#94a3b8" stroke-width="1.3" d="M456.23,-1065.24C481.25,-1088.05 524.12,-1123.73 567.33,-1144 583.01,-1151.36 600.43,-1157.2 617.56,-1161.82"/>
<polygon fill="#94a3b8" stroke="#94a3b8" stroke-width="1.3" points="616.68,-1164.49 625.12,-1163.77 618.08,-1159.06 616.68,-1164.49"/>
</g>
<!-- page_Provider -->
<g id="node10" class="node">
<title>page_Provider</title>
<path fill="#1e293b" stroke="#475569" d="M777.78,-57.8C777.78,-57.8 644.64,-57.8 644.64,-57.8 638.64,-57.8 632.64,-51.8 632.64,-45.8 632.64,-45.8 632.64,-28.2 632.64,-28.2 632.64,-22.2 638.64,-16.2 644.64,-16.2 644.64,-16.2 777.78,-16.2 777.78,-16.2 783.78,-16.2 789.78,-22.2 789.78,-28.2 789.78,-28.2 789.78,-45.8 789.78,-45.8 789.78,-51.8 783.78,-57.8 777.78,-57.8"/>
<text xml:space="preserve" text-anchor="middle" x="711.21" y="-41.2" font-family="Segoe UI" font-size="14.00" fill="#e2e8f0">Provider</text>
<text xml:space="preserve" text-anchor="middle" x="711.21" y="-24.4" font-family="Segoe UI" font-size="14.00" fill="#e2e8f0">Provider → ProviderPage</text>
</g>
<!-- workspace_2&#45;&gt;page_Provider -->
<g id="edge8" class="edge">
<title>workspace_2&#45;&gt;page_Provider</title>
<path fill="none" stroke="#94a3b8" stroke-width="1.3" d="M444.82,-216.82C464.18,-180.91 508.45,-108.36 567.33,-71 583.98,-60.43 603.61,-53.15 622.9,-48.13"/>
<polygon fill="#94a3b8" stroke="#94a3b8" stroke-width="1.3" points="623.31,-50.91 630.42,-46.3 621.99,-45.47 623.31,-50.91"/>
</g>
<!-- page_Symbols -->
<g id="node11" class="node">
<title>page_Symbols</title>
<path fill="#1e293b" stroke="#475569" d="M778.58,-124.8C778.58,-124.8 643.84,-124.8 643.84,-124.8 637.84,-124.8 631.84,-118.8 631.84,-112.8 631.84,-112.8 631.84,-95.2 631.84,-95.2 631.84,-89.2 637.84,-83.2 643.84,-83.2 643.84,-83.2 778.58,-83.2 778.58,-83.2 784.58,-83.2 790.58,-89.2 790.58,-95.2 790.58,-95.2 790.58,-112.8 790.58,-112.8 790.58,-118.8 784.58,-124.8 778.58,-124.8"/>
<text xml:space="preserve" text-anchor="middle" x="711.21" y="-108.2" font-family="Segoe UI" font-size="14.00" fill="#e2e8f0">Symbols</text>
<text xml:space="preserve" text-anchor="middle" x="711.21" y="-91.4" font-family="Segoe UI" font-size="14.00" fill="#e2e8f0">Symbols → SymbolsPage</text>
</g>
<!-- workspace_2&#45;&gt;page_Symbols -->
<g id="edge9" class="edge">
<title>workspace_2&#45;&gt;page_Symbols</title>
<path fill="none" stroke="#94a3b8" stroke-width="1.3" d="M445.6,-217.13C461.15,-191.2 491.43,-147.84 530.33,-127 558,-112.18 591.41,-105.41 621.88,-102.68"/>
<polygon fill="#94a3b8" stroke="#94a3b8" stroke-width="1.3" points="621.93,-105.48 629.7,-102.08 621.51,-99.9 621.93,-105.48"/>
</g>
<!-- page_Backfill -->
<g id="node12" class="node">
<title>page_Backfill</title>
<path fill="#1e293b" stroke="#475569" d="M774.66,-191.8C774.66,-191.8 647.75,-191.8 647.75,-191.8 641.75,-191.8 635.75,-185.8 635.75,-179.8 635.75,-179.8 635.75,-162.2 635.75,-162.2 635.75,-156.2 641.75,-150.2 647.75,-150.2 647.75,-150.2 774.66,-150.2 774.66,-150.2 780.66,-150.2 786.66,-156.2 786.66,-162.2 786.66,-162.2 786.66,-179.8 786.66,-179.8 786.66,-185.8 780.66,-191.8 774.66,-191.8"/>
<text xml:space="preserve" text-anchor="middle" x="711.21" y="-175.2" font-family="Segoe UI" font-size="14.00" fill="#e2e8f0">Backfill</text>
<text xml:space="preserve" text-anchor="middle" x="711.21" y="-158.4" font-family="Segoe UI" font-size="14.00" fill="#e2e8f0">Backfill → BackfillPage</text>
</g>
<!-- workspace_2&#45;&gt;page_Backfill -->
<g id="edge10" class="edge">
<title>workspace_2&#45;&gt;page_Backfill</title>
<path fill="none" stroke="#94a3b8" stroke-width="1.3" d="M445.78,-217.04C461.32,-191.64 491.39,-150.13 530.33,-133 535.08,-130.91 581.39,-140.74 625.83,-150.93"/>
<polygon fill="#94a3b8" stroke="#94a3b8" stroke-width="1.3" points="624.93,-153.59 633.35,-152.66 626.18,-148.14 624.93,-153.59"/>
</g>
<!-- page_Options -->
<g id="node13" class="node">
<title>page_Options</title>
<path fill="#1e293b" stroke="#475569" d="M773.9,-258.8C773.9,-258.8 648.51,-258.8 648.51,-258.8 642.51,-258.8 636.51,-252.8 636.51,-246.8 636.51,-246.8 636.51,-229.2 636.51,-229.2 636.51,-223.2 642.51,-217.2 648.51,-217.2 648.51,-217.2 773.9,-217.2 773.9,-217.2 779.9,-217.2 785.9,-223.2 785.9,-229.2 785.9,-229.2 785.9,-246.8 785.9,-246.8 785.9,-252.8 779.9,-258.8 773.9,-258.8"/>
<text xml:space="preserve" text-anchor="middle" x="711.21" y="-242.2" font-family="Segoe UI" font-size="14.00" fill="#e2e8f0">Options</text>
<text xml:space="preserve" text-anchor="middle" x="711.21" y="-225.4" font-family="Segoe UI" font-size="14.00" fill="#e2e8f0">Options → OptionsPage</text>
</g>
<!-- workspace_2&#45;&gt;page_Options -->
<g id="edge11" class="edge">
<title>workspace_2&#45;&gt;page_Options</title>
<path fill="none" stroke="#94a3b8" stroke-width="1.3" d="M446.93,-216.93C463.01,-192.86 493.01,-154.77 530.33,-139 560.95,-126.06 540.86,-183.9 567.33,-204 584.41,-216.97 605.7,-225.08 626.57,-230.14"/>
<polygon fill="#94a3b8" stroke="#94a3b8" stroke-width="1.3" points="625.79,-232.83 634.2,-231.83 627,-227.36 625.79,-232.83"/>
</g>
<!-- page_Storage -->
<g id="node15" class="node">
<title>page_Storage</title>
<path fill="#1e293b" stroke="#475569" d="M772.33,-773.8C772.33,-773.8 650.08,-773.8 650.08,-773.8 644.08,-773.8 638.08,-767.8 638.08,-761.8 638.08,-761.8 638.08,-744.2 638.08,-744.2 638.08,-738.2 644.08,-732.2 650.08,-732.2 650.08,-732.2 772.33,-732.2 772.33,-732.2 778.33,-732.2 784.33,-738.2 784.33,-744.2 784.33,-744.2 784.33,-761.8 784.33,-761.8 784.33,-767.8 778.33,-773.8 772.33,-773.8"/>
<text xml:space="preserve" text-anchor="middle" x="711.21" y="-757.2" font-family="Segoe UI" font-size="14.00" fill="#e2e8f0">Storage</text>
<text xml:space="preserve" text-anchor="middle" x="711.21" y="-740.4" font-family="Segoe UI" font-size="14.00" fill="#e2e8f0">Storage → StoragePage</text>
</g>
<!-- workspace_3&#45;&gt;page_Storage -->
<g id="edge13" class="edge">
<title>workspace_3&#45;&gt;page_Storage</title>
<path fill="none" stroke="#94a3b8" stroke-width="1.3" d="M456.23,-865.76C481.25,-842.95 524.12,-807.27 567.33,-787 586.26,-778.12 607.73,-771.44 628.16,-766.46"/>
<polygon fill="#94a3b8" stroke="#94a3b8" stroke-width="1.3" points="628.7,-769.21 635.86,-764.67 627.43,-763.75 628.7,-769.21"/>
</g>
<!-- page_DataExport -->
<g id="node16" class="node">
<title>page_DataExport</title>
<path fill="#1e293b" stroke="#475569" d="M794.09,-840.8C794.09,-840.8 628.32,-840.8 628.32,-840.8 622.32,-840.8 616.32,-834.8 616.32,-828.8 616.32,-828.8 616.32,-811.2 616.32,-811.2 616.32,-805.2 622.32,-799.2 628.32,-799.2 628.32,-799.2 794.09,-799.2 794.09,-799.2 800.09,-799.2 806.09,-805.2 806.09,-811.2 806.09,-811.2 806.09,-828.8 806.09,-828.8 806.09,-834.8 800.09,-840.8 794.09,-840.8"/>
<text xml:space="preserve" text-anchor="middle" x="711.21" y="-824.2" font-family="Segoe UI" font-size="14.00" fill="#e2e8f0">Export</text>
<text xml:space="preserve" text-anchor="middle" x="711.21" y="-807.4" font-family="Segoe UI" font-size="14.00" fill="#e2e8f0">DataExport → DataExportPage</text>
</g>
<!-- workspace_3&#45;&gt;page_DataExport -->
<g id="edge14" class="edge">
<title>workspace_3&#45;&gt;page_DataExport</title>
<path fill="none" stroke="#94a3b8" stroke-width="1.3" d="M480.3,-875.44C505.93,-869.06 538.38,-861.03 567.33,-854 581.36,-850.59 596.16,-847.03 610.72,-843.55"/>
<polygon fill="#94a3b8" stroke="#94a3b8" stroke-width="1.3" points="611.2,-846.32 618.33,-841.73 609.9,-840.87 611.2,-846.32"/>
</g>
<!-- page_PackageManager -->
<g id="node17" class="node">
<title>page_PackageManager</title>
<path fill="#1e293b" stroke="#475569" d="M825.96,-907.8C825.96,-907.8 596.46,-907.8 596.46,-907.8 590.46,-907.8 584.46,-901.8 584.46,-895.8 584.46,-895.8 584.46,-878.2 584.46,-878.2 584.46,-872.2 590.46,-866.2 596.46,-866.2 596.46,-866.2 825.96,-866.2 825.96,-866.2 831.96,-866.2 837.96,-872.2 837.96,-878.2 837.96,-878.2 837.96,-895.8 837.96,-895.8 837.96,-901.8 831.96,-907.8 825.96,-907.8"/>
<text xml:space="preserve" text-anchor="middle" x="711.21" y="-891.2" font-family="Segoe UI" font-size="14.00" fill="#e2e8f0">Packages</text>
<text xml:space="preserve" text-anchor="middle" x="711.21" y="-874.4" font-family="Segoe UI" font-size="14.00" fill="#e2e8f0">PackageManager → PackageManagerPage</text>
</g>
<!-- workspace_3&#45;&gt;page_PackageManager -->
<g id="edge15" class="edge">
<title>workspace_3&#45;&gt;page_PackageManager</title>
<path fill="none" stroke="#94a3b8" stroke-width="1.3" d="M480.29,-887C506.39,-887 540.51,-887 574.44,-887"/>
<polygon fill="#94a3b8" stroke="#94a3b8" stroke-width="1.3" points="574.03,-889.8 582.03,-887 574.03,-884.2 574.03,-889.8"/>
</g>
<!-- page_DataQuality -->
<g id="node19" class="node">
<title>page_DataQuality</title>
<path fill="#1e293b" stroke="#475569" d="M797.98,-549.8C797.98,-549.8 624.43,-549.8 624.43,-549.8 618.43,-549.8 612.43,-543.8 612.43,-537.8 612.43,-537.8 612.43,-520.2 612.43,-520.2 612.43,-514.2 618.43,-508.2 624.43,-508.2 624.43,-508.2 797.98,-508.2 797.98,-508.2 803.98,-508.2 809.98,-514.2 809.98,-520.2 809.98,-520.2 809.98,-537.8 809.98,-537.8 809.98,-543.8 803.98,-549.8 797.98,-549.8"/>
<text xml:space="preserve" text-anchor="middle" x="711.21" y="-533.2" font-family="Segoe UI" font-size="14.00" fill="#e2e8f0">Data Quality</text>
<text xml:space="preserve" text-anchor="middle" x="711.21" y="-516.4" font-family="Segoe UI" font-size="14.00" fill="#e2e8f0">DataQuality → DataQualityPage</text>
</g>
<!-- workspace_4&#45;&gt;page_DataQuality -->
<g id="edge17" class="edge">
<title>workspace_4&#45;&gt;page_DataQuality</title>
<path fill="none" stroke="#94a3b8" stroke-width="1.3" d="M480.29,-534C513.55,-533.27 559.82,-532.27 602.14,-531.35"/>
<polygon fill="#94a3b8" stroke="#94a3b8" stroke-width="1.3" points="602.05,-534.15 609.98,-531.18 601.93,-528.55 602.05,-534.15"/>
</g>
<!-- page_ProviderHealth -->
<g id="node20" class="node">
<title>page_ProviderHealth</title>
<path fill="#1e293b" stroke="#475569" d="M815.09,-616.8C815.09,-616.8 607.32,-616.8 607.32,-616.8 601.32,-616.8 595.32,-610.8 595.32,-604.8 595.32,-604.8 595.32,-587.2 595.32,-587.2 595.32,-581.2 601.32,-575.2 607.32,-575.2 607.32,-575.2 815.09,-575.2 815.09,-575.2 821.09,-575.2 827.09,-581.2 827.09,-587.2 827.09,-587.2 827.09,-604.8 827.09,-604.8 827.09,-610.8 821.09,-616.8 815.09,-616.8"/>
<text xml:space="preserve" text-anchor="middle" x="711.21" y="-600.2" font-family="Segoe UI" font-size="14.00" fill="#e2e8f0">Provider Health</text>
<text xml:space="preserve" text-anchor="middle" x="711.21" y="-583.4" font-family="Segoe UI" font-size="14.00" fill="#e2e8f0">ProviderHealth → ProviderHealthPage</text>
</g>
<!-- workspace_4&#45;&gt;page_ProviderHealth -->
<g id="edge18" class="edge">
<title>workspace_4&#45;&gt;page_ProviderHealth</title>
<path fill="none" stroke="#94a3b8" stroke-width="1.3" d="M480.41,-532.74C496.8,-533.15 515.18,-535 531.33,-540 549.25,-545.54 550,-554.85 567.33,-562 576.08,-565.61 585.3,-568.89 594.67,-571.85"/>
<polygon fill="#94a3b8" stroke="#94a3b8" stroke-width="1.3" points="593.72,-574.49 602.19,-574.14 595.35,-569.13 593.72,-574.49"/>
</g>
<!-- page_Diagnostics -->
<g id="node21" class="node">
<title>page_Diagnostics</title>
<path fill="#1e293b" stroke="#475569" d="M795.67,-683.8C795.67,-683.8 626.75,-683.8 626.75,-683.8 620.75,-683.8 614.75,-677.8 614.75,-671.8 614.75,-671.8 614.75,-654.2 614.75,-654.2 614.75,-648.2 620.75,-642.2 626.75,-642.2 626.75,-642.2 795.67,-642.2 795.67,-642.2 801.67,-642.2 807.67,-648.2 807.67,-654.2 807.67,-654.2 807.67,-671.8 807.67,-671.8 807.67,-677.8 801.67,-683.8 795.67,-683.8"/>
<text xml:space="preserve" text-anchor="middle" x="711.21" y="-667.2" font-family="Segoe UI" font-size="14.00" fill="#e2e8f0">Diagnostics</text>
<text xml:space="preserve" text-anchor="middle" x="711.21" y="-650.4" font-family="Segoe UI" font-size="14.00" fill="#e2e8f0">Diagnostics → DiagnosticsPage</text>
</g>
<!-- workspace_4&#45;&gt;page_Diagnostics -->
<g id="edge19" class="edge">
<title>workspace_4&#45;&gt;page_Diagnostics</title>
<path fill="none" stroke="#94a3b8" stroke-width="1.3" d="M457.86,-556.08C483.26,-577.5 525.53,-610.13 567.33,-629 579.21,-634.36 592.03,-638.93 604.96,-642.82"/>
<polygon fill="#94a3b8" stroke="#94a3b8" stroke-width="1.3" points="604.02,-645.47 612.49,-644.99 605.57,-640.09 604.02,-645.47"/>
</g>
<!-- page_Settings -->
<g id="node23" class="node">
<title>page_Settings</title>
<path fill="#1e293b" stroke="#475569" d="M774.68,-348.8C774.68,-348.8 647.73,-348.8 647.73,-348.8 641.73,-348.8 635.73,-342.8 635.73,-336.8 635.73,-336.8 635.73,-319.2 635.73,-319.2 635.73,-313.2 641.73,-307.2 647.73,-307.2 647.73,-307.2 774.68,-307.2 774.68,-307.2 780.68,-307.2 786.68,-313.2 786.68,-319.2 786.68,-319.2 786.68,-336.8 786.68,-336.8 786.68,-342.8 780.68,-348.8 774.68,-348.8"/>
<text xml:space="preserve" text-anchor="middle" x="711.21" y="-332.2" font-family="Segoe UI" font-size="14.00" fill="#e2e8f0">Settings</text>
<text xml:space="preserve" text-anchor="middle" x="711.21" y="-315.4" font-family="Segoe UI" font-size="14.00" fill="#e2e8f0">Settings → SettingsPage</text>
</g>
<!-- workspace_5&#45;&gt;page_Settings -->
<g id="edge21" class="edge">
<title>workspace_5&#45;&gt;page_Settings</title>
<path fill="none" stroke="#94a3b8" stroke-width="1.3" d="M456.23,-440.76C481.25,-417.95 524.12,-382.27 567.33,-362 585.58,-353.44 606.19,-346.92 625.95,-342"/>
<polygon fill="#94a3b8" stroke="#94a3b8" stroke-width="1.3" points="626.52,-344.75 633.66,-340.17 625.23,-339.3 626.52,-344.75"/>
</g>
<!-- page_AddProviderWizard -->
<g id="node24" class="node">
<title>page_AddProviderWizard</title>
<path fill="#1e293b" stroke="#475569" d="M843.08,-415.8C843.08,-415.8 579.33,-415.8 579.33,-415.8 573.33,-415.8 567.33,-409.8 567.33,-403.8 567.33,-403.8 567.33,-386.2 567.33,-386.2 567.33,-380.2 573.33,-374.2 579.33,-374.2 579.33,-374.2 843.08,-374.2 843.08,-374.2 849.08,-374.2 855.08,-380.2 855.08,-386.2 855.08,-386.2 855.08,-403.8 855.08,-403.8 855.08,-409.8 849.08,-415.8 843.08,-415.8"/>
<text xml:space="preserve" text-anchor="middle" x="711.21" y="-399.2" font-family="Segoe UI" font-size="14.00" fill="#e2e8f0">Add Provider</text>
<text xml:space="preserve" text-anchor="middle" x="711.21" y="-382.4" font-family="Segoe UI" font-size="14.00" fill="#e2e8f0">AddProviderWizard → AddProviderWizardPage</text>
</g>
<!-- workspace_5&#45;&gt;page_AddProviderWizard -->
<g id="edge22" class="edge">
<title>workspace_5&#45;&gt;page_AddProviderWizard</title>
<path fill="none" stroke="#94a3b8" stroke-width="1.3" d="M480.3,-450.44C505.93,-444.06 538.38,-436.03 567.33,-429 581.36,-425.59 596.16,-422.03 610.72,-418.55"/>
<polygon fill="#94a3b8" stroke="#94a3b8" stroke-width="1.3" points="611.2,-421.32 618.33,-416.73 609.9,-415.87 611.2,-421.32"/>
</g>
<!-- page_AdminMaintenance -->
<g id="node25" class="node">
<title>page_AdminMaintenance</title>
<path fill="#1e293b" stroke="#475569" d="M840.75,-482.8C840.75,-482.8 581.66,-482.8 581.66,-482.8 575.66,-482.8 569.66,-476.8 569.66,-470.8 569.66,-470.8 569.66,-453.2 569.66,-453.2 569.66,-447.2 575.66,-441.2 581.66,-441.2 581.66,-441.2 840.75,-441.2 840.75,-441.2 846.75,-441.2 852.75,-447.2 852.75,-453.2 852.75,-453.2 852.75,-470.8 852.75,-470.8 852.75,-476.8 846.75,-482.8 840.75,-482.8"/>
<text xml:space="preserve" text-anchor="middle" x="711.21" y="-466.2" font-family="Segoe UI" font-size="14.00" fill="#e2e8f0">Admin</text>
<text xml:space="preserve" text-anchor="middle" x="711.21" y="-449.4" font-family="Segoe UI" font-size="14.00" fill="#e2e8f0">AdminMaintenance → AdminMaintenancePage</text>
</g>
<!-- workspace_5&#45;&gt;page_AdminMaintenance -->
<g id="edge23" class="edge">
<title>workspace_5&#45;&gt;page_AdminMaintenance</title>
<path fill="none" stroke="#94a3b8" stroke-width="1.3" d="M480.29,-462C502.56,-462 530.68,-462 559.54,-462"/>
<polygon fill="#94a3b8" stroke="#94a3b8" stroke-width="1.3" points="559.38,-464.8 567.38,-462 559.38,-459.2 559.38,-464.8"/>
</g>
</g>
</svg>
