<?xml version="1.0" encoding="UTF-8" standalone="no"?>
<!DOCTYPE svg PUBLIC "-//W3C//DTD SVG 1.1//EN"
 "http://www.w3.org/Graphics/SVG/1.1/DTD/svg11.dtd">
<!-- Generated by graphviz version 14.1.1 (20251213.1925)
 -->
<!-- Title: UiNavigationMap Pages: 1 -->
<svg width="931pt" height="3528pt"
 viewBox="0.00 0.00 931.00 3528.00" xmlns="http://www.w3.org/2000/svg" xmlns:xlink="http://www.w3.org/1999/xlink">
<g id="graph0" class="graph" transform="scale(1 1) rotate(0) translate(28.8 3498.8)">
<title>UiNavigationMap</title>
<polygon fill="#0f172a" stroke="none" points="-28.8,28.8 -28.8,-3498.8 902.22,-3498.8 902.22,28.8 -28.8,28.8"/>
<text xml:space="preserve" text-anchor="middle" x="436.71" y="-3448" font-family="Segoe UI" font-size="20.00">Meridian WPF UI navigation map</text>
<text xml:space="preserve" text-anchor="middle" x="436.71" y="-3424" font-family="Segoe UI" font-size="20.00">(auto&#45;generated from MainPage.xaml + NavigationService.cs)</text>
<g id="clust1" class="cluster">
<title>cluster_workspace_1</title>
<path fill="#0f172a" stroke="#334155" d="M116.03,-948C116.03,-948 812.58,-948 812.58,-948 818.58,-948 824.58,-954 824.58,-960 824.58,-960 824.58,-1227 824.58,-1227 824.58,-1233 818.58,-1239 812.58,-1239 812.58,-1239 116.03,-1239 116.03,-1239 110.03,-1239 104.03,-1233 104.03,-1227 104.03,-1227 104.03,-960 104.03,-960 104.03,-954 110.03,-948 116.03,-948"/>
<text xml:space="preserve" text-anchor="middle" x="464.31" y="-1217" font-family="Segoe UI" font-size="20.00">MONITOR workspace</text>
</g>
<g id="clust2" class="cluster">
<title>cluster_workspace_2</title>
<path fill="#0f172a" stroke="#334155" d="M392.52,-8C392.52,-8 788.92,-8 788.92,-8 794.92,-8 800.92,-14 800.92,-20 800.92,-20 800.92,-287 800.92,-287 800.92,-293 794.92,-299 788.92,-299 788.92,-299 392.52,-299 392.52,-299 386.52,-299 380.52,-293 380.52,-287 380.52,-287 380.52,-20 380.52,-20 380.52,-14 386.52,-8 392.52,-8"/>
<text xml:space="preserve" text-anchor="middle" x="590.72" y="-277" font-family="Segoe UI" font-size="20.00">COLLECT workspace</text>
</g>
<g id="clust3" class="cluster">
<title>cluster_workspace_3</title>
<path fill="#0f172a" stroke="#334155" d="M392.52,-724C392.52,-724 836.29,-724 836.29,-724 842.29,-724 848.29,-730 848.29,-736 848.29,-736 848.29,-936 848.29,-936 848.29,-942 842.29,-948 836.29,-948 836.29,-948 392.52,-948 392.52,-948 386.52,-948 380.52,-942 380.52,-936 380.52,-936 380.52,-736 380.52,-736 380.52,-730 386.52,-724 392.52,-724"/>
<text xml:space="preserve" text-anchor="middle" x="614.41" y="-926" font-family="Segoe UI" font-size="20.00">STORAGE workspace</text>
</g>
<g id="clust4" class="cluster">
<title>cluster_workspace_4</title>
<path fill="#0f172a" stroke="#334155" d="M392.52,-500C392.52,-500 825.43,-500 825.43,-500 831.43,-500 837.43,-506 837.43,-512 837.43,-512 837.43,-712 837.43,-712 837.43,-718 831.43,-724 825.43,-724 825.43,-724 392.52,-724 392.52,-724 386.52,-724 380.52,-718 380.52,-712 380.52,-712 380.52,-512 380.52,-512 380.52,-506 386.52,-500 392.52,-500"/>
<text xml:space="preserve" text-anchor="middle" x="608.98" y="-702" font-family="Segoe UI" font-size="20.00">QUALITY workspace</text>
</g>
<g id="clust5" class="cluster">
<title>cluster_workspace_5</title>
<path fill="#0f172a" stroke="#334155" d="M392.52,-433C392.52,-433 853.42,-433 853.42,-433 859.42,-433 865.42,-439 865.42,-445 865.42,-445 865.42,-511 865.42,-511 865.42,-517 859.42,-523 853.42,-523 853.42,-523 392.52,-523 392.52,-523 386.52,-523 380.52,-517 380.52,-511 380.52,-511 380.52,-445 380.52,-445 380.52,-439 386.52,-433 392.52,-433"/>
<text xml:space="preserve" text-anchor="middle" x="622.97" y="-501" font-family="Segoe UI" font-size="20.00">SETTINGS workspace</text>
</g>
<g id="clust6" class="cluster">
<title>cluster_hidden_pages</title>
<path fill="#0f172a" stroke="#7c2d12" stroke-dasharray="5,2" d="M447.4,-1239C447.4,-1239 795.3,-1239 795.3,-1239 801.3,-1239 807.3,-1245 807.3,-1251 807.3,-1251 807.3,-3394 807.3,-3394 807.3,-3400 801.3,-3406 795.3,-3406 795.3,-3406 447.4,-3406 447.4,-3406 441.4,-3406 435.4,-3400 435.4,-3394 435.4,-3394 435.4,-1251 435.4,-1251 435.4,-1245 441.4,-1239 447.4,-1239"/>
<text xml:space="preserve" text-anchor="middle" x="621.35" y="-3384" font-family="Segoe UI" font-size="20.00">Registered but not in sidebar shell</text>
</g>
<!-- generated -->
<g id="node1" class="node">
<title>generated</title>
<polygon fill="#1d4ed8" stroke="#60a5fa" points="202.06,-831.2 0,-831.2 0,-772.8 208.06,-772.8 208.06,-825.2 202.06,-831.2"/>
<polyline fill="none" stroke="#60a5fa" points="202.06,-831.2 202.06,-825.2"/>
<polyline fill="none" stroke="#60a5fa" points="208.06,-825.2 202.06,-825.2"/>
<text xml:space="preserve" text-anchor="middle" x="104.03" y="-814.6" font-family="Segoe UI" font-size="14.00" fill="#e2e8f0">Source fingerprint: eb39bb46a58b</text>
<text xml:space="preserve" text-anchor="middle" x="104.03" y="-797.8" font-family="Segoe UI" font-size="14.00" fill="#e2e8f0">Shell entries: 17</text>
<text xml:space="preserve" text-anchor="middle" x="104.03" y="-781" font-family="Segoe UI" font-size="14.00" fill="#e2e8f0">Registered pages: 49</text>
</g>
<!-- shell -->
<g id="node2" class="node">
<title>shell</title>
<polygon fill="#0f766e" stroke="#2dd4bf" points="158.48,-897.8 49.58,-897.8 49.58,-893.8 45.58,-893.8 45.58,-889.8 49.58,-889.8 49.58,-864.2 45.58,-864.2 45.58,-860.2 49.58,-860.2 49.58,-856.2 158.48,-856.2 158.48,-897.8"/>
<polyline fill="none" stroke="#2dd4bf" points="49.58,-893.8 53.58,-893.8 53.58,-889.8 49.58,-889.8"/>
<polyline fill="none" stroke="#2dd4bf" points="49.58,-864.2 53.58,-864.2 53.58,-860.2 49.58,-860.2"/>
<text xml:space="preserve" text-anchor="middle" x="104.03" y="-881.2" font-family="Segoe UI" font-size="14.00" fill="#e2e8f0">MainPage.xaml</text>
<text xml:space="preserve" text-anchor="middle" x="104.03" y="-864.4" font-family="Segoe UI" font-size="14.00" fill="#e2e8f0">Workspace shell</text>
</g>
<!-- navigation -->
<g id="node3" class="node">
<title>navigation</title>
<polygon fill="#7c3aed" stroke="#c4b5fd" points="496.67,-2005.8 374.14,-2005.8 374.14,-2001.8 370.14,-2001.8 370.14,-1997.8 374.14,-1997.8 374.14,-1972.2 370.14,-1972.2 370.14,-1968.2 374.14,-1968.2 374.14,-1964.2 496.67,-1964.2 496.67,-2005.8"/>
<polyline fill="none" stroke="#c4b5fd" points="374.14,-2001.8 378.14,-2001.8 378.14,-1997.8 374.14,-1997.8"/>
<polyline fill="none" stroke="#c4b5fd" points="374.14,-1972.2 378.14,-1972.2 378.14,-1968.2 374.14,-1968.2"/>
<text xml:space="preserve" text-anchor="middle" x="435.4" y="-1989.2" font-family="Segoe UI" font-size="14.00" fill="#e2e8f0">NavigationService</text>
<text xml:space="preserve" text-anchor="middle" x="435.4" y="-1972.4" font-family="Segoe UI" font-size="14.00" fill="#e2e8f0">RegisterAllPages()</text>
</g>
<!-- shell&#45;&gt;navigation -->
<g id="edge1" class="edge">
<title>shell&#45;&gt;navigation</title>
<path fill="none" stroke="#38bdf8" stroke-width="1.3" d="M111.32,-898.14C151.96,-1034.85 377.39,-1793.19 425.41,-1954.73"/>
<polygon fill="#38bdf8" stroke="#38bdf8" stroke-width="1.3" points="422.66,-1955.33 427.63,-1962.2 428.03,-1953.73 422.66,-1955.33"/>
<text xml:space="preserve" text-anchor="middle" x="291.1" y="-1661.8" font-family="Segoe UI" font-size="14.00">navigate via tags</text>
</g>
<!-- workspace_1 -->
<g id="node4" class="node">
<title>workspace_1</title>
<polygon fill="#1d4ed8" stroke="#93c5fd" points="482.28,-1064.8 479.28,-1068.8 458.28,-1068.8 455.28,-1064.8 388.52,-1064.8 388.52,-1023.2 482.28,-1023.2 482.28,-1064.8"/>
<text xml:space="preserve" text-anchor="middle" x="435.4" y="-1048.2" font-family="Segoe UI" font-size="14.00" fill="#e2e8f0">MONITOR</text>
<text xml:space="preserve" text-anchor="middle" x="435.4" y="-1031.4" font-family="Segoe UI" font-size="14.00" fill="#e2e8f0">4 shell entries</text>
</g>
<!-- shell&#45;&gt;workspace_1 -->
<g id="edge2" class="edge">
<title>shell&#45;&gt;workspace_1</title>
<path fill="none" stroke="#22d3ee" stroke-width="1.3" d="M146.75,-898.15C207.09,-928.75 318.61,-985.29 383.65,-1018.27"/>
<polygon fill="#22d3ee" stroke="#22d3ee" stroke-width="1.3" points="382.35,-1020.75 390.75,-1021.87 384.88,-1015.75 382.35,-1020.75"/>
</g>
<!-- workspace_2 -->
<g id="node9" class="node">
<title>workspace_2</title>
<polygon fill="#1d4ed8" stroke="#93c5fd" points="482.28,-258.8 479.28,-262.8 458.28,-262.8 455.28,-258.8 388.52,-258.8 388.52,-217.2 482.28,-217.2 482.28,-258.8"/>
<text xml:space="preserve" text-anchor="middle" x="435.4" y="-242.2" font-family="Segoe UI" font-size="14.00" fill="#e2e8f0">COLLECT</text>
<text xml:space="preserve" text-anchor="middle" x="435.4" y="-225.4" font-family="Segoe UI" font-size="14.00" fill="#e2e8f0">4 shell entries</text>
</g>
<!-- shell&#45;&gt;workspace_2 -->
<g id="edge7" class="edge">
<title>shell&#45;&gt;workspace_2</title>
<path fill="none" stroke="#22d3ee" stroke-width="1.3" d="M158.84,-869.4C176.33,-864.6 194.67,-856.77 208.06,-844 252.68,-801.45 387.3,-385.98 424.68,-268.69"/>
<polygon fill="#22d3ee" stroke="#22d3ee" stroke-width="1.3" points="427.35,-269.56 427.1,-261.09 422.01,-267.86 427.35,-269.56"/>
</g>
<!-- workspace_3 -->
<g id="node14" class="node">
<title>workspace_3</title>
<polygon fill="#1d4ed8" stroke="#93c5fd" points="482.28,-907.8 479.28,-911.8 458.28,-911.8 455.28,-907.8 388.52,-907.8 388.52,-866.2 482.28,-866.2 482.28,-907.8"/>
<text xml:space="preserve" text-anchor="middle" x="435.4" y="-891.2" font-family="Segoe UI" font-size="14.00" fill="#e2e8f0">STORAGE</text>
<text xml:space="preserve" text-anchor="middle" x="435.4" y="-874.4" font-family="Segoe UI" font-size="14.00" fill="#e2e8f0">3 shell entries</text>
</g>
<!-- shell&#45;&gt;workspace_3 -->
<g id="edge12" class="edge">
<title>shell&#45;&gt;workspace_3</title>
<path fill="none" stroke="#22d3ee" stroke-width="1.3" d="M158.68,-878.63C219.12,-880.46 316.9,-883.43 378.32,-885.3"/>
<polygon fill="#22d3ee" stroke="#22d3ee" stroke-width="1.3" points="378.18,-888.09 386.26,-885.54 378.35,-882.5 378.18,-888.09"/>
</g>
<!-- workspace_4 -->
<g id="node18" class="node">
<title>workspace_4</title>
<polygon fill="#1d4ed8" stroke="#93c5fd" points="482.28,-555.8 479.28,-559.8 458.28,-559.8 455.28,-555.8 388.52,-555.8 388.52,-514.2 482.28,-514.2 482.28,-555.8"/>
<text xml:space="preserve" text-anchor="middle" x="435.4" y="-539.2" font-family="Segoe UI" font-size="14.00" fill="#e2e8f0">QUALITY</text>
<text xml:space="preserve" text-anchor="middle" x="435.4" y="-522.4" font-family="Segoe UI" font-size="14.00" fill="#e2e8f0">3 shell entries</text>
</g>
<!-- shell&#45;&gt;workspace_4 -->
<g id="edge16" class="edge">
<title>shell&#45;&gt;workspace_4</title>
<path fill="none" stroke="#22d3ee" stroke-width="1.3" d="M158.74,-876.26C219.12,-874.32 312.12,-867.61 338.14,-845 382.42,-806.51 356.96,-774.1 374.14,-718 390.73,-663.83 411.74,-601.24 424.07,-565.08"/>
<polygon fill="#22d3ee" stroke="#22d3ee" stroke-width="1.3" points="426.58,-566.38 426.52,-557.9 421.28,-564.57 426.58,-566.38"/>
</g>
<!-- workspace_5 -->
<g id="node22" class="node">
<title>workspace_5</title>
<polygon fill="#1d4ed8" stroke="#93c5fd" points="482.28,-482.8 479.28,-486.8 458.28,-486.8 455.28,-482.8 388.52,-482.8 388.52,-441.2 482.28,-441.2 482.28,-482.8"/>
<text xml:space="preserve" text-anchor="middle" x="435.4" y="-466.2" font-family="Segoe UI" font-size="14.00" fill="#e2e8f0">SETTINGS</text>
<text xml:space="preserve" text-anchor="middle" x="435.4" y="-449.4" font-family="Segoe UI" font-size="14.00" fill="#e2e8f0">3 shell entries</text>
</g>
<!-- shell&#45;&gt;workspace_5 -->
<g id="edge20" class="edge">
<title>shell&#45;&gt;workspace_5</title>
<path fill="none" stroke="#22d3ee" stroke-width="1.3" d="M158.93,-865.53C224.03,-851.17 326.34,-826.79 338.14,-813 430.88,-704.58 293.87,-611.96 374.14,-494 375.97,-491.31 378.11,-488.82 380.46,-486.53"/>
<polygon fill="#22d3ee" stroke="#22d3ee" stroke-width="1.3" points="382.17,-488.75 386.55,-481.5 378.6,-484.43 382.17,-488.75"/>
</g>
<!-- hidden_DataSources -->
<g id="node26" class="node">
<title>hidden_DataSources</title>
<path fill="#431407" stroke="#fb923c" d="M758.53,-1422.8C758.53,-1422.8 668.56,-1422.8 668.56,-1422.8 662.56,-1422.8 656.56,-1416.8 656.56,-1410.8 656.56,-1410.8 656.56,-1393.2 656.56,-1393.2 656.56,-1387.2 662.56,-1381.2 668.56,-1381.2 668.56,-1381.2 758.53,-1381.2 758.53,-1381.2 764.53,-1381.2 770.53,-1387.2 770.53,-1393.2 770.53,-1393.2 770.53,-1410.8 770.53,-1410.8 770.53,-1416.8 764.53,-1422.8 758.53,-1422.8"/>
<text xml:space="preserve" text-anchor="middle" x="713.54" y="-1406.2" font-family="Segoe UI" font-size="14.00" fill="#e2e8f0">DataSources</text>
<text xml:space="preserve" text-anchor="middle" x="713.54" y="-1389.4" font-family="Segoe UI" font-size="14.00" fill="#e2e8f0">DataSourcesPage</text>
</g>
<!-- navigation&#45;&gt;hidden_DataSources -->
<g id="edge24" class="edge">
<title>navigation&#45;&gt;hidden_DataSources</title>
<path fill="none" stroke="#fb923c" stroke-width="1.3" stroke-dasharray="5,2" d="M438.45,-1964C447.81,-1872.59 489.49,-1510.55 569.67,-1436 590.29,-1416.83 619.71,-1407.87 646.5,-1403.88"/>
<polygon fill="#fb923c" stroke="#fb923c" stroke-width="1.3" points="646.7,-1406.68 654.28,-1402.88 645.98,-1401.12 646.7,-1406.68"/>
</g>
<!-- hidden_DataBrowser -->
<g id="node27" class="node">
<title>hidden_DataBrowser</title>
<path fill="#431407" stroke="#fb923c" d="M760.08,-1355.8C760.08,-1355.8 667.01,-1355.8 667.01,-1355.8 661.01,-1355.8 655.01,-1349.8 655.01,-1343.8 655.01,-1343.8 655.01,-1326.2 655.01,-1326.2 655.01,-1320.2 661.01,-1314.2 667.01,-1314.2 667.01,-1314.2 760.08,-1314.2 760.08,-1314.2 766.08,-1314.2 772.08,-1320.2 772.08,-1326.2 772.08,-1326.2 772.08,-1343.8 772.08,-1343.8 772.08,-1349.8 766.08,-1355.8 760.08,-1355.8"/>
<text xml:space="preserve" text-anchor="middle" x="713.54" y="-1339.2" font-family="Segoe UI" font-size="14.00" fill="#e2e8f0">DataBrowser</text>
<text xml:space="preserve" text-anchor="middle" x="713.54" y="-1322.4" font-family="Segoe UI" font-size="14.00" fill="#e2e8f0">DataBrowserPage</text>
</g>
<!-- navigation&#45;&gt;hidden_DataBrowser -->
<g id="edge25" class="edge">
<title>navigation&#45;&gt;hidden_DataBrowser</title>
<path fill="none" stroke="#fb923c" stroke-width="1.3" stroke-dasharray="5,2" d="M437.84,-1963.79C444.94,-1865.2 479.73,-1453.04 569.67,-1369 589.91,-1350.09 618.71,-1341.1 645.15,-1337.03"/>
<polygon fill="#fb923c" stroke="#fb923c" stroke-width="1.3" points="645.26,-1339.84 652.82,-1336 644.52,-1334.29 645.26,-1339.84"/>
</g>
<!-- hidden_SymbolMapping -->
<g id="node28" class="node">
<title>hidden_SymbolMapping</title>
<path fill="#431407" stroke="#fb923c" d="M770.21,-1288.8C770.21,-1288.8 656.88,-1288.8 656.88,-1288.8 650.88,-1288.8 644.88,-1282.8 644.88,-1276.8 644.88,-1276.8 644.88,-1259.2 644.88,-1259.2 644.88,-1253.2 650.88,-1247.2 656.88,-1247.2 656.88,-1247.2 770.21,-1247.2 770.21,-1247.2 776.21,-1247.2 782.21,-1253.2 782.21,-1259.2 782.21,-1259.2 782.21,-1276.8 782.21,-1276.8 782.21,-1282.8 776.21,-1288.8 770.21,-1288.8"/>
<text xml:space="preserve" text-anchor="middle" x="713.54" y="-1272.2" font-family="Segoe UI" font-size="14.00" fill="#e2e8f0">SymbolMapping</text>
<text xml:space="preserve" text-anchor="middle" x="713.54" y="-1255.4" font-family="Segoe UI" font-size="14.00" fill="#e2e8f0">SymbolMappingPage</text>
</g>
<!-- navigation&#45;&gt;hidden_SymbolMapping -->
<g id="edge26" class="edge">
<title>navigation&#45;&gt;hidden_SymbolMapping</title>
<path fill="none" stroke="#fb923c" stroke-width="1.3" stroke-dasharray="5,2" d="M437.3,-1963.95C442.22,-1859.18 469.48,-1395.39 569.67,-1302 587.37,-1285.5 611.59,-1276.56 635.06,-1271.84"/>
<polygon fill="#fb923c" stroke="#fb923c" stroke-width="1.3" points="635.38,-1274.63 642.76,-1270.47 634.39,-1269.12 635.38,-1274.63"/>
</g>
<!-- hidden_SymbolStorage -->
<g id="node29" class="node">
<title>hidden_SymbolStorage</title>
<path fill="#431407" stroke="#fb923c" d="M766.32,-3365.8C766.32,-3365.8 660.77,-3365.8 660.77,-3365.8 654.77,-3365.8 648.77,-3359.8 648.77,-3353.8 648.77,-3353.8 648.77,-3336.2 648.77,-3336.2 648.77,-3330.2 654.77,-3324.2 660.77,-3324.2 660.77,-3324.2 766.32,-3324.2 766.32,-3324.2 772.32,-3324.2 778.32,-3330.2 778.32,-3336.2 778.32,-3336.2 778.32,-3353.8 778.32,-3353.8 778.32,-3359.8 772.32,-3365.8 766.32,-3365.8"/>
<text xml:space="preserve" text-anchor="middle" x="713.54" y="-3349.2" font-family="Segoe UI" font-size="14.00" fill="#e2e8f0">SymbolStorage</text>
<text xml:space="preserve" text-anchor="middle" x="713.54" y="-3332.4" font-family="Segoe UI" font-size="14.00" fill="#e2e8f0">SymbolStoragePage</text>
</g>
<!-- navigation&#45;&gt;hidden_SymbolStorage -->
<g id="edge27" class="edge">
<title>navigation&#45;&gt;hidden_SymbolStorage</title>
<path fill="none" stroke="#fb923c" stroke-width="1.3" stroke-dasharray="5,2" d="M437.07,-2006.13C442.37,-2168.04 479.8,-3208.25 569.67,-3311 586.94,-3330.74 613.39,-3340.11 638.87,-3344.25"/>
<polygon fill="#fb923c" stroke="#fb923c" stroke-width="1.3" points="638.3,-3347 646.61,-3345.32 639.07,-3341.45 638.3,-3347"/>
</g>
<!-- hidden_PortfolioImport -->
<g id="node30" class="node">
<title>hidden_PortfolioImport</title>
<path fill="#431407" stroke="#fb923c" d="M767.09,-3298.8C767.09,-3298.8 660,-3298.8 660,-3298.8 654,-3298.8 648,-3292.8 648,-3286.8 648,-3286.8 648,-3269.2 648,-3269.2 648,-3263.2 654,-3257.2 660,-3257.2 660,-3257.2 767.09,-3257.2 767.09,-3257.2 773.09,-3257.2 779.09,-3263.2 779.09,-3269.2 779.09,-3269.2 779.09,-3286.8 779.09,-3286.8 779.09,-3292.8 773.09,-3298.8 767.09,-3298.8"/>
<text xml:space="preserve" text-anchor="middle" x="713.54" y="-3282.2" font-family="Segoe UI" font-size="14.00" fill="#e2e8f0">PortfolioImport</text>
<text xml:space="preserve" text-anchor="middle" x="713.54" y="-3265.4" font-family="Segoe UI" font-size="14.00" fill="#e2e8f0">PortfolioImportPage</text>
</g>
<!-- navigation&#45;&gt;hidden_PortfolioImport -->
<g id="edge28" class="edge">
<title>navigation&#45;&gt;hidden_PortfolioImport</title>
<path fill="none" stroke="#fb923c" stroke-width="1.3" stroke-dasharray="5,2" d="M441.83,-2005.95C458.86,-2072.7 511.41,-2286.53 533.67,-2467 544.25,-2552.78 514.54,-3177.44 569.67,-3244 586.33,-3264.11 612.52,-3273.57 637.96,-3277.69"/>
<polygon fill="#fb923c" stroke="#fb923c" stroke-width="1.3" points="637.4,-3280.44 645.7,-3278.75 638.15,-3274.89 637.4,-3280.44"/>
</g>
<!-- hidden_IndexSubscription -->
<g id="node31" class="node">
<title>hidden_IndexSubscription</title>
<path fill="#431407" stroke="#fb923c" d="M774.48,-3231.8C774.48,-3231.8 652.61,-3231.8 652.61,-3231.8 646.61,-3231.8 640.61,-3225.8 640.61,-3219.8 640.61,-3219.8 640.61,-3202.2 640.61,-3202.2 640.61,-3196.2 646.61,-3190.2 652.61,-3190.2 652.61,-3190.2 774.48,-3190.2 774.48,-3190.2 780.48,-3190.2 786.48,-3196.2 786.48,-3202.2 786.48,-3202.2 786.48,-3219.8 786.48,-3219.8 786.48,-3225.8 780.48,-3231.8 774.48,-3231.8"/>
<text xml:space="preserve" text-anchor="middle" x="713.54" y="-3215.2" font-family="Segoe UI" font-size="14.00" fill="#e2e8f0">IndexSubscription</text>
<text xml:space="preserve" text-anchor="middle" x="713.54" y="-3198.4" font-family="Segoe UI" font-size="14.00" fill="#e2e8f0">IndexSubscriptionPage</text>
</g>
<!-- navigation&#45;&gt;hidden_IndexSubscription -->
<g id="edge29" class="edge">
<title>navigation&#45;&gt;hidden_IndexSubscription</title>
<path fill="none" stroke="#fb923c" stroke-width="1.3" stroke-dasharray="5,2" d="M442.2,-2005.92C459.62,-2069.77 511.63,-2268.03 533.67,-2436 544.39,-2517.73 517.02,-3113.58 569.67,-3177 584.77,-3195.19 607.68,-3204.66 630.75,-3209.35"/>
<polygon fill="#fb923c" stroke="#fb923c" stroke-width="1.3" points="629.98,-3212.06 638.34,-3210.68 630.95,-3206.54 629.98,-3212.06"/>
</g>
<!-- hidden_Schedules -->
<g id="node32" class="node">
<title>hidden_Schedules</title>
<path fill="#431407" stroke="#fb923c" d="M773.69,-3164.8C773.69,-3164.8 653.4,-3164.8 653.4,-3164.8 647.4,-3164.8 641.4,-3158.8 641.4,-3152.8 641.4,-3152.8 641.4,-3135.2 641.4,-3135.2 641.4,-3129.2 647.4,-3123.2 653.4,-3123.2 653.4,-3123.2 773.69,-3123.2 773.69,-3123.2 779.69,-3123.2 785.69,-3129.2 785.69,-3135.2 785.69,-3135.2 785.69,-3152.8 785.69,-3152.8 785.69,-3158.8 779.69,-3164.8 773.69,-3164.8"/>
<text xml:space="preserve" text-anchor="middle" x="713.54" y="-3148.2" font-family="Segoe UI" font-size="14.00" fill="#e2e8f0">Schedules</text>
<text xml:space="preserve" text-anchor="middle" x="713.54" y="-3131.4" font-family="Segoe UI" font-size="14.00" fill="#e2e8f0">ScheduleManagerPage</text>
</g>
<!-- navigation&#45;&gt;hidden_Schedules -->
<g id="edge30" class="edge">
<title>navigation&#45;&gt;hidden_Schedules</title>
<path fill="none" stroke="#fb923c" stroke-width="1.3" stroke-dasharray="5,2" d="M442.71,-2006.17C460.62,-2067.31 511.9,-2249.72 533.67,-2405 544.56,-2482.68 519.5,-3049.71 569.67,-3110 584.94,-3128.34 608.14,-3137.82 631.44,-3142.46"/>
<polygon fill="#fb923c" stroke="#fb923c" stroke-width="1.3" points="630.75,-3145.18 639.11,-3143.78 631.7,-3139.66 630.75,-3145.18"/>
</g>
<!-- hidden_CollectionSessions -->
<g id="node33" class="node">
<title>hidden_CollectionSessions</title>
<path fill="#431407" stroke="#fb923c" d="M773.71,-3097.8C773.71,-3097.8 653.38,-3097.8 653.38,-3097.8 647.38,-3097.8 641.38,-3091.8 641.38,-3085.8 641.38,-3085.8 641.38,-3068.2 641.38,-3068.2 641.38,-3062.2 647.38,-3056.2 653.38,-3056.2 653.38,-3056.2 773.71,-3056.2 773.71,-3056.2 779.71,-3056.2 785.71,-3062.2 785.71,-3068.2 785.71,-3068.2 785.71,-3085.8 785.71,-3085.8 785.71,-3091.8 779.71,-3097.8 773.71,-3097.8"/>
<text xml:space="preserve" text-anchor="middle" x="713.54" y="-3081.2" font-family="Segoe UI" font-size="14.00" fill="#e2e8f0">CollectionSessions</text>
<text xml:space="preserve" text-anchor="middle" x="713.54" y="-3064.4" font-family="Segoe UI" font-size="14.00" fill="#e2e8f0">CollectionSessionPage</text>
</g>
<!-- navigation&#45;&gt;hidden_CollectionSessions -->
<g id="edge31" class="edge">
<title>navigation&#45;&gt;hidden_CollectionSessions</title>
<path fill="none" stroke="#fb923c" stroke-width="1.3" stroke-dasharray="5,2" d="M443.24,-2006.22C461.62,-2064.31 512.17,-2231.16 533.67,-2374 544.75,-2447.61 521.97,-2985.85 569.67,-3043 584.96,-3061.32 608.17,-3070.79 631.47,-3075.43"/>
<polygon fill="#fb923c" stroke="#fb923c" stroke-width="1.3" points="630.78,-3078.16 639.14,-3076.75 631.73,-3072.64 630.78,-3078.16"/>
</g>
<!-- hidden_ArchiveHealth -->
<g id="node34" class="node">
<title>hidden_ArchiveHealth</title>
<path fill="#431407" stroke="#fb923c" d="M764.35,-3030.8C764.35,-3030.8 662.73,-3030.8 662.73,-3030.8 656.73,-3030.8 650.73,-3024.8 650.73,-3018.8 650.73,-3018.8 650.73,-3001.2 650.73,-3001.2 650.73,-2995.2 656.73,-2989.2 662.73,-2989.2 662.73,-2989.2 764.35,-2989.2 764.35,-2989.2 770.35,-2989.2 776.35,-2995.2 776.35,-3001.2 776.35,-3001.2 776.35,-3018.8 776.35,-3018.8 776.35,-3024.8 770.35,-3030.8 764.35,-3030.8"/>
<text xml:space="preserve" text-anchor="middle" x="713.54" y="-3014.2" font-family="Segoe UI" font-size="14.00" fill="#e2e8f0">ArchiveHealth</text>
<text xml:space="preserve" text-anchor="middle" x="713.54" y="-2997.4" font-family="Segoe UI" font-size="14.00" fill="#e2e8f0">ArchiveHealthPage</text>
</g>
<!-- navigation&#45;&gt;hidden_ArchiveHealth -->
<g id="edge32" class="edge">
<title>navigation&#45;&gt;hidden_ArchiveHealth</title>
<path fill="none" stroke="#fb923c" stroke-width="1.3" stroke-dasharray="5,2" d="M443.79,-2006.05C462.62,-2060.77 512.45,-2212.36 533.67,-2343 544.97,-2412.54 524.45,-2921.98 569.67,-2976 587.02,-2996.72 614.49,-3006.11 640.73,-3010"/>
<polygon fill="#fb923c" stroke="#fb923c" stroke-width="1.3" points="640.08,-3012.74 648.37,-3010.96 640.77,-3007.19 640.08,-3012.74"/>
</g>
<!-- hidden_ServiceManager -->
<g id="node35" class="node">
<title>hidden_ServiceManager</title>
<path fill="#431407" stroke="#fb923c" d="M769.02,-2963.8C769.02,-2963.8 658.07,-2963.8 658.07,-2963.8 652.07,-2963.8 646.07,-2957.8 646.07,-2951.8 646.07,-2951.8 646.07,-2934.2 646.07,-2934.2 646.07,-2928.2 652.07,-2922.2 658.07,-2922.2 658.07,-2922.2 769.02,-2922.2 769.02,-2922.2 775.02,-2922.2 781.02,-2928.2 781.02,-2934.2 781.02,-2934.2 781.02,-2951.8 781.02,-2951.8 781.02,-2957.8 775.02,-2963.8 769.02,-2963.8"/>
<text xml:space="preserve" text-anchor="middle" x="713.54" y="-2947.2" font-family="Segoe UI" font-size="14.00" fill="#e2e8f0">ServiceManager</text>
<text xml:space="preserve" text-anchor="middle" x="713.54" y="-2930.4" font-family="Segoe UI" font-size="14.00" fill="#e2e8f0">ServiceManagerPage</text>
</g>
<!-- navigation&#45;&gt;hidden_ServiceManager -->
<g id="edge33" class="edge">
<title>navigation&#45;&gt;hidden_ServiceManager</title>
<path fill="none" stroke="#fb923c" stroke-width="1.3" stroke-dasharray="5,2" d="M444.5,-2006.02C463.86,-2057.36 512.77,-2193.59 533.67,-2312 545.22,-2377.44 526.93,-2858.12 569.67,-2909 585.96,-2928.39 611.11,-2937.85 635.8,-2942.17"/>
<polygon fill="#fb923c" stroke="#fb923c" stroke-width="1.3" points="635.32,-2944.93 643.64,-2943.34 636.14,-2939.39 635.32,-2944.93"/>
</g>
<!-- hidden_SystemHealth -->
<g id="node36" class="node">
<title>hidden_SystemHealth</title>
<path fill="#431407" stroke="#fb923c" d="M762.42,-2896.8C762.42,-2896.8 664.67,-2896.8 664.67,-2896.8 658.67,-2896.8 652.67,-2890.8 652.67,-2884.8 652.67,-2884.8 652.67,-2867.2 652.67,-2867.2 652.67,-2861.2 658.67,-2855.2 664.67,-2855.2 664.67,-2855.2 762.42,-2855.2 762.42,-2855.2 768.42,-2855.2 774.42,-2861.2 774.42,-2867.2 774.42,-2867.2 774.42,-2884.8 774.42,-2884.8 774.42,-2890.8 768.42,-2896.8 762.42,-2896.8"/>
<text xml:space="preserve" text-anchor="middle" x="713.54" y="-2880.2" font-family="Segoe UI" font-size="14.00" fill="#e2e8f0">SystemHealth</text>
<text xml:space="preserve" text-anchor="middle" x="713.54" y="-2863.4" font-family="Segoe UI" font-size="14.00" fill="#e2e8f0">SystemHealthPage</text>
</g>
<!-- navigation&#45;&gt;hidden_SystemHealth -->
<g id="edge34" class="edge">
<title>navigation&#45;&gt;hidden_SystemHealth</title>
<path fill="none" stroke="#fb923c" stroke-width="1.3" stroke-dasharray="5,2" d="M445.39,-2006.05C465.33,-2053.86 513.16,-2174.78 533.67,-2281 545.51,-2342.33 529.4,-2794.25 569.67,-2842 587.46,-2863.09 615.74,-2872.43 642.46,-2876.18"/>
<polygon fill="#fb923c" stroke="#fb923c" stroke-width="1.3" points="641.98,-2878.94 650.26,-2877.09 642.63,-2873.38 641.98,-2878.94"/>
</g>
<!-- hidden_DataSampling -->
<g id="node37" class="node">
<title>hidden_DataSampling</title>
<path fill="#431407" stroke="#fb923c" d="M763.2,-2829.8C763.2,-2829.8 663.89,-2829.8 663.89,-2829.8 657.89,-2829.8 651.89,-2823.8 651.89,-2817.8 651.89,-2817.8 651.89,-2800.2 651.89,-2800.2 651.89,-2794.2 657.89,-2788.2 663.89,-2788.2 663.89,-2788.2 763.2,-2788.2 763.2,-2788.2 769.2,-2788.2 775.2,-2794.2 775.2,-2800.2 775.2,-2800.2 775.2,-2817.8 775.2,-2817.8 775.2,-2823.8 769.2,-2829.8 763.2,-2829.8"/>
<text xml:space="preserve" text-anchor="middle" x="713.54" y="-2813.2" font-family="Segoe UI" font-size="14.00" fill="#e2e8f0">DataSampling</text>
<text xml:space="preserve" text-anchor="middle" x="713.54" y="-2796.4" font-family="Segoe UI" font-size="14.00" fill="#e2e8f0">DataSamplingPage</text>
</g>
<!-- navigation&#45;&gt;hidden_DataSampling -->
<g id="edge35" class="edge">
<title>navigation&#45;&gt;hidden_DataSampling</title>
<path fill="none" stroke="#fb923c" stroke-width="1.3" stroke-dasharray="5,2" d="M446.47,-2006.03C467.03,-2050.09 513.58,-2155.82 533.67,-2250 545.87,-2307.18 531.88,-2730.39 569.67,-2775 587.36,-2795.88 615.32,-2805.23 641.84,-2809.04"/>
<polygon fill="#fb923c" stroke="#fb923c" stroke-width="1.3" points="641.3,-2811.8 649.57,-2809.98 641.97,-2806.24 641.3,-2811.8"/>
</g>
<!-- hidden_TimeSeriesAlignment -->
<g id="node38" class="node">
<title>hidden_TimeSeriesAlignment</title>
<path fill="#431407" stroke="#fb923c" d="M784.97,-2762.8C784.97,-2762.8 642.12,-2762.8 642.12,-2762.8 636.12,-2762.8 630.12,-2756.8 630.12,-2750.8 630.12,-2750.8 630.12,-2733.2 630.12,-2733.2 630.12,-2727.2 636.12,-2721.2 642.12,-2721.2 642.12,-2721.2 784.97,-2721.2 784.97,-2721.2 790.97,-2721.2 796.97,-2727.2 796.97,-2733.2 796.97,-2733.2 796.97,-2750.8 796.97,-2750.8 796.97,-2756.8 790.97,-2762.8 784.97,-2762.8"/>
<text xml:space="preserve" text-anchor="middle" x="713.54" y="-2746.2" font-family="Segoe UI" font-size="14.00" fill="#e2e8f0">TimeSeriesAlignment</text>
<text xml:space="preserve" text-anchor="middle" x="713.54" y="-2729.4" font-family="Segoe UI" font-size="14.00" fill="#e2e8f0">TimeSeriesAlignmentPage</text>
</g>
<!-- navigation&#45;&gt;hidden_TimeSeriesAlignment -->
<g id="edge36" class="edge">
<title>navigation&#45;&gt;hidden_TimeSeriesAlignment</title>
<path fill="none" stroke="#fb923c" stroke-width="1.3" stroke-dasharray="5,2" d="M447.93,-2006.15C469.18,-2046.29 514.11,-2136.83 533.67,-2219 558.9,-2325 499.03,-2625.04 569.67,-2708 582.6,-2723.18 600.96,-2732.26 620.23,-2737.55"/>
<polygon fill="#fb923c" stroke="#fb923c" stroke-width="1.3" points="619.39,-2740.23 627.83,-2739.39 620.71,-2734.79 619.39,-2740.23"/>
</g>
<!-- hidden_ExportPresets -->
<g id="node39" class="node">
<title>hidden_ExportPresets</title>
<path fill="#431407" stroke="#fb923c" d="M762.03,-2695.8C762.03,-2695.8 665.05,-2695.8 665.05,-2695.8 659.05,-2695.8 653.05,-2689.8 653.05,-2683.8 653.05,-2683.8 653.05,-2666.2 653.05,-2666.2 653.05,-2660.2 659.05,-2654.2 665.05,-2654.2 665.05,-2654.2 762.03,-2654.2 762.03,-2654.2 768.03,-2654.2 774.03,-2660.2 774.03,-2666.2 774.03,-2666.2 774.03,-2683.8 774.03,-2683.8 774.03,-2689.8 768.03,-2695.8 762.03,-2695.8"/>
<text xml:space="preserve" text-anchor="middle" x="713.54" y="-2679.2" font-family="Segoe UI" font-size="14.00" fill="#e2e8f0">ExportPresets</text>
<text xml:space="preserve" text-anchor="middle" x="713.54" y="-2662.4" font-family="Segoe UI" font-size="14.00" fill="#e2e8f0">ExportPresetsPage</text>
</g>
<!-- navigation&#45;&gt;hidden_ExportPresets -->
<g id="edge37" class="edge">
<title>navigation&#45;&gt;hidden_ExportPresets</title>
<path fill="none" stroke="#fb923c" stroke-width="1.3" stroke-dasharray="5,2" d="M449.83,-2006.2C471.76,-2042.05 514.72,-2117.62 533.67,-2188 559.93,-2285.51 503.98,-2564.3 569.67,-2641 587.69,-2662.04 616.15,-2671.35 642.95,-2675.09"/>
<polygon fill="#fb923c" stroke="#fb923c" stroke-width="1.3" points="642.5,-2677.85 650.77,-2676 643.14,-2672.29 642.5,-2677.85"/>
</g>
<!-- hidden_AnalysisExport -->
<g id="node40" class="node">
<title>hidden_AnalysisExport</title>
<path fill="#431407" stroke="#fb923c" d="M766.7,-2628.8C766.7,-2628.8 660.39,-2628.8 660.39,-2628.8 654.39,-2628.8 648.39,-2622.8 648.39,-2616.8 648.39,-2616.8 648.39,-2599.2 648.39,-2599.2 648.39,-2593.2 654.39,-2587.2 660.39,-2587.2 660.39,-2587.2 766.7,-2587.2 766.7,-2587.2 772.7,-2587.2 778.7,-2593.2 778.7,-2599.2 778.7,-2599.2 778.7,-2616.8 778.7,-2616.8 778.7,-2622.8 772.7,-2628.8 766.7,-2628.8"/>
<text xml:space="preserve" text-anchor="middle" x="713.54" y="-2612.2" font-family="Segoe UI" font-size="14.00" fill="#e2e8f0">AnalysisExport</text>
<text xml:space="preserve" text-anchor="middle" x="713.54" y="-2595.4" font-family="Segoe UI" font-size="14.00" fill="#e2e8f0">AnalysisExportPage</text>
</g>
<!-- navigation&#45;&gt;hidden_AnalysisExport -->
<g id="edge38" class="edge">
<title>navigation&#45;&gt;hidden_AnalysisExport</title>
<path fill="none" stroke="#fb923c" stroke-width="1.3" stroke-dasharray="5,2" d="M452.39,-2006.14C474.96,-2037.28 515.45,-2098.18 533.67,-2157 561.19,-2245.85 508.93,-2503.56 569.67,-2574 586.72,-2593.78 613,-2603.17 638.39,-2607.32"/>
<polygon fill="#fb923c" stroke="#fb923c" stroke-width="1.3" points="637.8,-2610.07 646.11,-2608.4 638.57,-2604.52 637.8,-2610.07"/>
</g>
<!-- hidden_AnalysisExportWizard -->
<g id="node41" class="node">
<title>hidden_AnalysisExportWizard</title>
<path fill="#431407" stroke="#fb923c" d="M787.3,-2561.8C787.3,-2561.8 639.79,-2561.8 639.79,-2561.8 633.79,-2561.8 627.79,-2555.8 627.79,-2549.8 627.79,-2549.8 627.79,-2532.2 627.79,-2532.2 627.79,-2526.2 633.79,-2520.2 639.79,-2520.2 639.79,-2520.2 787.3,-2520.2 787.3,-2520.2 793.3,-2520.2 799.3,-2526.2 799.3,-2532.2 799.3,-2532.2 799.3,-2549.8 799.3,-2549.8 799.3,-2555.8 793.3,-2561.8 787.3,-2561.8"/>
<text xml:space="preserve" text-anchor="middle" x="713.54" y="-2545.2" font-family="Segoe UI" font-size="14.00" fill="#e2e8f0">AnalysisExportWizard</text>
<text xml:space="preserve" text-anchor="middle" x="713.54" y="-2528.4" font-family="Segoe UI" font-size="14.00" fill="#e2e8f0">AnalysisExportWizardPage</text>
</g>
<!-- navigation&#45;&gt;hidden_AnalysisExportWizard -->
<g id="edge39" class="edge">
<title>navigation&#45;&gt;hidden_AnalysisExportWizard</title>
<path fill="none" stroke="#fb923c" stroke-width="1.3" stroke-dasharray="5,2" d="M456.11,-2005.96C479.16,-2031.9 516.38,-2078.49 533.67,-2126 562.75,-2205.92 513.87,-2442.82 569.67,-2507 582.14,-2521.34 599.45,-2530.21 617.73,-2535.58"/>
<polygon fill="#fb923c" stroke="#fb923c" stroke-width="1.3" points="617.01,-2538.29 625.46,-2537.59 618.42,-2532.87 617.01,-2538.29"/>
</g>
<!-- hidden_EventReplay -->
<g id="node42" class="node">
<title>hidden_EventReplay</title>
<path fill="#431407" stroke="#fb923c" d="M759.31,-2494.8C759.31,-2494.8 667.78,-2494.8 667.78,-2494.8 661.78,-2494.8 655.78,-2488.8 655.78,-2482.8 655.78,-2482.8 655.78,-2465.2 655.78,-2465.2 655.78,-2459.2 661.78,-2453.2 667.78,-2453.2 667.78,-2453.2 759.31,-2453.2 759.31,-2453.2 765.31,-2453.2 771.31,-2459.2 771.31,-2465.2 771.31,-2465.2 771.31,-2482.8 771.31,-2482.8 771.31,-2488.8 765.31,-2494.8 759.31,-2494.8"/>
<text xml:space="preserve" text-anchor="middle" x="713.54" y="-2478.2" font-family="Segoe UI" font-size="14.00" fill="#e2e8f0">EventReplay</text>
<text xml:space="preserve" text-anchor="middle" x="713.54" y="-2461.4" font-family="Segoe UI" font-size="14.00" fill="#e2e8f0">EventReplayPage</text>
</g>
<!-- navigation&#45;&gt;hidden_EventReplay -->
<g id="edge40" class="edge">
<title>navigation&#45;&gt;hidden_EventReplay</title>
<path fill="none" stroke="#fb923c" stroke-width="1.3" stroke-dasharray="5,2" d="M462.46,-2005.96C485.47,-2026.13 517.77,-2058.83 533.67,-2095 564.68,-2165.57 518.81,-2382.08 569.67,-2440 588.56,-2461.51 618.35,-2470.69 645.86,-2474.22"/>
<polygon fill="#fb923c" stroke="#fb923c" stroke-width="1.3" points="645.27,-2476.98 653.52,-2475.04 645.86,-2471.41 645.27,-2476.98"/>
</g>
<!-- hidden_TradingHours -->
<g id="node43" class="node">
<title>hidden_TradingHours</title>
<path fill="#431407" stroke="#fb923c" d="M762.42,-2427.8C762.42,-2427.8 664.67,-2427.8 664.67,-2427.8 658.67,-2427.8 652.67,-2421.8 652.67,-2415.8 652.67,-2415.8 652.67,-2398.2 652.67,-2398.2 652.67,-2392.2 658.67,-2386.2 664.67,-2386.2 664.67,-2386.2 762.42,-2386.2 762.42,-2386.2 768.42,-2386.2 774.42,-2392.2 774.42,-2398.2 774.42,-2398.2 774.42,-2415.8 774.42,-2415.8 774.42,-2421.8 768.42,-2427.8 762.42,-2427.8"/>
<text xml:space="preserve" text-anchor="middle" x="713.54" y="-2411.2" font-family="Segoe UI" font-size="14.00" fill="#e2e8f0">TradingHours</text>
<text xml:space="preserve" text-anchor="middle" x="713.54" y="-2394.4" font-family="Segoe UI" font-size="14.00" fill="#e2e8f0">TradingHoursPage</text>
</g>
<!-- navigation&#45;&gt;hidden_TradingHours -->
<g id="edge41" class="edge">
<title>navigation&#45;&gt;hidden_TradingHours</title>
<path fill="none" stroke="#fb923c" stroke-width="1.3" stroke-dasharray="5,2" d="M474.98,-2006.2C495.95,-2019.84 520.26,-2039.59 533.67,-2064 600.24,-2185.18 477.82,-2269.66 569.67,-2373 587.92,-2393.54 616.13,-2402.81 642.67,-2406.66"/>
<polygon fill="#fb923c" stroke="#fb923c" stroke-width="1.3" points="642.12,-2409.41 650.4,-2407.61 642.8,-2403.86 642.12,-2409.41"/>
</g>
<!-- hidden_AdvancedAnalytics -->
<g id="node44" class="node">
<title>hidden_AdvancedAnalytics</title>
<path fill="#431407" stroke="#fb923c" d="M778.35,-2360.8C778.35,-2360.8 648.73,-2360.8 648.73,-2360.8 642.73,-2360.8 636.73,-2354.8 636.73,-2348.8 636.73,-2348.8 636.73,-2331.2 636.73,-2331.2 636.73,-2325.2 642.73,-2319.2 648.73,-2319.2 648.73,-2319.2 778.35,-2319.2 778.35,-2319.2 784.35,-2319.2 790.35,-2325.2 790.35,-2331.2 790.35,-2331.2 790.35,-2348.8 790.35,-2348.8 790.35,-2354.8 784.35,-2360.8 778.35,-2360.8"/>
<text xml:space="preserve" text-anchor="middle" x="713.54" y="-2344.2" font-family="Segoe UI" font-size="14.00" fill="#e2e8f0">AdvancedAnalytics</text>
<text xml:space="preserve" text-anchor="middle" x="713.54" y="-2327.4" font-family="Segoe UI" font-size="14.00" fill="#e2e8f0">AdvancedAnalyticsPage</text>
</g>
<!-- navigation&#45;&gt;hidden_AdvancedAnalytics -->
<g id="edge42" class="edge">
<title>navigation&#45;&gt;hidden_AdvancedAnalytics</title>
<path fill="none" stroke="#fb923c" stroke-width="1.3" stroke-dasharray="5,2" d="M497.15,-2003.73C511.14,-2010.78 524.57,-2020.3 533.67,-2033 604.95,-2132.48 487.68,-2215.14 569.67,-2306 584.4,-2322.32 605.42,-2331.51 626.82,-2336.51"/>
<polygon fill="#fb923c" stroke="#fb923c" stroke-width="1.3" points="626,-2339.2 634.4,-2338.07 627.13,-2333.72 626,-2339.2"/>
</g>
<!-- hidden_OrderBook -->
<g id="node45" class="node">
<title>hidden_OrderBook</title>
<path fill="#431407" stroke="#fb923c" d="M754.64,-2293.8C754.64,-2293.8 672.44,-2293.8 672.44,-2293.8 666.44,-2293.8 660.44,-2287.8 660.44,-2281.8 660.44,-2281.8 660.44,-2264.2 660.44,-2264.2 660.44,-2258.2 666.44,-2252.2 672.44,-2252.2 672.44,-2252.2 754.64,-2252.2 754.64,-2252.2 760.64,-2252.2 766.64,-2258.2 766.64,-2264.2 766.64,-2264.2 766.64,-2281.8 766.64,-2281.8 766.64,-2287.8 760.64,-2293.8 754.64,-2293.8"/>
<text xml:space="preserve" text-anchor="middle" x="713.54" y="-2277.2" font-family="Segoe UI" font-size="14.00" fill="#e2e8f0">OrderBook</text>
<text xml:space="preserve" text-anchor="middle" x="713.54" y="-2260.4" font-family="Segoe UI" font-size="14.00" fill="#e2e8f0">OrderBookPage</text>
</g>
<!-- navigation&#45;&gt;hidden_OrderBook -->
<g id="edge43" class="edge">
<title>navigation&#45;&gt;hidden_OrderBook</title>
<path fill="none" stroke="#fb923c" stroke-width="1.3" stroke-dasharray="5,2" d="M497.01,-1984.05C510.66,-1986.73 523.96,-1992.07 533.67,-2002 608.16,-2078.17 497.52,-2160.61 569.67,-2239 589.98,-2261.07 621.79,-2270.03 650.25,-2273.28"/>
<polygon fill="#fb923c" stroke="#fb923c" stroke-width="1.3" points="649.96,-2276.07 658.19,-2274.02 650.48,-2270.49 649.96,-2276.07"/>
</g>
<!-- hidden_DataCalendar -->
<g id="node46" class="node">
<title>hidden_DataCalendar</title>
<path fill="#431407" stroke="#fb923c" d="M761.63,-2226.8C761.63,-2226.8 665.46,-2226.8 665.46,-2226.8 659.46,-2226.8 653.46,-2220.8 653.46,-2214.8 653.46,-2214.8 653.46,-2197.2 653.46,-2197.2 653.46,-2191.2 659.46,-2185.2 665.46,-2185.2 665.46,-2185.2 761.63,-2185.2 761.63,-2185.2 767.63,-2185.2 773.63,-2191.2 773.63,-2197.2 773.63,-2197.2 773.63,-2214.8 773.63,-2214.8 773.63,-2220.8 767.63,-2226.8 761.63,-2226.8"/>
<text xml:space="preserve" text-anchor="middle" x="713.54" y="-2210.2" font-family="Segoe UI" font-size="14.00" fill="#e2e8f0">DataCalendar</text>
<text xml:space="preserve" text-anchor="middle" x="713.54" y="-2193.4" font-family="Segoe UI" font-size="14.00" fill="#e2e8f0">DataCalendarPage</text>
</g>
<!-- navigation&#45;&gt;hidden_DataCalendar -->
<g id="edge44" class="edge">
<title>navigation&#45;&gt;hidden_DataCalendar</title>
<path fill="none" stroke="#fb923c" stroke-width="1.3" stroke-dasharray="5,2" d="M485.41,-1963.71C502.35,-1959.79 520.39,-1959.89 533.67,-1971 603.27,-2029.24 507.33,-2106.04 569.67,-2172 588.62,-2192.05 617.08,-2201.23 643.62,-2205.14"/>
<polygon fill="#fb923c" stroke="#fb923c" stroke-width="1.3" points="643.05,-2207.89 651.34,-2206.11 643.75,-2202.33 643.05,-2207.89"/>
</g>
<!-- hidden_StorageOptimization -->
<g id="node47" class="node">
<title>hidden_StorageOptimization</title>
<path fill="#431407" stroke="#fb923c" d="M781.47,-2159.8C781.47,-2159.8 645.62,-2159.8 645.62,-2159.8 639.62,-2159.8 633.62,-2153.8 633.62,-2147.8 633.62,-2147.8 633.62,-2130.2 633.62,-2130.2 633.62,-2124.2 639.62,-2118.2 645.62,-2118.2 645.62,-2118.2 781.47,-2118.2 781.47,-2118.2 787.47,-2118.2 793.47,-2124.2 793.47,-2130.2 793.47,-2130.2 793.47,-2147.8 793.47,-2147.8 793.47,-2153.8 787.47,-2159.8 781.47,-2159.8"/>
<text xml:space="preserve" text-anchor="middle" x="713.54" y="-2143.2" font-family="Segoe UI" font-size="14.00" fill="#e2e8f0">StorageOptimization</text>
<text xml:space="preserve" text-anchor="middle" x="713.54" y="-2126.4" font-family="Segoe UI" font-size="14.00" fill="#e2e8f0">StorageOptimizationPage</text>
</g>
<!-- navigation&#45;&gt;hidden_StorageOptimization -->
<g id="edge45" class="edge">
<title>navigation&#45;&gt;hidden_StorageOptimization</title>
<path fill="none" stroke="#fb923c" stroke-width="1.3" stroke-dasharray="5,2" d="M456.24,-1963.97C477.08,-1944.42 510.05,-1920.98 533.67,-1940 592.13,-1987.08 517.1,-2051.43 569.67,-2105 584.16,-2119.77 603.82,-2128.59 623.92,-2133.75"/>
<polygon fill="#fb923c" stroke="#fb923c" stroke-width="1.3" points="623.14,-2136.44 631.56,-2135.5 624.39,-2130.99 623.14,-2136.44"/>
</g>
<!-- hidden_RetentionAssurance -->
<g id="node48" class="node">
<title>hidden_RetentionAssurance</title>
<path fill="#431407" stroke="#fb923c" d="M779.52,-2092.8C779.52,-2092.8 647.56,-2092.8 647.56,-2092.8 641.56,-2092.8 635.56,-2086.8 635.56,-2080.8 635.56,-2080.8 635.56,-2063.2 635.56,-2063.2 635.56,-2057.2 641.56,-2051.2 647.56,-2051.2 647.56,-2051.2 779.52,-2051.2 779.52,-2051.2 785.52,-2051.2 791.52,-2057.2 791.52,-2063.2 791.52,-2063.2 791.52,-2080.8 791.52,-2080.8 791.52,-2086.8 785.52,-2092.8 779.52,-2092.8"/>
<text xml:space="preserve" text-anchor="middle" x="713.54" y="-2076.2" font-family="Segoe UI" font-size="14.00" fill="#e2e8f0">RetentionAssurance</text>
<text xml:space="preserve" text-anchor="middle" x="713.54" y="-2059.4" font-family="Segoe UI" font-size="14.00" fill="#e2e8f0">RetentionAssurancePage</text>
</g>
<!-- navigation&#45;&gt;hidden_RetentionAssurance -->
<g id="edge46" class="edge">
<title>navigation&#45;&gt;hidden_RetentionAssurance</title>
<path fill="none" stroke="#fb923c" stroke-width="1.3" stroke-dasharray="5,2" d="M448.3,-1963.71C466.55,-1933.78 502.6,-1885.42 533.67,-1909 581.08,-1944.99 526.78,-1996.73 569.67,-2038 584.82,-2052.57 605.03,-2061.29 625.47,-2066.4"/>
<polygon fill="#fb923c" stroke="#fb923c" stroke-width="1.3" points="624.84,-2069.13 633.25,-2068.14 626.06,-2063.67 624.84,-2069.13"/>
</g>
<!-- hidden_LeanIntegration -->
<g id="node49" class="node">
<title>hidden_LeanIntegration</title>
<path fill="#431407" stroke="#fb923c" d="M767.85,-2025.8C767.85,-2025.8 659.24,-2025.8 659.24,-2025.8 653.24,-2025.8 647.24,-2019.8 647.24,-2013.8 647.24,-2013.8 647.24,-1996.2 647.24,-1996.2 647.24,-1990.2 653.24,-1984.2 659.24,-1984.2 659.24,-1984.2 767.85,-1984.2 767.85,-1984.2 773.85,-1984.2 779.85,-1990.2 779.85,-1996.2 779.85,-1996.2 779.85,-2013.8 779.85,-2013.8 779.85,-2019.8 773.85,-2025.8 767.85,-2025.8"/>
<text xml:space="preserve" text-anchor="middle" x="713.54" y="-2009.2" font-family="Segoe UI" font-size="14.00" fill="#e2e8f0">LeanIntegration</text>
<text xml:space="preserve" text-anchor="middle" x="713.54" y="-1992.4" font-family="Segoe UI" font-size="14.00" fill="#e2e8f0">LeanIntegrationPage</text>
</g>
<!-- navigation&#45;&gt;hidden_LeanIntegration -->
<g id="edge47" class="edge">
<title>navigation&#45;&gt;hidden_LeanIntegration</title>
<path fill="none" stroke="#fb923c" stroke-width="1.3" stroke-dasharray="5,2" d="M443.92,-1963.77C458.71,-1925.34 493.7,-1850.61 533.67,-1878 570.23,-1903.05 536.28,-1941.86 569.67,-1971 588.24,-1987.21 613.16,-1996.02 636.99,-2000.72"/>
<polygon fill="#fb923c" stroke="#fb923c" stroke-width="1.3" points="636.46,-2003.47 644.82,-2002.09 637.42,-1997.95 636.46,-2003.47"/>
</g>
<!-- hidden_MessagingHub -->
<g id="node50" class="node">
<title>hidden_MessagingHub</title>
<path fill="#431407" stroke="#fb923c" d="M765.54,-1958.8C765.54,-1958.8 661.55,-1958.8 661.55,-1958.8 655.55,-1958.8 649.55,-1952.8 649.55,-1946.8 649.55,-1946.8 649.55,-1929.2 649.55,-1929.2 649.55,-1923.2 655.55,-1917.2 661.55,-1917.2 661.55,-1917.2 765.54,-1917.2 765.54,-1917.2 771.54,-1917.2 777.54,-1923.2 777.54,-1929.2 777.54,-1929.2 777.54,-1946.8 777.54,-1946.8 777.54,-1952.8 771.54,-1958.8 765.54,-1958.8"/>
<text xml:space="preserve" text-anchor="middle" x="713.54" y="-1942.2" font-family="Segoe UI" font-size="14.00" fill="#e2e8f0">MessagingHub</text>
<text xml:space="preserve" text-anchor="middle" x="713.54" y="-1925.4" font-family="Segoe UI" font-size="14.00" fill="#e2e8f0">MessagingHubPage</text>
</g>
<!-- navigation&#45;&gt;hidden_MessagingHub -->
<g id="edge48" class="edge">
<title>navigation&#45;&gt;hidden_MessagingHub</title>
<path fill="none" stroke="#fb923c" stroke-width="1.3" stroke-dasharray="5,2" d="M446.92,-1963.9C461.77,-1936.77 491.72,-1890.91 532.67,-1872 552.41,-1862.89 550.39,-1893.96 569.67,-1904 591.24,-1915.23 616.56,-1922.81 639.85,-1927.91"/>
<polygon fill="#fb923c" stroke="#fb923c" stroke-width="1.3" points="639.02,-1930.59 647.42,-1929.47 640.15,-1925.11 639.02,-1930.59"/>
</g>
<!-- hidden_Workspaces -->
<g id="node51" class="node">
<title>hidden_Workspaces</title>
<path fill="#431407" stroke="#fb923c" d="M754.63,-1891.8C754.63,-1891.8 672.45,-1891.8 672.45,-1891.8 666.45,-1891.8 660.45,-1885.8 660.45,-1879.8 660.45,-1879.8 660.45,-1862.2 660.45,-1862.2 660.45,-1856.2 666.45,-1850.2 672.45,-1850.2 672.45,-1850.2 754.63,-1850.2 754.63,-1850.2 760.63,-1850.2 766.63,-1856.2 766.63,-1862.2 766.63,-1862.2 766.63,-1879.8 766.63,-1879.8 766.63,-1885.8 760.63,-1891.8 754.63,-1891.8"/>
<text xml:space="preserve" text-anchor="middle" x="713.54" y="-1875.2" font-family="Segoe UI" font-size="14.00" fill="#e2e8f0">Workspaces</text>
<text xml:space="preserve" text-anchor="middle" x="713.54" y="-1858.4" font-family="Segoe UI" font-size="14.00" fill="#e2e8f0">WorkspacePage</text>
</g>
<!-- navigation&#45;&gt;hidden_Workspaces -->
<g id="edge49" class="edge">
<title>navigation&#45;&gt;hidden_Workspaces</title>
<path fill="none" stroke="#fb923c" stroke-width="1.3" stroke-dasharray="5,2" d="M446.12,-1963.79C460.45,-1935.39 490.22,-1886.26 532.67,-1866 569.16,-1848.58 614.73,-1850.06 650.88,-1855.77"/>
<polygon fill="#fb923c" stroke="#fb923c" stroke-width="1.3" points="650.03,-1858.47 658.39,-1857.06 650.98,-1852.95 650.03,-1858.47"/>
</g>
<!-- hidden_NotificationCenter -->
<g id="node52" class="node">
<title>hidden_NotificationCenter</title>
<path fill="#431407" stroke="#fb923c" d="M775.63,-1824.8C775.63,-1824.8 651.45,-1824.8 651.45,-1824.8 645.45,-1824.8 639.45,-1818.8 639.45,-1812.8 639.45,-1812.8 639.45,-1795.2 639.45,-1795.2 639.45,-1789.2 645.45,-1783.2 651.45,-1783.2 651.45,-1783.2 775.63,-1783.2 775.63,-1783.2 781.63,-1783.2 787.63,-1789.2 787.63,-1795.2 787.63,-1795.2 787.63,-1812.8 787.63,-1812.8 787.63,-1818.8 781.63,-1824.8 775.63,-1824.8"/>
<text xml:space="preserve" text-anchor="middle" x="713.54" y="-1808.2" font-family="Segoe UI" font-size="14.00" fill="#e2e8f0">NotificationCenter</text>
<text xml:space="preserve" text-anchor="middle" x="713.54" y="-1791.4" font-family="Segoe UI" font-size="14.00" fill="#e2e8f0">NotificationCenterPage</text>
</g>
<!-- navigation&#45;&gt;hidden_NotificationCenter -->
<g id="edge50" class="edge">
<title>navigation&#45;&gt;hidden_NotificationCenter</title>
<path fill="none" stroke="#fb923c" stroke-width="1.3" stroke-dasharray="5,2" d="M449.02,-1964.02C465.72,-1937.47 497.22,-1891.44 532.67,-1860 559.51,-1836.2 596.37,-1822.51 629.74,-1814.64"/>
<polygon fill="#fb923c" stroke="#fb923c" stroke-width="1.3" points="629.93,-1817.47 637.13,-1813 628.71,-1812 629.93,-1817.47"/>
</g>
<!-- hidden_Help -->
<g id="node53" class="node">
<title>hidden_Help</title>
<path fill="#431407" stroke="#fb923c" d="M736.76,-1757.8C736.76,-1757.8 690.33,-1757.8 690.33,-1757.8 684.33,-1757.8 678.33,-1751.8 678.33,-1745.8 678.33,-1745.8 678.33,-1728.2 678.33,-1728.2 678.33,-1722.2 684.33,-1716.2 690.33,-1716.2 690.33,-1716.2 736.76,-1716.2 736.76,-1716.2 742.76,-1716.2 748.76,-1722.2 748.76,-1728.2 748.76,-1728.2 748.76,-1745.8 748.76,-1745.8 748.76,-1751.8 742.76,-1757.8 736.76,-1757.8"/>
<text xml:space="preserve" text-anchor="middle" x="713.54" y="-1741.2" font-family="Segoe UI" font-size="14.00" fill="#e2e8f0">Help</text>
<text xml:space="preserve" text-anchor="middle" x="713.54" y="-1724.4" font-family="Segoe UI" font-size="14.00" fill="#e2e8f0">HelpPage</text>
</g>
<!-- navigation&#45;&gt;hidden_Help -->
<g id="edge51" class="edge">
<title>navigation&#45;&gt;hidden_Help</title>
<path fill="none" stroke="#fb923c" stroke-width="1.3" stroke-dasharray="5,2" d="M443.34,-1963.83C458.7,-1920.43 499.86,-1821.23 569.67,-1771 598.4,-1750.33 637.98,-1742.08 668.2,-1738.86"/>
<polygon fill="#fb923c" stroke="#fb923c" stroke-width="1.3" points="668.39,-1741.65 676.1,-1738.13 667.87,-1736.07 668.39,-1741.65"/>
</g>
<!-- hidden_Welcome -->
<g id="node54" class="node">
<title>hidden_Welcome</title>
<path fill="#431407" stroke="#fb923c" d="M749.97,-1690.8C749.97,-1690.8 677.12,-1690.8 677.12,-1690.8 671.12,-1690.8 665.12,-1684.8 665.12,-1678.8 665.12,-1678.8 665.12,-1661.2 665.12,-1661.2 665.12,-1655.2 671.12,-1649.2 677.12,-1649.2 677.12,-1649.2 749.97,-1649.2 749.97,-1649.2 755.97,-1649.2 761.97,-1655.2 761.97,-1661.2 761.97,-1661.2 761.97,-1678.8 761.97,-1678.8 761.97,-1684.8 755.97,-1690.8 749.97,-1690.8"/>
<text xml:space="preserve" text-anchor="middle" x="713.54" y="-1674.2" font-family="Segoe UI" font-size="14.00" fill="#e2e8f0">Welcome</text>
<text xml:space="preserve" text-anchor="middle" x="713.54" y="-1657.4" font-family="Segoe UI" font-size="14.00" fill="#e2e8f0">WelcomePage</text>
</g>
<!-- navigation&#45;&gt;hidden_Welcome -->
<g id="edge52" class="edge">
<title>navigation&#45;&gt;hidden_Welcome</title>
<path fill="none" stroke="#fb923c" stroke-width="1.3" stroke-dasharray="5,2" d="M440,-1963.9C450.11,-1911.27 483.87,-1773.5 569.67,-1704 593.6,-1684.62 626.74,-1675.96 655.09,-1672.22"/>
<polygon fill="#fb923c" stroke="#fb923c" stroke-width="1.3" points="655.31,-1675.01 662.93,-1671.31 654.67,-1669.45 655.31,-1675.01"/>
</g>
<!-- hidden_KeyboardShortcuts -->
<g id="node55" class="node">
<title>hidden_KeyboardShortcuts</title>
<path fill="#431407" stroke="#fb923c" d="M777.2,-1623.8C777.2,-1623.8 649.89,-1623.8 649.89,-1623.8 643.89,-1623.8 637.89,-1617.8 637.89,-1611.8 637.89,-1611.8 637.89,-1594.2 637.89,-1594.2 637.89,-1588.2 643.89,-1582.2 649.89,-1582.2 649.89,-1582.2 777.2,-1582.2 777.2,-1582.2 783.2,-1582.2 789.2,-1588.2 789.2,-1594.2 789.2,-1594.2 789.2,-1611.8 789.2,-1611.8 789.2,-1617.8 783.2,-1623.8 777.2,-1623.8"/>
<text xml:space="preserve" text-anchor="middle" x="713.54" y="-1607.2" font-family="Segoe UI" font-size="14.00" fill="#e2e8f0">KeyboardShortcuts</text>
<text xml:space="preserve" text-anchor="middle" x="713.54" y="-1590.4" font-family="Segoe UI" font-size="14.00" fill="#e2e8f0">KeyboardShortcutsPage</text>
</g>
<!-- navigation&#45;&gt;hidden_KeyboardShortcuts -->
<g id="edge53" class="edge">
<title>navigation&#45;&gt;hidden_KeyboardShortcuts</title>
<path fill="none" stroke="#fb923c" stroke-width="1.3" stroke-dasharray="5,2" d="M437.87,-1964C443.27,-1903.34 467.47,-1726.52 569.67,-1637 585.89,-1622.8 606.98,-1614.26 627.95,-1609.21"/>
<polygon fill="#fb923c" stroke="#fb923c" stroke-width="1.3" points="628.42,-1611.97 635.64,-1607.54 627.23,-1606.5 628.42,-1611.97"/>
</g>
<!-- hidden_SetupWizard -->
<g id="node56" class="node">
<title>hidden_SetupWizard</title>
<path fill="#431407" stroke="#fb923c" d="M759.69,-1556.8C759.69,-1556.8 667.4,-1556.8 667.4,-1556.8 661.4,-1556.8 655.4,-1550.8 655.4,-1544.8 655.4,-1544.8 655.4,-1527.2 655.4,-1527.2 655.4,-1521.2 661.4,-1515.2 667.4,-1515.2 667.4,-1515.2 759.69,-1515.2 759.69,-1515.2 765.69,-1515.2 771.69,-1521.2 771.69,-1527.2 771.69,-1527.2 771.69,-1544.8 771.69,-1544.8 771.69,-1550.8 765.69,-1556.8 759.69,-1556.8"/>
<text xml:space="preserve" text-anchor="middle" x="713.54" y="-1540.2" font-family="Segoe UI" font-size="14.00" fill="#e2e8f0">SetupWizard</text>
<text xml:space="preserve" text-anchor="middle" x="713.54" y="-1523.4" font-family="Segoe UI" font-size="14.00" fill="#e2e8f0">SetupWizardPage</text>
</g>
<!-- navigation&#45;&gt;hidden_SetupWizard -->
<g id="edge54" class="edge">
<title>navigation&#45;&gt;hidden_SetupWizard</title>
<path fill="none" stroke="#fb923c" stroke-width="1.3" stroke-dasharray="5,2" d="M436.2,-1963.83C436.77,-1895.24 448.46,-1677.39 569.67,-1570 590.41,-1551.63 619.28,-1542.73 645.64,-1538.57"/>
<polygon fill="#fb923c" stroke="#fb923c" stroke-width="1.3" points="645.74,-1541.38 653.28,-1537.51 644.97,-1535.83 645.74,-1541.38"/>
</g>
<!-- hidden_ActivityLog -->
<g id="node57" class="node">
<title>hidden_ActivityLog</title>
<path fill="#431407" stroke="#fb923c" d="M757.37,-1489.8C757.37,-1489.8 669.72,-1489.8 669.72,-1489.8 663.72,-1489.8 657.72,-1483.8 657.72,-1477.8 657.72,-1477.8 657.72,-1460.2 657.72,-1460.2 657.72,-1454.2 663.72,-1448.2 669.72,-1448.2 669.72,-1448.2 757.37,-1448.2 757.37,-1448.2 763.37,-1448.2 769.37,-1454.2 769.37,-1460.2 769.37,-1460.2 769.37,-1477.8 769.37,-1477.8 769.37,-1483.8 763.37,-1489.8 757.37,-1489.8"/>
<text xml:space="preserve" text-anchor="middle" x="713.54" y="-1473.2" font-family="Segoe UI" font-size="14.00" fill="#e2e8f0">ActivityLog</text>
<text xml:space="preserve" text-anchor="middle" x="713.54" y="-1456.4" font-family="Segoe UI" font-size="14.00" fill="#e2e8f0">ActivityLogPage</text>
</g>
<!-- navigation&#45;&gt;hidden_ActivityLog -->
<g id="edge55" class="edge">
<title>navigation&#45;&gt;hidden_ActivityLog</title>
<path fill="none" stroke="#fb923c" stroke-width="1.3" stroke-dasharray="5,2" d="M439.21,-1963.72C450.83,-1878.9 497.94,-1566.55 569.67,-1503 590.92,-1484.18 620.7,-1475.29 647.59,-1471.27"/>
<polygon fill="#fb923c" stroke="#fb923c" stroke-width="1.3" points="647.82,-1474.06 655.39,-1470.25 647.09,-1468.51 647.82,-1474.06"/>
</g>
<!-- page_Dashboard -->
<g id="node5" class="node">
<title>page_Dashboard</title>
<path fill="#1e293b" stroke="#475569" d="M792.55,-997.8C792.55,-997.8 634.54,-997.8 634.54,-997.8 628.54,-997.8 622.54,-991.8 622.54,-985.8 622.54,-985.8 622.54,-968.2 622.54,-968.2 622.54,-962.2 628.54,-956.2 634.54,-956.2 634.54,-956.2 792.55,-956.2 792.55,-956.2 798.55,-956.2 804.55,-962.2 804.55,-968.2 804.55,-968.2 804.55,-985.8 804.55,-985.8 804.55,-991.8 798.55,-997.8 792.55,-997.8"/>
<text xml:space="preserve" text-anchor="middle" x="713.54" y="-981.2" font-family="Segoe UI" font-size="14.00" fill="#e2e8f0">Dashboard</text>
<text xml:space="preserve" text-anchor="middle" x="713.54" y="-964.4" font-family="Segoe UI" font-size="14.00" fill="#e2e8f0">Dashboard → DashboardPage</text>
</g>
<!-- workspace_1&#45;&gt;page_Dashboard -->
<g id="edge3" class="edge">
<title>workspace_1&#45;&gt;page_Dashboard</title>
<path fill="none" stroke="#94a3b8" stroke-width="1.3" d="M482.63,-1032.44C508.27,-1026.06 540.72,-1018.03 569.67,-1011 583.69,-1007.59 598.5,-1004.03 613.06,-1000.55"/>
<polygon fill="#94a3b8" stroke="#94a3b8" stroke-width="1.3" points="613.54,-1003.32 620.67,-998.73 612.23,-997.87 613.54,-1003.32"/>
</g>
<!-- page_LiveData -->
<g id="node6" class="node">
<title>page_LiveData</title>
<path fill="#1e293b" stroke="#475569" d="M804.58,-1064.8C804.58,-1064.8 622.5,-1064.8 622.5,-1064.8 616.5,-1064.8 610.5,-1058.8 610.5,-1052.8 610.5,-1052.8 610.5,-1035.2 610.5,-1035.2 610.5,-1029.2 616.5,-1023.2 622.5,-1023.2 622.5,-1023.2 804.58,-1023.2 804.58,-1023.2 810.58,-1023.2 816.58,-1029.2 816.58,-1035.2 816.58,-1035.2 816.58,-1052.8 816.58,-1052.8 816.58,-1058.8 810.58,-1064.8 804.58,-1064.8"/>
<text xml:space="preserve" text-anchor="middle" x="713.54" y="-1048.2" font-family="Segoe UI" font-size="14.00" fill="#e2e8f0">Live Data</text>
<text xml:space="preserve" text-anchor="middle" x="713.54" y="-1031.4" font-family="Segoe UI" font-size="14.00" fill="#e2e8f0">LiveData → LiveDataViewerPage</text>
</g>
<!-- workspace_1&#45;&gt;page_LiveData -->
<g id="edge4" class="edge">
<title>workspace_1&#45;&gt;page_LiveData</title>
<path fill="none" stroke="#94a3b8" stroke-width="1.3" d="M482.62,-1044C514.82,-1044 559.21,-1044 600.4,-1044"/>
<polygon fill="#94a3b8" stroke="#94a3b8" stroke-width="1.3" points="600.27,-1046.8 608.27,-1044 600.27,-1041.2 600.27,-1046.8"/>
</g>
<!-- page_Charts -->
<g id="node7" class="node">
<title>page_Charts</title>
<path fill="#1e293b" stroke="#475569" d="M774.67,-1131.8C774.67,-1131.8 652.42,-1131.8 652.42,-1131.8 646.42,-1131.8 640.42,-1125.8 640.42,-1119.8 640.42,-1119.8 640.42,-1102.2 640.42,-1102.2 640.42,-1096.2 646.42,-1090.2 652.42,-1090.2 652.42,-1090.2 774.67,-1090.2 774.67,-1090.2 780.67,-1090.2 786.67,-1096.2 786.67,-1102.2 786.67,-1102.2 786.67,-1119.8 786.67,-1119.8 786.67,-1125.8 780.67,-1131.8 774.67,-1131.8"/>
<text xml:space="preserve" text-anchor="middle" x="713.54" y="-1115.2" font-family="Segoe UI" font-size="14.00" fill="#e2e8f0">Charts</text>
<text xml:space="preserve" text-anchor="middle" x="713.54" y="-1098.4" font-family="Segoe UI" font-size="14.00" fill="#e2e8f0">Charts → ChartingPage</text>
</g>
<!-- workspace_1&#45;&gt;page_Charts -->
<g id="edge5" class="edge">
<title>workspace_1&#45;&gt;page_Charts</title>
<path fill="none" stroke="#94a3b8" stroke-width="1.3" d="M482.63,-1055.56C508.27,-1061.94 540.72,-1069.97 569.67,-1077 589.37,-1081.78 610.61,-1086.87 630.53,-1091.62"/>
<polygon fill="#94a3b8" stroke="#94a3b8" stroke-width="1.3" points="629.85,-1094.34 638.28,-1093.46 631.15,-1088.89 629.85,-1094.34"/>
</g>
<!-- page_Watchlist -->
<g id="node8" class="node">
<title>page_Watchlist</title>
<path fill="#1e293b" stroke="#475569" d="M785.55,-1198.8C785.55,-1198.8 641.54,-1198.8 641.54,-1198.8 635.54,-1198.8 629.54,-1192.8 629.54,-1186.8 629.54,-1186.8 629.54,-1169.2 629.54,-1169.2 629.54,-1163.2 635.54,-1157.2 641.54,-1157.2 641.54,-1157.2 785.55,-1157.2 785.55,-1157.2 791.55,-1157.2 797.55,-1163.2 797.55,-1169.2 797.55,-1169.2 797.55,-1186.8 797.55,-1186.8 797.55,-1192.8 791.55,-1198.8 785.55,-1198.8"/>
<text xml:space="preserve" text-anchor="middle" x="713.54" y="-1182.2" font-family="Segoe UI" font-size="14.00" fill="#e2e8f0">Watchlist</text>
<text xml:space="preserve" text-anchor="middle" x="713.54" y="-1165.4" font-family="Segoe UI" font-size="14.00" fill="#e2e8f0">Watchlist → WatchlistPage</text>
</g>
<!-- workspace_1&#45;&gt;page_Watchlist -->
<g id="edge6" class="edge">
<title>workspace_1&#45;&gt;page_Watchlist</title>
<path fill="none" stroke="#94a3b8" stroke-width="1.3" d="M458.57,-1065.24C483.59,-1088.05 526.46,-1123.73 569.67,-1144 585.35,-1151.36 602.76,-1157.2 619.89,-1161.82"/>
<polygon fill="#94a3b8" stroke="#94a3b8" stroke-width="1.3" points="619.02,-1164.49 627.46,-1163.77 620.41,-1159.06 619.02,-1164.49"/>
</g>
<!-- page_Provider -->
<g id="node10" class="node">
<title>page_Provider</title>
<path fill="#1e293b" stroke="#475569" d="M780.12,-57.8C780.12,-57.8 646.97,-57.8 646.97,-57.8 640.97,-57.8 634.97,-51.8 634.97,-45.8 634.97,-45.8 634.97,-28.2 634.97,-28.2 634.97,-22.2 640.97,-16.2 646.97,-16.2 646.97,-16.2 780.12,-16.2 780.12,-16.2 786.12,-16.2 792.12,-22.2 792.12,-28.2 792.12,-28.2 792.12,-45.8 792.12,-45.8 792.12,-51.8 786.12,-57.8 780.12,-57.8"/>
<text xml:space="preserve" text-anchor="middle" x="713.54" y="-41.2" font-family="Segoe UI" font-size="14.00" fill="#e2e8f0">Provider</text>
<text xml:space="preserve" text-anchor="middle" x="713.54" y="-24.4" font-family="Segoe UI" font-size="14.00" fill="#e2e8f0">Provider → ProviderPage</text>
</g>
<!-- workspace_2&#45;&gt;page_Provider -->
<g id="edge8" class="edge">
<title>workspace_2&#45;&gt;page_Provider</title>
<path fill="none" stroke="#94a3b8" stroke-width="1.3" d="M447.15,-216.82C466.52,-180.91 510.79,-108.36 569.67,-71 586.32,-60.43 605.95,-53.15 625.24,-48.13"/>
<polygon fill="#94a3b8" stroke="#94a3b8" stroke-width="1.3" points="625.64,-50.91 632.76,-46.3 624.32,-45.47 625.64,-50.91"/>
</g>
<!-- page_Symbols -->
<g id="node11" class="node">
<title>page_Symbols</title>
<path fill="#1e293b" stroke="#475569" d="M780.92,-124.8C780.92,-124.8 646.17,-124.8 646.17,-124.8 640.17,-124.8 634.17,-118.8 634.17,-112.8 634.17,-112.8 634.17,-95.2 634.17,-95.2 634.17,-89.2 640.17,-83.2 646.17,-83.2 646.17,-83.2 780.92,-83.2 780.92,-83.2 786.92,-83.2 792.92,-89.2 792.92,-95.2 792.92,-95.2 792.92,-112.8 792.92,-112.8 792.92,-118.8 786.92,-124.8 780.92,-124.8"/>
<text xml:space="preserve" text-anchor="middle" x="713.54" y="-108.2" font-family="Segoe UI" font-size="14.00" fill="#e2e8f0">Symbols</text>
<text xml:space="preserve" text-anchor="middle" x="713.54" y="-91.4" font-family="Segoe UI" font-size="14.00" fill="#e2e8f0">Symbols → SymbolsPage</text>
</g>
<!-- workspace_2&#45;&gt;page_Symbols -->
<g id="edge9" class="edge">
<title>workspace_2&#45;&gt;page_Symbols</title>
<path fill="none" stroke="#94a3b8" stroke-width="1.3" d="M447.93,-217.13C463.48,-191.2 493.77,-147.84 532.67,-127 560.34,-112.18 593.74,-105.41 624.22,-102.68"/>
<polygon fill="#94a3b8" stroke="#94a3b8" stroke-width="1.3" points="624.27,-105.48 632.03,-102.08 623.84,-99.9 624.27,-105.48"/>
</g>
<!-- page_Backfill -->
<g id="node12" class="node">
<title>page_Backfill</title>
<path fill="#1e293b" stroke="#475569" d="M777,-191.8C777,-191.8 650.09,-191.8 650.09,-191.8 644.09,-191.8 638.09,-185.8 638.09,-179.8 638.09,-179.8 638.09,-162.2 638.09,-162.2 638.09,-156.2 644.09,-150.2 650.09,-150.2 650.09,-150.2 777,-150.2 777,-150.2 783,-150.2 789,-156.2 789,-162.2 789,-162.2 789,-179.8 789,-179.8 789,-185.8 783,-191.8 777,-191.8"/>
<text xml:space="preserve" text-anchor="middle" x="713.54" y="-175.2" font-family="Segoe UI" font-size="14.00" fill="#e2e8f0">Backfill</text>
<text xml:space="preserve" text-anchor="middle" x="713.54" y="-158.4" font-family="Segoe UI" font-size="14.00" fill="#e2e8f0">Backfill → BackfillPage</text>
</g>
<!-- workspace_2&#45;&gt;page_Backfill -->
<g id="edge10" class="edge">
<title>workspace_2&#45;&gt;page_Backfill</title>
<path fill="none" stroke="#94a3b8" stroke-width="1.3" d="M448.12,-217.04C463.66,-191.64 493.73,-150.13 532.67,-133 537.42,-130.91 583.73,-140.74 628.17,-150.93"/>
<polygon fill="#94a3b8" stroke="#94a3b8" stroke-width="1.3" points="627.26,-153.59 635.69,-152.66 628.52,-148.14 627.26,-153.59"/>
</g>
<!-- page_Options -->
<g id="node13" class="node">
<title>page_Options</title>
<path fill="#1e293b" stroke="#475569" d="M776.24,-258.8C776.24,-258.8 650.85,-258.8 650.85,-258.8 644.85,-258.8 638.85,-252.8 638.85,-246.8 638.85,-246.8 638.85,-229.2 638.85,-229.2 638.85,-223.2 644.85,-217.2 650.85,-217.2 650.85,-217.2 776.24,-217.2 776.24,-217.2 782.24,-217.2 788.24,-223.2 788.24,-229.2 788.24,-229.2 788.24,-246.8 788.24,-246.8 788.24,-252.8 782.24,-258.8 776.24,-258.8"/>
<text xml:space="preserve" text-anchor="middle" x="713.54" y="-242.2" font-family="Segoe UI" font-size="14.00" fill="#e2e8f0">Options</text>
<text xml:space="preserve" text-anchor="middle" x="713.54" y="-225.4" font-family="Segoe UI" font-size="14.00" fill="#e2e8f0">Options → OptionsPage</text>
</g>
<!-- workspace_2&#45;&gt;page_Options -->
<g id="edge11" class="edge">
<title>workspace_2&#45;&gt;page_Options</title>
<path fill="none" stroke="#94a3b8" stroke-width="1.3" d="M449.27,-216.93C465.35,-192.86 495.35,-154.77 532.67,-139 563.29,-126.06 543.19,-183.9 569.67,-204 586.75,-216.97 608.04,-225.08 628.91,-230.14"/>
<polygon fill="#94a3b8" stroke="#94a3b8" stroke-width="1.3" points="628.12,-232.83 636.54,-231.83 629.33,-227.36 628.12,-232.83"/>
</g>
<!-- page_Storage -->
<g id="node15" class="node">
<title>page_Storage</title>
<path fill="#1e293b" stroke="#475569" d="M774.67,-773.8C774.67,-773.8 652.42,-773.8 652.42,-773.8 646.42,-773.8 640.42,-767.8 640.42,-761.8 640.42,-761.8 640.42,-744.2 640.42,-744.2 640.42,-738.2 646.42,-732.2 652.42,-732.2 652.42,-732.2 774.67,-732.2 774.67,-732.2 780.67,-732.2 786.67,-738.2 786.67,-744.2 786.67,-744.2 786.67,-761.8 786.67,-761.8 786.67,-767.8 780.67,-773.8 774.67,-773.8"/>
<text xml:space="preserve" text-anchor="middle" x="713.54" y="-757.2" font-family="Segoe UI" font-size="14.00" fill="#e2e8f0">Storage</text>
<text xml:space="preserve" text-anchor="middle" x="713.54" y="-740.4" font-family="Segoe UI" font-size="14.00" fill="#e2e8f0">Storage → StoragePage</text>
</g>
<!-- workspace_3&#45;&gt;page_Storage -->
<g id="edge13" class="edge">
<title>workspace_3&#45;&gt;page_Storage</title>
<path fill="none" stroke="#94a3b8" stroke-width="1.3" d="M458.57,-865.76C483.59,-842.95 526.46,-807.27 569.67,-787 588.6,-778.12 610.07,-771.44 630.5,-766.46"/>
<polygon fill="#94a3b8" stroke="#94a3b8" stroke-width="1.3" points="631.04,-769.21 638.2,-764.67 629.77,-763.75 631.04,-769.21"/>
</g>
<!-- page_DataExport -->
<g id="node16" class="node">
<title>page_DataExport</title>
<path fill="#1e293b" stroke="#475569" d="M796.43,-840.8C796.43,-840.8 630.66,-840.8 630.66,-840.8 624.66,-840.8 618.66,-834.8 618.66,-828.8 618.66,-828.8 618.66,-811.2 618.66,-811.2 618.66,-805.2 624.66,-799.2 630.66,-799.2 630.66,-799.2 796.43,-799.2 796.43,-799.2 802.43,-799.2 808.43,-805.2 808.43,-811.2 808.43,-811.2 808.43,-828.8 808.43,-828.8 808.43,-834.8 802.43,-840.8 796.43,-840.8"/>
<text xml:space="preserve" text-anchor="middle" x="713.54" y="-824.2" font-family="Segoe UI" font-size="14.00" fill="#e2e8f0">Export</text>
<text xml:space="preserve" text-anchor="middle" x="713.54" y="-807.4" font-family="Segoe UI" font-size="14.00" fill="#e2e8f0">DataExport → DataExportPage</text>
</g>
<!-- workspace_3&#45;&gt;page_DataExport -->
<g id="edge14" class="edge">
<title>workspace_3&#45;&gt;page_DataExport</title>
<path fill="none" stroke="#94a3b8" stroke-width="1.3" d="M482.63,-875.44C508.27,-869.06 540.72,-861.03 569.67,-854 583.69,-850.59 598.5,-847.03 613.06,-843.55"/>
<polygon fill="#94a3b8" stroke="#94a3b8" stroke-width="1.3" points="613.54,-846.32 620.67,-841.73 612.23,-840.87 613.54,-846.32"/>
</g>
<!-- page_PackageManager -->
<g id="node17" class="node">
<title>page_PackageManager</title>
<path fill="#1e293b" stroke="#475569" d="M828.29,-907.8C828.29,-907.8 598.79,-907.8 598.79,-907.8 592.79,-907.8 586.79,-901.8 586.79,-895.8 586.79,-895.8 586.79,-878.2 586.79,-878.2 586.79,-872.2 592.79,-866.2 598.79,-866.2 598.79,-866.2 828.29,-866.2 828.29,-866.2 834.29,-866.2 840.29,-872.2 840.29,-878.2 840.29,-878.2 840.29,-895.8 840.29,-895.8 840.29,-901.8 834.29,-907.8 828.29,-907.8"/>
<text xml:space="preserve" text-anchor="middle" x="713.54" y="-891.2" font-family="Segoe UI" font-size="14.00" fill="#e2e8f0">Packages</text>
<text xml:space="preserve" text-anchor="middle" x="713.54" y="-874.4" font-family="Segoe UI" font-size="14.00" fill="#e2e8f0">PackageManager → PackageManagerPage</text>
</g>
<!-- workspace_3&#45;&gt;page_PackageManager -->
<g id="edge15" class="edge">
<title>workspace_3&#45;&gt;page_PackageManager</title>
<path fill="none" stroke="#94a3b8" stroke-width="1.3" d="M482.62,-887C508.73,-887 542.85,-887 576.78,-887"/>
<polygon fill="#94a3b8" stroke="#94a3b8" stroke-width="1.3" points="576.37,-889.8 584.37,-887 576.37,-884.2 576.37,-889.8"/>
</g>
<!-- page_DataQuality -->
<g id="node19" class="node">
<title>page_DataQuality</title>
<path fill="#1e293b" stroke="#475569" d="M800.32,-549.8C800.32,-549.8 626.77,-549.8 626.77,-549.8 620.77,-549.8 614.77,-543.8 614.77,-537.8 614.77,-537.8 614.77,-520.2 614.77,-520.2 614.77,-514.2 620.77,-508.2 626.77,-508.2 626.77,-508.2 800.32,-508.2 800.32,-508.2 806.32,-508.2 812.32,-514.2 812.32,-520.2 812.32,-520.2 812.32,-537.8 812.32,-537.8 812.32,-543.8 806.32,-549.8 800.32,-549.8"/>
<text xml:space="preserve" text-anchor="middle" x="713.54" y="-533.2" font-family="Segoe UI" font-size="14.00" fill="#e2e8f0">Data Quality</text>
<text xml:space="preserve" text-anchor="middle" x="713.54" y="-516.4" font-family="Segoe UI" font-size="14.00" fill="#e2e8f0">DataQuality → DataQualityPage</text>
</g>
<!-- workspace_4&#45;&gt;page_DataQuality -->
<g id="edge17" class="edge">
<title>workspace_4&#45;&gt;page_DataQuality</title>
<path fill="none" stroke="#94a3b8" stroke-width="1.3" d="M482.62,-534C515.88,-533.27 562.16,-532.27 604.48,-531.35"/>
<polygon fill="#94a3b8" stroke="#94a3b8" stroke-width="1.3" points="604.38,-534.15 612.32,-531.18 604.26,-528.55 604.38,-534.15"/>
</g>
<!-- page_ProviderHealth -->
<g id="node20" class="node">
<title>page_ProviderHealth</title>
<path fill="#1e293b" stroke="#475569" d="M817.43,-616.8C817.43,-616.8 609.66,-616.8 609.66,-616.8 603.66,-616.8 597.66,-610.8 597.66,-604.8 597.66,-604.8 597.66,-587.2 597.66,-587.2 597.66,-581.2 603.66,-575.2 609.66,-575.2 609.66,-575.2 817.43,-575.2 817.43,-575.2 823.43,-575.2 829.43,-581.2 829.43,-587.2 829.43,-587.2 829.43,-604.8 829.43,-604.8 829.43,-610.8 823.43,-616.8 817.43,-616.8"/>
<text xml:space="preserve" text-anchor="middle" x="713.54" y="-600.2" font-family="Segoe UI" font-size="14.00" fill="#e2e8f0">Provider Health</text>
<text xml:space="preserve" text-anchor="middle" x="713.54" y="-583.4" font-family="Segoe UI" font-size="14.00" fill="#e2e8f0">ProviderHealth → ProviderHealthPage</text>
</g>
<!-- workspace_4&#45;&gt;page_ProviderHealth -->
<g id="edge18" class="edge">
<title>workspace_4&#45;&gt;page_ProviderHealth</title>
<path fill="none" stroke="#94a3b8" stroke-width="1.3" d="M482.74,-532.74C499.14,-533.15 517.52,-535 533.67,-540 551.58,-545.54 552.33,-554.85 569.67,-562 578.42,-565.61 587.64,-568.89 597,-571.85"/>
<polygon fill="#94a3b8" stroke="#94a3b8" stroke-width="1.3" points="596.05,-574.49 604.52,-574.14 597.69,-569.13 596.05,-574.49"/>
</g>
<!-- page_Diagnostics -->
<g id="node21" class="node">
<title>page_Diagnostics</title>
<path fill="#1e293b" stroke="#475569" d="M798,-683.8C798,-683.8 629.08,-683.8 629.08,-683.8 623.08,-683.8 617.08,-677.8 617.08,-671.8 617.08,-671.8 617.08,-654.2 617.08,-654.2 617.08,-648.2 623.08,-642.2 629.08,-642.2 629.08,-642.2 798,-642.2 798,-642.2 804,-642.2 810,-648.2 810,-654.2 810,-654.2 810,-671.8 810,-671.8 810,-677.8 804,-683.8 798,-683.8"/>
<text xml:space="preserve" text-anchor="middle" x="713.54" y="-667.2" font-family="Segoe UI" font-size="14.00" fill="#e2e8f0">Diagnostics</text>
<text xml:space="preserve" text-anchor="middle" x="713.54" y="-650.4" font-family="Segoe UI" font-size="14.00" fill="#e2e8f0">Diagnostics → DiagnosticsPage</text>
</g>
<!-- workspace_4&#45;&gt;page_Diagnostics -->
<g id="edge19" class="edge">
<title>workspace_4&#45;&gt;page_Diagnostics</title>
<path fill="none" stroke="#94a3b8" stroke-width="1.3" d="M460.2,-556.08C485.6,-577.5 527.86,-610.13 569.67,-629 581.54,-634.36 594.37,-638.93 607.3,-642.82"/>
<polygon fill="#94a3b8" stroke="#94a3b8" stroke-width="1.3" points="606.36,-645.47 614.82,-644.99 607.91,-640.09 606.36,-645.47"/>
</g>
<!-- page_Settings -->
<g id="node23" class="node">
<title>page_Settings</title>
<path fill="#1e293b" stroke="#475569" d="M777.02,-348.8C777.02,-348.8 650.07,-348.8 650.07,-348.8 644.07,-348.8 638.07,-342.8 638.07,-336.8 638.07,-336.8 638.07,-319.2 638.07,-319.2 638.07,-313.2 644.07,-307.2 650.07,-307.2 650.07,-307.2 777.02,-307.2 777.02,-307.2 783.02,-307.2 789.02,-313.2 789.02,-319.2 789.02,-319.2 789.02,-336.8 789.02,-336.8 789.02,-342.8 783.02,-348.8 777.02,-348.8"/>
<text xml:space="preserve" text-anchor="middle" x="713.54" y="-332.2" font-family="Segoe UI" font-size="14.00" fill="#e2e8f0">Settings</text>
<text xml:space="preserve" text-anchor="middle" x="713.54" y="-315.4" font-family="Segoe UI" font-size="14.00" fill="#e2e8f0">Settings → SettingsPage</text>
</g>
<!-- workspace_5&#45;&gt;page_Settings -->
<g id="edge21" class="edge">
<title>workspace_5&#45;&gt;page_Settings</title>
<path fill="none" stroke="#94a3b8" stroke-width="1.3" d="M458.57,-440.76C483.59,-417.95 526.46,-382.27 569.67,-362 587.92,-353.44 608.52,-346.92 628.29,-342"/>
<polygon fill="#94a3b8" stroke="#94a3b8" stroke-width="1.3" points="628.86,-344.75 636,-340.17 627.57,-339.3 628.86,-344.75"/>
</g>
<!-- page_AddProviderWizard -->
<g id="node24" class="node">
<title>page_AddProviderWizard</title>
<path fill="#1e293b" stroke="#475569" d="M845.42,-415.8C845.42,-415.8 581.67,-415.8 581.67,-415.8 575.67,-415.8 569.67,-409.8 569.67,-403.8 569.67,-403.8 569.67,-386.2 569.67,-386.2 569.67,-380.2 575.67,-374.2 581.67,-374.2 581.67,-374.2 845.42,-374.2 845.42,-374.2 851.42,-374.2 857.42,-380.2 857.42,-386.2 857.42,-386.2 857.42,-403.8 857.42,-403.8 857.42,-409.8 851.42,-415.8 845.42,-415.8"/>
<text xml:space="preserve" text-anchor="middle" x="713.54" y="-399.2" font-family="Segoe UI" font-size="14.00" fill="#e2e8f0">Add Provider</text>
<text xml:space="preserve" text-anchor="middle" x="713.54" y="-382.4" font-family="Segoe UI" font-size="14.00" fill="#e2e8f0">AddProviderWizard → AddProviderWizardPage</text>
</g>
<!-- workspace_5&#45;&gt;page_AddProviderWizard -->
<g id="edge22" class="edge">
<title>workspace_5&#45;&gt;page_AddProviderWizard</title>
<path fill="none" stroke="#94a3b8" stroke-width="1.3" d="M482.63,-450.44C508.27,-444.06 540.72,-436.03 569.67,-429 583.69,-425.59 598.5,-422.03 613.06,-418.55"/>
<polygon fill="#94a3b8" stroke="#94a3b8" stroke-width="1.3" points="613.54,-421.32 620.67,-416.73 612.23,-415.87 613.54,-421.32"/>
</g>
<!-- page_AdminMaintenance -->
<g id="node25" class="node">
<title>page_AdminMaintenance</title>
<path fill="#1e293b" stroke="#475569" d="M843.09,-482.8C843.09,-482.8 584,-482.8 584,-482.8 578,-482.8 572,-476.8 572,-470.8 572,-470.8 572,-453.2 572,-453.2 572,-447.2 578,-441.2 584,-441.2 584,-441.2 843.09,-441.2 843.09,-441.2 849.09,-441.2 855.09,-447.2 855.09,-453.2 855.09,-453.2 855.09,-470.8 855.09,-470.8 855.09,-476.8 849.09,-482.8 843.09,-482.8"/>
<text xml:space="preserve" text-anchor="middle" x="713.54" y="-466.2" font-family="Segoe UI" font-size="14.00" fill="#e2e8f0">Admin</text>
<text xml:space="preserve" text-anchor="middle" x="713.54" y="-449.4" font-family="Segoe UI" font-size="14.00" fill="#e2e8f0">AdminMaintenance → AdminMaintenancePage</text>
</g>
<!-- workspace_5&#45;&gt;page_AdminMaintenance -->
<g id="edge23" class="edge">
<title>workspace_5&#45;&gt;page_AdminMaintenance</title>
<path fill="none" stroke="#94a3b8" stroke-width="1.3" d="M482.62,-462C504.9,-462 533.02,-462 561.87,-462"/>
<polygon fill="#94a3b8" stroke="#94a3b8" stroke-width="1.3" points="561.71,-464.8 569.71,-462 561.71,-459.2 561.71,-464.8"/>
</g>
</g>
</svg>
